999
dxfrw 0.6.3
  0
SECTION
  2
HEADER
  9
$ACADVER
  1
AC1021
  9
$DWGCODEPAGE
  3
ANSI_1252
  9
$INSBASE
 10
0
 20
0
 30
0
  9
$EXTMIN
 10
50
 20
50
 30
0
  9
$EXTMAX
 10
2920
 20
2050
 30
0
  9
$LIMMIN
 10
0
 20
0
  9
$LIMMAX
 10
420
 20
297
  9
$ORTHOMODE
 70
    0
  9
$REGENMODE
 70
    1
  9
$FILLMODE
 70
    1
  9
$QTEXTMODE
 70
    0
  9
$MIRRTEXT
 70
    0
  9
$LTSCALE
 40
1
  9
$ATTMODE
 70
    0
  9
$TEXTSIZE
 40
2.5
  9
$TRACEWID
 40
15.68
  9
$TEXTSTYLE
  7
STANDARD
  9
$CLAYER
  8
zipper
  9
$CELTYPE
  6
BYLAYER
  9
$CECOLOR
 62
  256
  9
$CELTSCALE
 40
1
  9
$DISPSILH
 70
    0
  9
$DIMSCALE
 40
10
  9
$DIMASZ
 40
2.5
  9
$DIMEXO
 40
0.625
  9
$DIMDLI
 40
3.75
  9
$DIMRND
 40
0
  9
$DIMDLE
 40
0
  9
$DIMEXE
 40
1.25
  9
$DIMTP
 40
0
  9
$DIMTM
 40
0
  9
$DIMTXT
 40
2.5
  9
$DIMCEN
 40
2.5
  9
$DIMTSZ
 40
0
  9
$DIMTOL
 70
    0
  9
$DIMLIM
 70
    0
  9
$DIMTIH
 70
    0
  9
$DIMTOH
 70
    0
  9
$DIMSE1
 70
    0
  9
$DIMSE2
 70
    0
  9
$DIMTAD
 70
    1
  9
$DIMZIN
 70
    1
  9
$DIMBLK
  1

  9
$DIMASO
 70
    1
  9
$DIMSHO
 70
    1
  9
$DIMPOST
  1

  9
$DIMAPOST
  1

  9
$DIMALT
 70
    0
  9
$DIMALTD
 70
    3
  9
$DIMALTF
 40
0.03937
  9
$DIMLFAC
 40
1
  9
$DIMTOFL
 70
    1
  9
$DIMTVP
 40
0
  9
$DIMTIX
 70
    0
  9
$DIMSOXD
 70
    0
  9
$DIMSAH
 70
    0
  9
$DIMBLK1
  1

  9
$DIMBLK2
  1

  9
$DIMSTYLE
  2
STANDARD
  9
$DIMCLRD
 70
    0
  9
$DIMCLRE
 70
    0
  9
$DIMCLRT
 70
    0
  9
$DIMTFAC
 40
1
  9
$DIMGAP
 40
0.625
  9
$DIMJUST
 70
    0
  9
$DIMSD1
 70
    0
  9
$DIMSD2
 70
    0
  9
$DIMTOLJ
 70
    0
  9
$DIMTZIN
 70
    8
  9
$DIMALTZ
 70
    0
  9
$DIMALTTZ
 70
    0
  9
$DIMUPT
 70
    0
  9
$DIMDEC
 70
    0
  9
$DIMTDEC
 70
    2
  9
$DIMALTU
 70
    2
  9
$DIMALTTD
 70
    3
  9
$DIMTXSTY
  7
standard
  9
$DIMAUNIT
 70
    0
  9
$DIMADEC
 70
    0
  9
$DIMALTRND
 40
0
  9
$DIMAZIN
 70
    0
  9
$DIMDSEP
 70
    0
  9
$DIMATFIT
 70
    3
  9
$DIMFRAC
 70
    0
  9
$DIMLDRBLK
  1
STANDARD
  9
$DIMLUNIT
 70
    2
  9
$DIMLWD
 70
   -2
  9
$DIMLWE
 70
   -2
  9
$DIMTMOVE
 70
    0
  9
$DIMFXL
 40
1
  9
$DIMFXLON
 70
    0
  9
$DIMJOGANG
 40
0.7854
  9
$DIMTFILL
 70
    0
  9
$DIMTFILLCLR
 70
    0
  9
$DIMARCSYM
 70
    0
  9
$DIMLTYPE
  6

  9
$DIMLTEX1
  6

  9
$DIMLTEX2
  6

  9
$LUNITS
 70
    2
  9
$LUPREC
 70
    4
  9
$SKETCHINC
 40
1
  9
$FILLETRAD
 40
0
  9
$AUNITS
 70
    0
  9
$AUPREC
 70
    2
  9
$MENU
  1
.
  9
$ELEVATION
 40
0
  9
$PELEVATION
 40
0
  9
$THICKNESS
 40
0
  9
$LIMCHECK
 70
    0
  9
$CHAMFERA
 40
0
  9
$CHAMFERB
 40
0
  9
$CHAMFERC
 40
0
  9
$CHAMFERD
 40
0
  9
$SKPOLY
 70
    0
  9
$USRTIMER
 70
    1
  9
$ANGBASE
 50
0
  9
$ANGDIR
 70
    0
  9
$PDMODE
 70
   34
  9
$PDSIZE
 40
0
  9
$PLINEWID
 40
0
  9
$SPLFRAME
 70
    0
  9
$SPLINETYPE
 70
    2
  9
$SPLINESEGS
 70
    8
  9
$HANDSEED
  5
20000
  9
$SURFTAB1
 70
    6
  9
$SURFTAB2
 70
    6
  9
$SURFTYPE
 70
    6
  9
$SURFU
 70
    6
  9
$SURFV
 70
    6
  9
$UCSBASE
  2

  9
$UCSNAME
  2

  9
$UCSORG
 10
0
 20
0
 30
0
  9
$UCSXDIR
 10
1
 20
0
 30
0
  9
$UCSYDIR
 10
0
 20
1
 30
0
  9
$UCSORTHOREF
  2

  9
$UCSORTHOVIEW
 70
    0
  9
$UCSORGTOP
 10
0
 20
0
 30
0
  9
$UCSORGBOTTOM
 10
0
 20
0
 30
0
  9
$UCSORGLEFT
 10
0
 20
0
 30
0
  9
$UCSORGRIGHT
 10
0
 20
0
 30
0
  9
$UCSORGFRONT
 10
0
 20
0
 30
0
  9
$UCSORGBACK
 10
0
 20
0
 30
0
  9
$PUCSBASE
  2

  9
$PUCSNAME
  2

  9
$PUCSORG
 10
0
 20
0
 30
0
  9
$PUCSXDIR
 10
1
 20
0
 30
0
  9
$PUCSYDIR
 10
0
 20
1
 30
0
  9
$PUCSORTHOREF
  2

  9
$PUCSORTHOVIEW
 70
    0
  9
$PUCSORGTOP
 10
0
 20
0
 30
0
  9
$PUCSORGBOTTOM
 10
0
 20
0
 30
0
  9
$PUCSORGLEFT
 10
0
 20
0
 30
0
  9
$PUCSORGRIGHT
 10
0
 20
0
 30
0
  9
$PUCSORGFRONT
 10
0
 20
0
 30
0
  9
$PUCSORGBACK
 10
0
 20
0
 30
0
  9
$USERI1
 70
    0
  9
$USERI2
 70
    0
  9
$USERI3
 70
    0
  9
$USERI4
 70
    0
  9
$USERI5
 70
    0
  9
$USERR1
 40
0
  9
$USERR2
 40
0
  9
$USERR3
 40
0
  9
$USERR4
 40
0
  9
$USERR5
 40
0
  9
$WORLDVIEW
 70
    1
  9
$SHADEDGE
 70
    3
  9
$SHADEDIF
 70
   70
  9
$TILEMODE
 70
    1
  9
$MAXACTVP
 70
   64
  9
$PINSBASE
 10
0
 20
0
 30
0
  9
$PLIMCHECK
 70
    0
  9
$PEXTMIN
 10
0
 20
0
 30
0
  9
$PEXTMAX
 10
0
 20
0
 30
0
  9
$GRIDMODE
 70
    1
  9
$SNAPSTYLE
 70
    0
  9
$GRIDUNIT
 10
0
 20
0
  9
$PLIMMIN
 10
0
 20
0
  9
$PLIMMAX
 10
297
 20
210
  9
$UNITMODE
 70
    0
  9
$VISRETAIN
 70
    1
  9
$PLINEGEN
 70
    0
  9
$PSLTSCALE
 70
    1
  9
$TREEDEPTH
 70
 3020
  9
$CMLSTYLE
  2
Standard
  9
$CMLJUST
 70
    0
  9
$CMLSCALE
 40
20
  9
$PROXYGRAPHICS
 70
    1
  9
$MEASUREMENT
 70
    1
  9
$CELWEIGHT
370
   -1
  9
$ENDCAPS
280
    0
  9
$JOINSTYLE
280
    0
  9
$LWDISPLAY
290
    0
  9
$INSUNITS
 70
    4
  9
$HYPERLINKBASE
  1

  9
$STYLESHEET
  1

  9
$XEDIT
290
    1
  9
$CEPSNTYPE
380
    0
  9
$PSTYLEMODE
290
    1
  9
$EXTNAMES
290
    1
  9
$PSVPSCALE
 40
0.1
  9
$OLESTARTUP
290
    0
  9
$SORTENTS
280
  127
  9
$INDEXCTL
280
    0
  9
$HIDETEXT
280
    1
  9
$XCLIPFRAME
290
    0
  9
$HALOGAP
280
    0
  9
$OBSCOLOR
 70
  257
  9
$OBSLTYPE
280
    0
  9
$INTERSECTIONDISPLAY
280
    0
  9
$INTERSECTIONCOLOR
 70
  257
  9
$DIMASSOC
280
    1
  9
$PROJECTNAME
  1

  9
$CAMERADISPLAY
290
    0
  9
$LENSLENGTH
 40
50
  9
$CAMERAHEIGHT
 40
0
  9
$STEPSPERSEC
 40
2
  9
$STEPSIZE
 40
50
  9
$3DDWFPREC
 40
2
  9
$PSOLWIDTH
 40
5
  9
$PSOLHEIGHT
 40
80
  9
$LOFTANG1
 40
1.570796326794897
  9
$LOFTANG2
 40
1.570796326794897
  9
$LOFTMAG1
 40
0
  9
$LOFTMAG2
 40
0
  9
$LOFTPARAM
 70
    7
  9
$LOFTNORMALS
280
    1
  9
$LATITUDE
 40
1
  9
$LONGITUDE
 40
1
  9
$NORTHDIRECTION
 40
0
  9
$TIMEZONE
 70
-8000
  9
$LIGHTGLYPHDISPLAY
280
    1
  9
$TILEMODELIGHTSYNCH
280
    1
  9
$SOLIDHIST
280
    1
  9
$SHOWHIST
280
    1
  9
$DWFFRAME
280
    2
  9
$DGNFRAME
280
    0
  9
$REALWORLDSCALE
290
    1
  9
$INTERFERECOLOR
 62
    1
  9
$CSHADOW
280
    0
  9
$SHADOWPLANELOCATION
 40
0
  0
ENDSEC
  0
SECTION
  2
CLASSES
  0
ENDSEC
  0
SECTION
  2
TABLES
  0
TABLE
  2
VPORT
  5
8
330
0
100
AcDbSymbolTable
 70
    1
  0
VPORT
  5
31
330
2
100
AcDbSymbolTableRecord
100
AcDbViewportTableRecord
  2
*ACTIVE
 70
    0
 10
0
 20
0
 11
1
 21
1
 12
1354.449542051129
 22
1177.397314332027
 13
0
 23
0
 14
10
 24
10
 15
10
 25
10
 16
0
 26
0
 36
1
 17
0
 27
0
 37
0
 40
1985.198103300429
 41
1.711259754738016
 42
50
 43
0
 44
0
 50
0
 51
0
 71
    0
 72
  100
 73
    1
 74
    3
 75
    0
 76
    1
 77
    0
 78
    0
281
    0
 65
    1
110
0
120
0
130
0
111
1
121
0
131
0
112
0
122
1
132
0
 79
    0
146
0
348
10020
 60
    7
 61
    5
292
1
282
    1
141
0
142
0
 63
  250
421
3358443
  0
ENDTAB
  0
TABLE
  2
LTYPE
  5
5
330
0
100
AcDbSymbolTable
 70
    4
  0
LTYPE
  5
14
330
5
100
AcDbSymbolTableRecord
100
AcDbLinetypeTableRecord
  2
ByBlock
 70
    0
  3

 72
   65
 73
    0
 40
0
  0
LTYPE
  5
15
330
5
100
AcDbSymbolTableRecord
100
AcDbLinetypeTableRecord
  2
ByLayer
 70
    0
  3

 72
   65
 73
    0
 40
0
  0
LTYPE
  5
16
330
5
100
AcDbSymbolTableRecord
100
AcDbLinetypeTableRecord
  2
Continuous
 70
    0
  3
Solid line
 72
   65
 73
    0
 40
0
  0
LTYPE
  5
32
330
5
100
AcDbSymbolTableRecord
100
AcDbLinetypeTableRecord
  2
DOT
 70
    0
  3
Dot . . . . . . . . . . . . . . . . . . . . . .
 72
   65
 73
    2
 40
6.35
 49
0
 74
    0
 49
-6.35
 74
    0
  0
LTYPE
  5
33
330
5
100
AcDbSymbolTableRecord
100
AcDbLinetypeTableRecord
  2
DOTTINY
 70
    0
  3
Dot (.15x) .....................................
 72
   65
 73
    2
 40
0.9525
 49
0
 74
    0
 49
-0.9525
 74
    0
  0
LTYPE
  5
34
330
5
100
AcDbSymbolTableRecord
100
AcDbLinetypeTableRecord
  2
DOT2
 70
    0
  3
Dot (.5x) .....................................
 72
   65
 73
    2
 40
3.175
 49
0
 74
    0
 49
-3.175
 74
    0
  0
LTYPE
  5
35
330
5
100
AcDbSymbolTableRecord
100
AcDbLinetypeTableRecord
  2
DOTX2
 70
    0
  3
Dot (2x) .  .  .  .  .  .  .  .  .  .  .  .  .
 72
   65
 73
    2
 40
12.7
 49
0
 74
    0
 49
-12.7
 74
    0
  0
LTYPE
  5
36
330
5
100
AcDbSymbolTableRecord
100
AcDbLinetypeTableRecord
  2
DASHED
 70
    0
  3
Dashed _ _ _ _ _ _ _ _ _ _ _ _ _ _ _ _ _
 72
   65
 73
    2
 40
19.05
 49
12.7
 74
    0
 49
-6.35
 74
    0
  0
LTYPE
  5
37
330
5
100
AcDbSymbolTableRecord
100
AcDbLinetypeTableRecord
  2
DASHEDTINY
 70
    0
  3
Dashed (.15x) _ _ _ _ _ _ _ _ _ _ _ _ _ _ _ _ _
 72
   65
 73
    2
 40
2.8575
 49
1.905
 74
    0
 49
-0.9525
 74
    0
  0
LTYPE
  5
38
330
5
100
AcDbSymbolTableRecord
100
AcDbLinetypeTableRecord
  2
DASHED2
 70
    0
  3
Dashed (.5x) _ _ _ _ _ _ _ _ _ _ _ _ _ _ _ _ _
 72
   65
 73
    2
 40
9.524999999999999
 49
6.35
 74
    0
 49
-3.175
 74
    0
  0
LTYPE
  5
39
330
5
100
AcDbSymbolTableRecord
100
AcDbLinetypeTableRecord
  2
DASHEDX2
 70
    0
  3
Dashed (2x) ____  ____  ____  ____  ____  ___
 72
   65
 73
    2
 40
38.09999999999999
 49
25.4
 74
    0
 49
-12.7
 74
    0
  0
LTYPE
  5
3A
330
5
100
AcDbSymbolTableRecord
100
AcDbLinetypeTableRecord
  2
DASHDOT
 70
    0
  3
Dash dot __ . __ . __ . __ . __ . __ . __ . __
 72
   65
 73
    4
 40
25.4
 49
12.7
 74
    0
 49
-6.35
 74
    0
 49
0
 74
    0
 49
-6.35
 74
    0
  0
LTYPE
  5
3B
330
5
100
AcDbSymbolTableRecord
100
AcDbLinetypeTableRecord
  2
DASHDOTTINY
 70
    0
  3
Dash dot (.15x) _._._._._._._._._._._._._._._.
 72
   65
 73
    4
 40
3.81
 49
1.905
 74
    0
 49
-0.9525
 74
    0
 49
0
 74
    0
 49
-0.9525
 74
    0
  0
LTYPE
  5
3C
330
5
100
AcDbSymbolTableRecord
100
AcDbLinetypeTableRecord
  2
DASHDOT2
 70
    0
  3
Dash dot (.5x) _._._._._._._._._._._._._._._.
 72
   65
 73
    4
 40
12.7
 49
6.35
 74
    0
 49
-3.175
 74
    0
 49
0
 74
    0
 49
-3.175
 74
    0
  0
LTYPE
  5
3D
330
5
100
AcDbSymbolTableRecord
100
AcDbLinetypeTableRecord
  2
DASHDOTX2
 70
    0
  3
Dash dot (2x) ____  .  ____  .  ____  .  ___
 72
   65
 73
    4
 40
50.8
 49
25.4
 74
    0
 49
-12.7
 74
    0
 49
0
 74
    0
 49
-12.7
 74
    0
  0
LTYPE
  5
3E
330
5
100
AcDbSymbolTableRecord
100
AcDbLinetypeTableRecord
  2
DIVIDE
 70
    0
  3
Divide ____ . . ____ . . ____ . . ____ . . ____
 72
   65
 73
    6
 40
31.75
 49
12.7
 74
    0
 49
-6.35
 74
    0
 49
0
 74
    0
 49
-6.35
 74
    0
 49
0
 74
    0
 49
-6.35
 74
    0
  0
LTYPE
  5
3F
330
5
100
AcDbSymbolTableRecord
100
AcDbLinetypeTableRecord
  2
DIVIDETINY
 70
    0
  3
Divide (.15x) __..__..__..__..__..__..__..__.._
 72
   65
 73
    6
 40
4.7625
 49
1.905
 74
    0
 49
-0.9525
 74
    0
 49
0
 74
    0
 49
-0.9525
 74
    0
 49
0
 74
    0
 49
-0.9525
 74
    0
  0
LTYPE
  5
40
330
5
100
AcDbSymbolTableRecord
100
AcDbLinetypeTableRecord
  2
DIVIDE2
 70
    0
  3
Divide (.5x) __..__..__..__..__..__..__..__.._
 72
   65
 73
    6
 40
15.875
 49
6.35
 74
    0
 49
-3.175
 74
    0
 49
0
 74
    0
 49
-3.175
 74
    0
 49
0
 74
    0
 49
-3.175
 74
    0
  0
LTYPE
  5
41
330
5
100
AcDbSymbolTableRecord
100
AcDbLinetypeTableRecord
  2
DIVIDEX2
 70
    0
  3
Divide (2x) ________  .  .  ________  .  .  _
 72
   65
 73
    6
 40
63.5
 49
25.4
 74
    0
 49
-12.7
 74
    0
 49
0
 74
    0
 49
-12.7
 74
    0
 49
0
 74
    0
 49
-12.7
 74
    0
  0
LTYPE
  5
42
330
5
100
AcDbSymbolTableRecord
100
AcDbLinetypeTableRecord
  2
BORDER
 70
    0
  3
Border __ __ . __ __ . __ __ . __ __ . __ __ .
 72
   65
 73
    6
 40
44.45
 49
12.7
 74
    0
 49
-6.35
 74
    0
 49
12.7
 74
    0
 49
-6.35
 74
    0
 49
0
 74
    0
 49
-6.35
 74
    0
  0
LTYPE
  5
43
330
5
100
AcDbSymbolTableRecord
100
AcDbLinetypeTableRecord
  2
BORDERTINY
 70
    0
  3
Border (.15x) __.__.__.__.__.__.__.__.__.__.__.
 72
   65
 73
    6
 40
6.6675
 49
1.905
 74
    0
 49
-0.9525
 74
    0
 49
1.905
 74
    0
 49
-0.9525
 74
    0
 49
0
 74
    0
 49
-0.9525
 74
    0
  0
LTYPE
  5
44
330
5
100
AcDbSymbolTableRecord
100
AcDbLinetypeTableRecord
  2
BORDER2
 70
    0
  3
Border (.5x) __.__.__.__.__.__.__.__.__.__.__.
 72
   65
 73
    6
 40
22.225
 49
6.35
 74
    0
 49
-3.175
 74
    0
 49
6.35
 74
    0
 49
-3.175
 74
    0
 49
0
 74
    0
 49
-3.175
 74
    0
  0
LTYPE
  5
45
330
5
100
AcDbSymbolTableRecord
100
AcDbLinetypeTableRecord
  2
BORDERX2
 70
    0
  3
Border (2x) ____  ____  .  ____  ____  .  ___
 72
   65
 73
    6
 40
88.89999999999999
 49
25.4
 74
    0
 49
-12.7
 74
    0
 49
25.4
 74
    0
 49
-12.7
 74
    0
 49
0
 74
    0
 49
-12.7
 74
    0
  0
LTYPE
  5
46
330
5
100
AcDbSymbolTableRecord
100
AcDbLinetypeTableRecord
  2
CENTER
 70
    0
  3
Center ____ _ ____ _ ____ _ ____ _ ____ _ ____
 72
   65
 73
    4
 40
50.8
 49
31.75
 74
    0
 49
-6.35
 74
    0
 49
6.35
 74
    0
 49
-6.35
 74
    0
  0
LTYPE
  5
47
330
5
100
AcDbSymbolTableRecord
100
AcDbLinetypeTableRecord
  2
CENTERTINY
 70
    0
  3
Center (.15x) ___ _ ___ _ ___ _ ___ _ ___ _ ___
 72
   65
 73
    4
 40
7.619999999999999
 49
4.7625
 74
    0
 49
-0.9525
 74
    0
 49
0.9525
 74
    0
 49
-0.9525
 74
    0
  0
LTYPE
  5
48
330
5
100
AcDbSymbolTableRecord
100
AcDbLinetypeTableRecord
  2
CENTER2
 70
    0
  3
Center (.5x) ___ _ ___ _ ___ _ ___ _ ___ _ ___
 72
   65
 73
    4
 40
28.575
 49
19.05
 74
    0
 49
-3.175
 74
    0
 49
3.175
 74
    0
 49
-3.175
 74
    0
  0
LTYPE
  5
49
330
5
100
AcDbSymbolTableRecord
100
AcDbLinetypeTableRecord
  2
CENTERX2
 70
    0
  3
Center (2x) ________  __  ________  __  _____
 72
   65
 73
    4
 40
101.6
 49
63.5
 74
    0
 49
-12.7
 74
    0
 49
12.7
 74
    0
 49
-12.7
 74
    0
  0
ENDTAB
  0
TABLE
  2
LAYER
  5
2
330
0
100
AcDbSymbolTable
 70
    1
  0
LAYER
  5
10
330
2
100
AcDbSymbolTableRecord
100
AcDbLayerTableRecord
  2
0
 70
    0
 62
    7
  6
CONTINUOUS
370
    0
390
F
  0
LAYER
  5
4A
330
2
100
AcDbSymbolTableRecord
100
AcDbLayerTableRecord
  2
dim
 70
    0
 62
    7
  6
CONTINUOUS
370
   25
390
F
  0
LAYER
  5
4B
330
2
100
AcDbSymbolTableRecord
100
AcDbLayerTableRecord
  2
main
 70
    0
 62
    7
  6
CONTINUOUS
370
   50
390
F
  0
LAYER
  5
4C
330
2
100
AcDbSymbolTableRecord
100
AcDbLayerTableRecord
  2
seam
 70
    0
 62
    7
  6
DASHDOTTINY
370
   13
390
F
  0
LAYER
  5
4D
330
2
100
AcDbSymbolTableRecord
100
AcDbLayerTableRecord
  2
template-thick
 70
    4
 62
    7
  6
CONTINUOUS
370
   50
390
F
  0
LAYER
  5
4E
330
2
100
AcDbSymbolTableRecord
100
AcDbLayerTableRecord
  2
template-thin
 70
    4
 62
    7
  6
CONTINUOUS
370
   25
390
F
  0
LAYER
  5
4F
330
2
100
AcDbSymbolTableRecord
100
AcDbLayerTableRecord
  2
zipper
 70
    0
 62
    7
  6
DASHEDTINY
370
   13
390
F
  0
ENDTAB
  0
TABLE
  2
STYLE
  5
3
330
0
100
AcDbSymbolTable
 70
    3
  0
STYLE
  5
50
330
2
100
AcDbSymbolTableRecord
100
AcDbTextStyleTableRecord
  2
iso3098
 70
    0
 40
0
 41
1
 50
0
 71
    0
 42
1
  3
iso3098
  4

  0
STYLE
  5
51
330
2
100
AcDbSymbolTableRecord
100
AcDbTextStyleTableRecord
  2
iso3098_i
 70
    0
 40
0
 41
1
 50
0
 71
    0
 42
1
  3
iso3098_i
  4

  0
STYLE
  5
52
330
2
100
AcDbSymbolTableRecord
100
AcDbTextStyleTableRecord
  2
standard
 70
    0
 40
0
 41
1
 50
0
 71
    0
 42
1
  3
standard
  4

  0
ENDTAB
  0
TABLE
  2
VIEW
  5
6
330
0
100
AcDbSymbolTable
 70
    0
  0
ENDTAB
  0
TABLE
  2
UCS
  5
7
330
0
100
AcDbSymbolTable
 70
    0
  0
ENDTAB
  0
TABLE
  2
APPID
  5
9
330
0
100
AcDbSymbolTable
 70
    1
  0
APPID
  5
12
330
9
100
AcDbSymbolTableRecord
100
AcDbRegAppTableRecord
  2
ACAD
 70
    0
  0
APPID
  5
53
330
9
100
AcDbSymbolTableRecord
100
AcDbRegAppTableRecord
  2
LibreCad
 70
    0
  0
ENDTAB
  0
TABLE
  2
DIMSTYLE
  5
A
330
0
100
AcDbSymbolTable
 70
    1
100
AcDbDimStyleTable
 71
    1
  0
DIMSTYLE
105
54
330
A
100
AcDbSymbolTableRecord
100
AcDbDimStyleTableRecord
  2
Standard
 70
    0
 40
10
 41
2.5
 42
0.625
 43
0.38
 44
1.25
 45
0
 46
0
 47
0
 48
0
 49
1
140
2.5
141
0.09
142
0
143
25.4
144
1
145
0
146
1
147
0.625
148
0
 71
    0
 72
    0
 73
    0
 74
    1
 75
    0
 76
    0
 77
    0
 78
    1
 79
    0
170
    0
171
    2
172
    0
173
    0
174
    0
175
    0
176
    0
177
    0
178
    0
179
    0
271
    0
272
    4
273
    2
274
    2
275
    0
276
    0
277
    2
278
    0
279
    0
280
    0
281
    0
282
    0
283
    1
284
    0
285
    0
286
    0
288
    0
289
    3
340
standard
341

371
   -2
372
   -2
  0
ENDTAB
  0
TABLE
  2
BLOCK_RECORD
  5
1
330
0
100
AcDbSymbolTable
 70
    2
  0
BLOCK_RECORD
  5
1F
330
1
100
AcDbSymbolTableRecord
100
AcDbBlockTableRecord
  2
*Model_Space
 70
    0
280
    1
281
    0
  0
BLOCK_RECORD
  5
1E
330
1
100
AcDbSymbolTableRecord
100
AcDbBlockTableRecord
  2
*Paper_Space
 70
    0
280
    1
281
    0
  0
BLOCK_RECORD
  5
55
330
1
100
AcDbSymbolTableRecord
100
AcDbBlockTableRecord
  2
*D1
 70
    0
280
    1
281
    0
  0
BLOCK_RECORD
  5
58
330
1
100
AcDbSymbolTableRecord
100
AcDbBlockTableRecord
  2
*D8
 70
    0
280
    1
281
    0
  0
BLOCK_RECORD
  5
5B
330
1
100
AcDbSymbolTableRecord
100
AcDbBlockTableRecord
  2
*D16
 70
    0
280
    1
281
    0
  0
BLOCK_RECORD
  5
5E
330
1
100
AcDbSymbolTableRecord
100
AcDbBlockTableRecord
  2
*D15
 70
    0
280
    1
281
    0
  0
BLOCK_RECORD
  5
61
330
1
100
AcDbSymbolTableRecord
100
AcDbBlockTableRecord
  2
*D2
 70
    0
280
    1
281
    0
  0
BLOCK_RECORD
  5
64
330
1
100
AcDbSymbolTableRecord
100
AcDbBlockTableRecord
  2
*D4
 70
    0
280
    1
281
    0
  0
BLOCK_RECORD
  5
67
330
1
100
AcDbSymbolTableRecord
100
AcDbBlockTableRecord
  2
*D17
 70
    0
280
    1
281
    0
  0
BLOCK_RECORD
  5
6A
330
1
100
AcDbSymbolTableRecord
100
AcDbBlockTableRecord
  2
*D3
 70
    0
280
    1
281
    0
  0
BLOCK_RECORD
  5
6D
330
1
100
AcDbSymbolTableRecord
100
AcDbBlockTableRecord
  2
*D10
 70
    0
280
    1
281
    0
  0
BLOCK_RECORD
  5
70
330
1
100
AcDbSymbolTableRecord
100
AcDbBlockTableRecord
  2
*D14
 70
    0
280
    1
281
    0
  0
BLOCK_RECORD
  5
73
330
1
100
AcDbSymbolTableRecord
100
AcDbBlockTableRecord
  2
*D5
 70
    0
280
    1
281
    0
  0
BLOCK_RECORD
  5
76
330
1
100
AcDbSymbolTableRecord
100
AcDbBlockTableRecord
  2
*D6
 70
    0
280
    1
281
    0
  0
BLOCK_RECORD
  5
79
330
1
100
AcDbSymbolTableRecord
100
AcDbBlockTableRecord
  2
*D12
 70
    0
280
    1
281
    0
  0
BLOCK_RECORD
  5
7C
330
1
100
AcDbSymbolTableRecord
100
AcDbBlockTableRecord
  2
*D7
 70
    0
280
    1
281
    0
  0
BLOCK_RECORD
  5
7F
330
1
100
AcDbSymbolTableRecord
100
AcDbBlockTableRecord
  2
*D11
 70
    0
280
    1
281
    0
  0
BLOCK_RECORD
  5
82
330
1
100
AcDbSymbolTableRecord
100
AcDbBlockTableRecord
  2
*D9
 70
    0
280
    1
281
    0
  0
BLOCK_RECORD
  5
85
330
1
100
AcDbSymbolTableRecord
100
AcDbBlockTableRecord
  2
*D13
 70
    0
280
    1
281
    0
  0
BLOCK_RECORD
  5
88
330
1
100
AcDbSymbolTableRecord
100
AcDbBlockTableRecord
  2
*D18
 70
    0
280
    1
281
    0
  0
ENDTAB
  0
ENDSEC
  0
SECTION
  2
BLOCKS
  0
BLOCK
  5
20
330
1F
100
AcDbEntity
  8
0
100
AcDbBlockBegin
  2
*Model_Space
 70
    0
 10
0
 20
0
 30
0
  3
*Model_Space
  1

  0
ENDBLK
  5
21
330
1F
100
AcDbEntity
  8
0
100
AcDbBlockEnd
  0
BLOCK
  5
1C
330
1B
100
AcDbEntity
  8
0
100
AcDbBlockBegin
  2
*Paper_Space
 70
    0
 10
0
 20
0
 30
0
  3
*Paper_Space
  1

  0
ENDBLK
  5
1D
330
1F
100
AcDbEntity
  8
0
100
AcDbBlockEnd
  0
BLOCK
  5
56
330
55
100
AcDbEntity
  8
0
100
AcDbBlockBegin
  2
*D1
 70
    1
 10
0
 20
0
  3
*D1
  1

  0
LINE
  5
8B
100
AcDbEntity
  8
dim
  6
ByBlock
 62
    0
370
   -2
100
AcDbLine
 10
279.9999999999999
 20
600
 11
1120
 21
600
  0
SOLID
  5
8C
100
AcDbEntity
  8
dim
  6
ByBlock
 62
    0
370
   -2
100
AcDbTrace
 10
279.9999999999999
 20
600
 30
0
 11
304.9999999999999
 21
604.1628465777284
 31
0
 12
304.9999999999999
 22
595.8371534222716
 32
0
 13
304.9999999999999
 23
595.8371534222716
 33
0
  0
SOLID
  5
8D
100
AcDbEntity
  8
dim
  6
ByBlock
 62
    0
370
   -2
100
AcDbTrace
 10
1120
 20
600
 30
0
 11
1095
 21
595.8371534222716
 31
0
 12
1095
 22
604.1628465777284
 32
0
 13
1095
 23
604.1628465777284
 33
0
  0
MTEXT
  5
8E
100
AcDbEntity
  8
dim
  6
CONTINUOUS
 62
    0
370
   -2
100
AcDbMText
 10
700
 20
618.75
 30
0
 40
25
 41
52.77777777777778
 71
    5
 72
    1
  1
840
  7
standard
210
0
220
0
230
1
 50
0
 73
    2
 44
1
  0
LINE
  5
8F
100
AcDbEntity
  8
dim
  6
ByBlock
 62
    0
370
   -2
100
AcDbLine
 10
280
 20
556.25
 11
279.9999999999998
 21
612.5
  0
LINE
  5
90
100
AcDbEntity
  8
dim
  6
ByBlock
 62
    0
370
   -2
100
AcDbLine
 10
1120
 20
556.25
 11
1120
 21
612.5
  0
ENDBLK
  5
57
330
55
100
AcDbEntity
  8
0
100
AcDbBlockEnd
  0
BLOCK
  5
59
330
58
100
AcDbEntity
  8
0
100
AcDbBlockBegin
  2
*D8
 70
    1
 10
0
 20
0
  3
*D8
  1

  0
LINE
  5
91
100
AcDbEntity
  8
dim
  6
ByBlock
 62
    0
370
   -2
100
AcDbLine
 10
280
 20
1810
 11
280
 21
1380
  0
SOLID
  5
92
100
AcDbEntity
  8
dim
  6
ByBlock
 62
    0
370
   -2
100
AcDbTrace
 10
280
 20
1810
 30
0
 11
284.1628465777284
 21
1785
 31
0
 12
275.8371534222716
 22
1785
 32
0
 13
275.8371534222716
 23
1785
 33
0
  0
SOLID
  5
93
100
AcDbEntity
  8
dim
  6
ByBlock
 62
    0
370
   -2
100
AcDbTrace
 10
280
 20
1380
 30
0
 11
275.8371534222716
 21
1405
 31
0
 12
284.1628465777284
 22
1405
 32
0
 13
284.1628465777284
 23
1405
 33
0
  0
MTEXT
  5
94
100
AcDbEntity
  8
dim
  6
CONTINUOUS
 62
    0
370
   -2
100
AcDbMText
 10
261.25
 20
1595
 30
0
 40
25
 41
52.77777777777933
 71
    5
 72
    1
  1
430
  7
standard
210
0
220
0
230
1
 50
90
 73
    2
 44
1
  0
LINE
  5
95
100
AcDbEntity
  8
dim
  6
ByBlock
 62
    0
370
   -2
100
AcDbLine
 10
293.75
 20
1810
 11
267.5
 21
1810
  0
LINE
  5
96
100
AcDbEntity
  8
dim
  6
ByBlock
 62
    0
370
   -2
100
AcDbLine
 10
343.75
 20
1380
 11
267.5
 21
1380
  0
ENDBLK
  5
5A
330
58
100
AcDbEntity
  8
0
100
AcDbBlockEnd
  0
BLOCK
  5
5C
330
5B
100
AcDbEntity
  8
0
100
AcDbBlockBegin
  2
*D16
 70
    1
 10
0
 20
0
  3
*D16
  1

  0
LINE
  5
97
100
AcDbEntity
  8
dim
  6
ByBlock
 62
    0
370
   -2
100
AcDbLine
 10
1190
 20
1033.75
 11
1190
 21
967.5
  0
LINE
  5
98
100
AcDbEntity
  8
dim
  6
ByBlock
 62
    0
370
   -2
100
AcDbLine
 10
1100
 20
1033.75
 11
1100
 21
967.5
  0
LINE
  5
99
100
AcDbEntity
  8
dim
  6
ByBlock
 62
    0
370
   -2
100
AcDbLine
 10
1190
 20
980
 11
1100
 21
980
  0
SOLID
  5
9A
100
AcDbEntity
  8
dim
  6
ByBlock
 62
    0
370
   -2
100
AcDbTrace
 10
1190
 20
980
 30
0
 11
1165
 21
975.8371534222716
 31
0
 12
1165
 22
984.1628465777284
 32
0
 13
1165
 23
984.1628465777284
 33
0
  0
SOLID
  5
9B
100
AcDbEntity
  8
dim
  6
ByBlock
 62
    0
370
   -2
100
AcDbTrace
 10
1100
 20
980
 30
0
 11
1125
 21
984.1628465777284
 31
0
 12
1125
 22
975.8371534222716
 32
0
 13
1125
 23
975.8371534222716
 33
0
  0
MTEXT
  5
9C
100
AcDbEntity
  8
dim
  6
CONTINUOUS
 62
    0
370
   -2
100
AcDbMText
 10
1145
 20
998.75
 30
0
 40
25
 41
30.5555555555571
 71
    5
 72
    1
  1
90
  7
standard
210
0
220
0
230
1
 50
360
 73
    2
 44
1
  0
ENDBLK
  5
5D
330
5B
100
AcDbEntity
  8
0
100
AcDbBlockEnd
  0
BLOCK
  5
5F
330
5E
100
AcDbEntity
  8
0
100
AcDbBlockBegin
  2
*D15
 70
    1
 10
0
 20
0
  3
*D15
  1

  0
LINE
  5
9D
100
AcDbEntity
  8
dim
  6
CONTINUOUS
 62
    7
370
    0
100
AcDbLine
 10
1200
 20
1770
 11
1310
 21
1840
  0
SOLID
  5
9E
100
AcDbEntity
  8
dim
  6
CONTINUOUS
 62
    7
370
    0
100
AcDbTrace
 10
1200
 20
1770
 30
0
 11
1218.85660688796
 21
1786.933920641796
 31
0
 12
1223.326467498645
 22
1779.909853967862
 32
0
 13
1223.326467498645
 23
1779.909853967862
 33
0
  0
ENDBLK
  5
60
330
5E
100
AcDbEntity
  8
0
100
AcDbBlockEnd
  0
BLOCK
  5
62
330
61
100
AcDbEntity
  8
0
100
AcDbBlockBegin
  2
*D2
 70
    1
 10
0
 20
0
  3
*D2
  1

  0
LINE
  5
9F
100
AcDbEntity
  8
dim
  6
ByBlock
 62
    0
370
   -2
100
AcDbLine
 10
350
 20
370
 11
1030
 21
370
  0
SOLID
  5
A0
100
AcDbEntity
  8
dim
  6
ByBlock
 62
    0
370
   -2
100
AcDbTrace
 10
350
 20
370
 30
0
 11
375
 21
374.1628465777284
 31
0
 12
375
 22
365.8371534222716
 32
0
 13
375
 23
365.8371534222716
 33
0
  0
SOLID
  5
A1
100
AcDbEntity
  8
dim
  6
ByBlock
 62
    0
370
   -2
100
AcDbTrace
 10
1030
 20
370
 30
0
 11
1005
 21
365.8371534222716
 31
0
 12
1005
 22
374.1628465777284
 32
0
 13
1005
 23
374.1628465777284
 33
0
  0
MTEXT
  5
A2
100
AcDbEntity
  8
dim
  6
CONTINUOUS
 62
    0
370
   -2
100
AcDbMText
 10
690
 20
388.75
 30
0
 40
25
 41
50.00000000000155
 71
    5
 72
    1
  1
680
  7
standard
210
0
220
0
230
1
 50
0
 73
    2
 44
1
  0
LINE
  5
A3
100
AcDbEntity
  8
dim
  6
ByBlock
 62
    0
370
   -2
100
AcDbLine
 10
350
 20
346.25
 11
350
 21
382.5
  0
LINE
  5
A4
100
AcDbEntity
  8
dim
  6
ByBlock
 62
    0
370
   -2
100
AcDbLine
 10
1030
 20
346.25
 11
1030
 21
382.5
  0
ENDBLK
  5
63
330
61
100
AcDbEntity
  8
0
100
AcDbBlockEnd
  0
BLOCK
  5
65
330
64
100
AcDbEntity
  8
0
100
AcDbBlockBegin
  2
*D4
 70
    1
 10
0
 20
0
  3
*D4
  1

  0
LINE
  5
A5
100
AcDbEntity
  8
dim
  6
ByBlock
 62
    0
370
   -2
100
AcDbLine
 10
1100
 20
340
 11
1100
 21
250
  0
SOLID
  5
A6
100
AcDbEntity
  8
dim
  6
ByBlock
 62
    0
370
   -2
100
AcDbTrace
 10
1100
 20
340
 30
0
 11
1104.162846577728
 21
315
 31
0
 12
1095.837153422272
 22
315
 32
0
 13
1095.837153422272
 23
315
 33
0
  0
SOLID
  5
A7
100
AcDbEntity
  8
dim
  6
ByBlock
 62
    0
370
   -2
100
AcDbTrace
 10
1100
 20
250
 30
0
 11
1095.837153422272
 21
275
 31
0
 12
1104.162846577728
 22
275
 32
0
 13
1104.162846577728
 23
275
 33
0
  0
MTEXT
  5
A8
100
AcDbEntity
  8
dim
  6
CONTINUOUS
 62
    0
370
   -2
100
AcDbMText
 10
1081.25
 20
295
 30
0
 40
25
 41
30.5555555555571
 71
    5
 72
    1
  1
90
  7
standard
210
0
220
0
230
1
 50
90
 73
    2
 44
1
  0
LINE
  5
A9
100
AcDbEntity
  8
dim
  6
ByBlock
 62
    0
370
   -2
100
AcDbLine
 10
1036.25
 20
340
 11
1112.5
 21
340
  0
LINE
  5
AA
100
AcDbEntity
  8
dim
  6
ByBlock
 62
    0
370
   -2
100
AcDbLine
 10
1036.25
 20
250
 11
1112.5
 21
250
  0
ENDBLK
  5
66
330
64
100
AcDbEntity
  8
0
100
AcDbBlockEnd
  0
BLOCK
  5
68
330
67
100
AcDbEntity
  8
0
100
AcDbBlockBegin
  2
*D17
 70
    1
 10
0
 20
0
  3
*D17
  1

  0
LINE
  5
AB
100
AcDbEntity
  8
dim
  6
ByBlock
 62
    0
370
   -2
100
AcDbLine
 10
300
 20
1930
 11
1100
 21
1930
  0
SOLID
  5
AC
100
AcDbEntity
  8
dim
  6
ByBlock
 62
    0
370
   -2
100
AcDbTrace
 10
300
 20
1930
 30
0
 11
325
 21
1934.162846577728
 31
0
 12
325
 22
1925.837153422272
 32
0
 13
325
 23
1925.837153422272
 33
0
  0
SOLID
  5
AD
100
AcDbEntity
  8
dim
  6
ByBlock
 62
    0
370
   -2
100
AcDbTrace
 10
1100
 20
1930
 30
0
 11
1075
 21
1925.837153422272
 31
0
 12
1075
 22
1934.162846577728
 32
0
 13
1075
 23
1934.162846577728
 33
0
  0
MTEXT
  5
AE
100
AcDbEntity
  8
dim
  6
CONTINUOUS
 62
    0
370
   -2
100
AcDbMText
 10
700
 20
1948.75
 30
0
 40
25
 41
50
 71
    5
 72
    1
  1
800
  7
standard
210
0
220
0
230
1
 50
0
 73
    2
 44
1
  0
LINE
  5
AF
100
AcDbEntity
  8
dim
  6
ByBlock
 62
    0
370
   -2
100
AcDbLine
 10
300
 20
1906.25
 11
300
 21
1942.5
  0
LINE
  5
B0
100
AcDbEntity
  8
dim
  6
ByBlock
 62
    0
370
   -2
100
AcDbLine
 10
1100
 20
1906.25
 11
1100
 21
1942.5
  0
ENDBLK
  5
69
330
67
100
AcDbEntity
  8
0
100
AcDbBlockEnd
  0
BLOCK
  5
6B
330
6A
100
AcDbEntity
  8
0
100
AcDbBlockBegin
  2
*D3
 70
    1
 10
0
 20
0
  3
*D3
  1

  0
LINE
  5
B1
100
AcDbEntity
  8
dim
  6
ByBlock
 62
    0
370
   -2
100
AcDbLine
 10
1186.5
 20
550.25
 11
1186.5
 21
460.25
  0
SOLID
  5
B2
100
AcDbEntity
  8
dim
  6
ByBlock
 62
    0
370
   -2
100
AcDbTrace
 10
1186.5
 20
550.25
 30
0
 11
1190.662846577728
 21
525.25
 31
0
 12
1182.337153422272
 22
525.25
 32
0
 13
1182.337153422272
 23
525.25
 33
0
  0
SOLID
  5
B3
100
AcDbEntity
  8
dim
  6
ByBlock
 62
    0
370
   -2
100
AcDbTrace
 10
1186.5
 20
460.25
 30
0
 11
1182.337153422272
 21
485.25
 31
0
 12
1190.662846577728
 22
485.25
 32
0
 13
1190.662846577728
 23
485.25
 33
0
  0
MTEXT
  5
B4
100
AcDbEntity
  8
dim
  6
CONTINUOUS
 62
    0
370
   -2
100
AcDbMText
 10
1167.75
 20
505.25
 30
0
 40
25
 41
30.5555555555571
 71
    5
 72
    1
  1
90
  7
standard
210
0
220
0
230
1
 50
90
 73
    2
 44
1
  0
LINE
  5
B5
100
AcDbEntity
  8
dim
  6
ByBlock
 62
    0
370
   -2
100
AcDbLine
 10
1125.75
 20
550.25
 11
1199
 21
550.25
  0
LINE
  5
B6
100
AcDbEntity
  8
dim
  6
ByBlock
 62
    0
370
   -2
100
AcDbLine
 10
1125.75
 20
460.25
 11
1199
 21
460.25
  0
ENDBLK
  5
6C
330
6A
100
AcDbEntity
  8
0
100
AcDbBlockEnd
  0
BLOCK
  5
6E
330
6D
100
AcDbEntity
  8
0
100
AcDbBlockBegin
  2
*D10
 70
    1
 10
0
 20
0
  3
*D10
  1

  0
LINE
  5
B7
100
AcDbEntity
  8
dim
  6
ByBlock
 62
    0
370
   -2
100
AcDbLine
 10
1600
 20
980
 11
1940
 21
980
  0
SOLID
  5
B8
100
AcDbEntity
  8
dim
  6
ByBlock
 62
    0
370
   -2
100
AcDbTrace
 10
1600
 20
980
 30
0
 11
1625
 21
984.1628465777284
 31
0
 12
1625
 22
975.8371534222716
 32
0
 13
1625
 23
975.8371534222716
 33
0
  0
SOLID
  5
B9
100
AcDbEntity
  8
dim
  6
ByBlock
 62
    0
370
   -2
100
AcDbTrace
 10
1940
 20
980
 30
0
 11
1915
 21
975.8371534222716
 31
0
 12
1915
 22
984.1628465777284
 32
0
 13
1915
 23
984.1628465777284
 33
0
  0
MTEXT
  5
BA
100
AcDbEntity
  8
dim
  6
CONTINUOUS
 62
    0
370
   -2
100
AcDbMText
 10
1770
 20
998.75
 30
0
 40
25
 41
52.77777777777932
 71
    5
 72
    1
  1
340
  7
standard
210
0
220
0
230
1
 50
0
 73
    2
 44
1
  0
LINE
  5
BB
100
AcDbEntity
  8
dim
  6
ByBlock
 62
    0
370
   -2
100
AcDbLine
 10
1600
 20
1033.75
 11
1600
 21
967.5
  0
LINE
  5
BC
100
AcDbEntity
  8
dim
  6
ByBlock
 62
    0
370
   -2
100
AcDbLine
 10
1940
 20
1033.75
 11
1940
 21
967.5
  0
ENDBLK
  5
6F
330
6D
100
AcDbEntity
  8
0
100
AcDbBlockEnd
  0
BLOCK
  5
71
330
70
100
AcDbEntity
  8
0
100
AcDbBlockBegin
  2
*D14
 70
    1
 10
0
 20
0
  3
*D14
  1

  0
LINE
  5
BD
100
AcDbEntity
  8
dim
  6
ByBlock
 62
    0
370
   -2
100
AcDbLine
 10
2450
 20
1380
 11
2450
 21
1810
  0
SOLID
  5
BE
100
AcDbEntity
  8
dim
  6
ByBlock
 62
    0
370
   -2
100
AcDbTrace
 10
2450
 20
1380
 30
0
 11
2445.837153422272
 21
1405
 31
0
 12
2454.162846577728
 22
1405
 32
0
 13
2454.162846577728
 23
1405
 33
0
  0
SOLID
  5
BF
100
AcDbEntity
  8
dim
  6
ByBlock
 62
    0
370
   -2
100
AcDbTrace
 10
2450
 20
1810
 30
0
 11
2454.162846577728
 21
1785
 31
0
 12
2445.837153422272
 22
1785
 32
0
 13
2445.837153422272
 23
1785
 33
0
  0
MTEXT
  5
C0
100
AcDbEntity
  8
dim
  6
CONTINUOUS
 62
    0
370
   -2
100
AcDbMText
 10
2431.25
 20
1595
 30
0
 40
25
 41
52.77777777777933
 71
    5
 72
    1
  1
430
  7
standard
210
0
220
0
230
1
 50
90
 73
    2
 44
1
  0
LINE
  5
C1
100
AcDbEntity
  8
dim
  6
ByBlock
 62
    0
370
   -2
100
AcDbLine
 10
2356.25
 20
1380
 11
2462.5
 21
1380
  0
LINE
  5
C2
100
AcDbEntity
  8
dim
  6
ByBlock
 62
    0
370
   -2
100
AcDbLine
 10
2406.25
 20
1810
 11
2462.5
 21
1810
  0
ENDBLK
  5
72
330
70
100
AcDbEntity
  8
0
100
AcDbBlockEnd
  0
BLOCK
  5
74
330
73
100
AcDbEntity
  8
0
100
AcDbBlockBegin
  2
*D5
 70
    1
 10
0
 20
0
  3
*D5
  1

  0
LINE
  5
C3
100
AcDbEntity
  8
dim
  6
CONTINUOUS
 62
    7
370
    0
100
AcDbLine
 10
1590
 20
1760
 11
1470
 21
1840
  0
SOLID
  5
C4
100
AcDbEntity
  8
dim
  6
CONTINUOUS
 62
    7
370
    0
100
AcDbTrace
 10
1590
 20
1760
 30
0
 11
1566.889610828032
 21
1770.403807185349
 31
0
 12
1571.507874455075
 22
1777.331202625913
 32
0
 13
1571.507874455075
 23
1777.331202625913
 33
0
  0
ENDBLK
  5
75
330
73
100
AcDbEntity
  8
0
100
AcDbBlockEnd
  0
BLOCK
  5
77
330
76
100
AcDbEntity
  8
0
100
AcDbBlockBegin
  2
*D6
 70
    1
 10
0
 20
0
  3
*D6
  1

  0
LINE
  5
C5
100
AcDbEntity
  8
dim
  6
ByBlock
 62
    0
370
   -2
100
AcDbLine
 10
1100
 20
980
 11
760
 21
980
  0
SOLID
  5
C6
100
AcDbEntity
  8
dim
  6
ByBlock
 62
    0
370
   -2
100
AcDbTrace
 10
1100
 20
980
 30
0
 11
1075
 21
975.8371534222716
 31
0
 12
1075
 22
984.1628465777284
 32
0
 13
1075
 23
984.1628465777284
 33
0
  0
SOLID
  5
C7
100
AcDbEntity
  8
dim
  6
ByBlock
 62
    0
370
   -2
100
AcDbTrace
 10
760
 20
980
 30
0
 11
785
 21
984.1628465777284
 31
0
 12
785
 22
975.8371534222716
 32
0
 13
785
 23
975.8371534222716
 33
0
  0
MTEXT
  5
C8
100
AcDbEntity
  8
dim
  6
CONTINUOUS
 62
    0
370
   -2
100
AcDbMText
 10
930
 20
998.75
 30
0
 40
25
 41
52.77777777777932
 71
    5
 72
    1
  1
340
  7
standard
210
0
220
0
230
1
 50
360
 73
    2
 44
1
  0
LINE
  5
C9
100
AcDbEntity
  8
dim
  6
ByBlock
 62
    0
370
   -2
100
AcDbLine
 10
1100
 20
1033.75
 11
1100
 21
967.5
  0
LINE
  5
CA
100
AcDbEntity
  8
dim
  6
ByBlock
 62
    0
370
   -2
100
AcDbLine
 10
760
 20
1033.75
 11
760
 21
967.5
  0
ENDBLK
  5
78
330
76
100
AcDbEntity
  8
0
100
AcDbBlockEnd
  0
BLOCK
  5
7A
330
79
100
AcDbEntity
  8
0
100
AcDbBlockBegin
  2
*D12
 70
    1
 10
0
 20
0
  3
*D12
  1

  0
LINE
  5
CB
100
AcDbEntity
  8
dim
  6
ByBlock
 62
    0
370
   -2
100
AcDbLine
 10
1600
 20
1920
 11
2400
 21
1920
  0
SOLID
  5
CC
100
AcDbEntity
  8
dim
  6
ByBlock
 62
    0
370
   -2
100
AcDbTrace
 10
1600
 20
1920
 30
0
 11
1625
 21
1924.162846577728
 31
0
 12
1625
 22
1915.837153422272
 32
0
 13
1625
 23
1915.837153422272
 33
0
  0
SOLID
  5
CD
100
AcDbEntity
  8
dim
  6
ByBlock
 62
    0
370
   -2
100
AcDbTrace
 10
2400
 20
1920
 30
0
 11
2375
 21
1915.837153422272
 31
0
 12
2375
 22
1924.162846577728
 32
0
 13
2375
 23
1924.162846577728
 33
0
  0
MTEXT
  5
CE
100
AcDbEntity
  8
dim
  6
CONTINUOUS
 62
    0
370
   -2
100
AcDbMText
 10
2000
 20
1938.75
 30
0
 40
25
 41
50
 71
    5
 72
    1
  1
800
  7
standard
210
0
220
0
230
1
 50
0
 73
    2
 44
1
  0
LINE
  5
CF
100
AcDbEntity
  8
dim
  6
ByBlock
 62
    0
370
   -2
100
AcDbLine
 10
1600
 20
1816.25
 11
1600
 21
1932.5
  0
LINE
  5
D0
100
AcDbEntity
  8
dim
  6
ByBlock
 62
    0
370
   -2
100
AcDbLine
 10
2400
 20
1816.25
 11
2400
 21
1932.5
  0
ENDBLK
  5
7B
330
79
100
AcDbEntity
  8
0
100
AcDbBlockEnd
  0
BLOCK
  5
7D
330
7C
100
AcDbEntity
  8
0
100
AcDbBlockBegin
  2
*D7
 70
    1
 10
0
 20
0
  3
*D7
  1

  0
LINE
  5
D1
100
AcDbEntity
  8
dim
  6
ByBlock
 62
    0
370
   -2
100
AcDbLine
 10
760
 20
980
 11
350
 21
980
  0
SOLID
  5
D2
100
AcDbEntity
  8
dim
  6
ByBlock
 62
    0
370
   -2
100
AcDbTrace
 10
760
 20
980
 30
0
 11
735
 21
975.8371534222716
 31
0
 12
735
 22
984.1628465777284
 32
0
 13
735
 23
984.1628465777284
 33
0
  0
SOLID
  5
D3
100
AcDbEntity
  8
dim
  6
ByBlock
 62
    0
370
   -2
100
AcDbTrace
 10
350
 20
980
 30
0
 11
375
 21
984.1628465777284
 31
0
 12
375
 22
975.8371534222716
 32
0
 13
375
 23
975.8371534222716
 33
0
  0
MTEXT
  5
D4
100
AcDbEntity
  8
dim
  6
CONTINUOUS
 62
    0
370
   -2
100
AcDbMText
 10
555
 20
998.75
 30
0
 40
25
 41
47.22222222222222
 71
    5
 72
    1
  1
410
  7
standard
210
0
220
0
230
1
 50
360
 73
    2
 44
1
  0
LINE
  5
D5
100
AcDbEntity
  8
dim
  6
ByBlock
 62
    0
370
   -2
100
AcDbLine
 10
760
 20
1373.75
 11
760
 21
967.5
  0
LINE
  5
D6
100
AcDbEntity
  8
dim
  6
ByBlock
 62
    0
370
   -2
100
AcDbLine
 10
350
 20
1373.75
 11
350
 21
967.5
  0
ENDBLK
  5
7E
330
7C
100
AcDbEntity
  8
0
100
AcDbBlockEnd
  0
BLOCK
  5
80
330
7F
100
AcDbEntity
  8
0
100
AcDbBlockBegin
  2
*D11
 70
    1
 10
0
 20
0
  3
*D11
  1

  0
LINE
  5
D7
100
AcDbEntity
  8
dim
  6
ByBlock
 62
    0
370
   -2
100
AcDbLine
 10
1940
 20
980
 11
2350
 21
980
  0
SOLID
  5
D8
100
AcDbEntity
  8
dim
  6
ByBlock
 62
    0
370
   -2
100
AcDbTrace
 10
1940
 20
980
 30
0
 11
1965
 21
984.1628465777284
 31
0
 12
1965
 22
975.8371534222716
 32
0
 13
1965
 23
975.8371534222716
 33
0
  0
SOLID
  5
D9
100
AcDbEntity
  8
dim
  6
ByBlock
 62
    0
370
   -2
100
AcDbTrace
 10
2350
 20
980
 30
0
 11
2325
 21
975.8371534222716
 31
0
 12
2325
 22
984.1628465777284
 32
0
 13
2325
 23
984.1628465777284
 33
0
  0
MTEXT
  5
DA
100
AcDbEntity
  8
dim
  6
CONTINUOUS
 62
    0
370
   -2
100
AcDbMText
 10
2145
 20
998.75
 30
0
 40
25
 41
47.22222222222222
 71
    5
 72
    1
  1
410
  7
standard
210
0
220
0
230
1
 50
0
 73
    2
 44
1
  0
LINE
  5
DB
100
AcDbEntity
  8
dim
  6
ByBlock
 62
    0
370
   -2
100
AcDbLine
 10
1940
 20
1033.75
 11
1940
 21
967.5
  0
LINE
  5
DC
100
AcDbEntity
  8
dim
  6
ByBlock
 62
    0
370
   -2
100
AcDbLine
 10
2350
 20
1373.75
 11
2350
 21
967.5
  0
ENDBLK
  5
81
330
7F
100
AcDbEntity
  8
0
100
AcDbBlockEnd
  0
BLOCK
  5
83
330
82
100
AcDbEntity
  8
0
100
AcDbBlockBegin
  2
*D9
 70
    1
 10
0
 20
0
  3
*D9
  1

  0
LINE
  5
DD
100
AcDbEntity
  8
dim
  6
ByBlock
 62
    0
370
   -2
100
AcDbLine
 10
830
 20
1040
 11
830
 21
1380
  0
SOLID
  5
DE
100
AcDbEntity
  8
dim
  6
ByBlock
 62
    0
370
   -2
100
AcDbTrace
 10
830
 20
1040
 30
0
 11
825.8371534222716
 21
1065
 31
0
 12
834.1628465777284
 22
1065
 32
0
 13
834.1628465777284
 23
1065
 33
0
  0
SOLID
  5
DF
100
AcDbEntity
  8
dim
  6
ByBlock
 62
    0
370
   -2
100
AcDbTrace
 10
830
 20
1380
 30
0
 11
834.1628465777284
 21
1355
 31
0
 12
825.8371534222716
 22
1355
 32
0
 13
825.8371534222716
 23
1355
 33
0
  0
MTEXT
  5
E0
100
AcDbEntity
  8
dim
  6
CONTINUOUS
 62
    0
370
   -2
100
AcDbMText
 10
811.25
 20
1210
 30
0
 40
25
 41
52.77777777777932
 71
    5
 72
    1
  1
340
  7
standard
210
0
220
0
230
1
 50
90
 73
    2
 44
1
  0
LINE
  5
E1
100
AcDbEntity
  8
dim
  6
ByBlock
 62
    0
370
   -2
100
AcDbLine
 10
766.25
 20
1040
 11
842.5
 21
1040
  0
LINE
  5
E2
100
AcDbEntity
  8
dim
  6
ByBlock
 62
    0
370
   -2
100
AcDbLine
 10
766.25
 20
1380
 11
842.5
 21
1380
  0
ENDBLK
  5
84
330
82
100
AcDbEntity
  8
0
100
AcDbBlockEnd
  0
BLOCK
  5
86
330
85
100
AcDbEntity
  8
0
100
AcDbBlockBegin
  2
*D13
 70
    1
 10
0
 20
0
  3
*D13
  1

  0
LINE
  5
E3
100
AcDbEntity
  8
dim
  6
ByBlock
 62
    0
370
   -2
100
AcDbLine
 10
1900
 20
1380
 11
1900
 21
1040
  0
SOLID
  5
E4
100
AcDbEntity
  8
dim
  6
ByBlock
 62
    0
370
   -2
100
AcDbTrace
 10
1900
 20
1380
 30
0
 11
1904.162846577728
 21
1355
 31
0
 12
1895.837153422272
 22
1355
 32
0
 13
1895.837153422272
 23
1355
 33
0
  0
SOLID
  5
E5
100
AcDbEntity
  8
dim
  6
ByBlock
 62
    0
370
   -2
100
AcDbTrace
 10
1900
 20
1040
 30
0
 11
1895.837153422272
 21
1065
 31
0
 12
1904.162846577728
 22
1065
 32
0
 13
1904.162846577728
 23
1065
 33
0
  0
MTEXT
  5
E6
100
AcDbEntity
  8
dim
  6
CONTINUOUS
 62
    0
370
   -2
100
AcDbMText
 10
1881.25
 20
1210
 30
0
 40
25
 41
52.77777777777932
 71
    5
 72
    1
  1
340
  7
standard
210
0
220
0
230
1
 50
90
 73
    2
 44
1
  0
LINE
  5
E7
100
AcDbEntity
  8
dim
  6
ByBlock
 62
    0
370
   -2
100
AcDbLine
 10
1933.75
 20
1380
 11
1887.5
 21
1380
  0
LINE
  5
E8
100
AcDbEntity
  8
dim
  6
ByBlock
 62
    0
370
   -2
100
AcDbLine
 10
1933.75
 20
1040
 11
1887.5
 21
1040
  0
ENDBLK
  5
87
330
85
100
AcDbEntity
  8
0
100
AcDbBlockEnd
  0
BLOCK
  5
89
330
88
100
AcDbEntity
  8
0
100
AcDbBlockBegin
  2
*D18
 70
    1
 10
0
 20
0
  3
*D18
  1

  0
LINE
  5
E9
100
AcDbEntity
  8
dim
  6
ByBlock
 62
    0
370
   -2
100
AcDbLine
 10
350
 20
1900
 11
350
 21
1810
  0
SOLID
  5
EA
100
AcDbEntity
  8
dim
  6
ByBlock
 62
    0
370
   -2
100
AcDbTrace
 10
350
 20
1900
 30
0
 11
354.1628465777284
 21
1875
 31
0
 12
345.8371534222716
 22
1875
 32
0
 13
345.8371534222716
 23
1875
 33
0
  0
SOLID
  5
EB
100
AcDbEntity
  8
dim
  6
ByBlock
 62
    0
370
   -2
100
AcDbTrace
 10
350
 20
1810
 30
0
 11
345.8371534222716
 21
1835
 31
0
 12
354.1628465777284
 22
1835
 32
0
 13
354.1628465777284
 23
1835
 33
0
  0
MTEXT
  5
EC
100
AcDbEntity
  8
dim
  6
CONTINUOUS
 62
    0
370
   -2
100
AcDbMText
 10
331.25
 20
1855
 30
0
 40
25
 41
30.5555555555571
 71
    5
 72
    1
  1
90
  7
standard
210
0
220
0
230
1
 50
90
 73
    2
 44
1
  0
LINE
  5
ED
100
AcDbEntity
  8
dim
  6
ByBlock
 62
    0
370
   -2
100
AcDbLine
 10
363.75
 20
1900
 11
337.5
 21
1900
  0
LINE
  5
EE
100
AcDbEntity
  8
dim
  6
ByBlock
 62
    0
370
   -2
100
AcDbLine
 10
363.75
 20
1810
 11
337.5
 21
1810
  0
ENDBLK
  5
8A
330
88
100
AcDbEntity
  8
0
100
AcDbBlockEnd
  0
ENDSEC
  0
SECTION
  2
ENTITIES
  0
HATCH
  5
EF
100
AcDbEntity
  8
zipper
  6
ByLayer
 62
  256
370
   -1
100
AcDbHatch
 10
0
 20
0
 30
0
210
0
220
0
230
1
  2
misc02
 70
    0
 71
    0
 91
    1
 92
    0
 93
    4
 72
    1
 10
1580
 20
1810
 11
1600
 21
1810
 72
    1
 10
1600
 20
1810
 11
1600
 21
1040
 72
    1
 10
1600
 20
1040
 11
1580
 21
1040
 72
    1
 10
1580
 20
1040
 11
1580
 21
1810
 97
    0
 75
    0
 76
    1
 52
0
 41
1
 77
    0
 78
    0
 98
    0
  0
HATCH
  5
F0
100
AcDbEntity
  8
zipper
  6
ByLayer
 62
  256
370
   -1
100
AcDbHatch
 10
0
 20
0
 30
0
210
0
220
0
230
1
  2
misc02
 70
    0
 71
    0
 91
    1
 92
    0
 93
    4
 72
    1
 10
1190
 20
1810
 11
1210
 21
1810
 72
    1
 10
1210
 20
1810
 11
1210
 21
1040
 72
    1
 10
1210
 20
1040
 11
1190
 21
1040
 72
    1
 10
1190
 20
1040
 11
1190
 21
1810
 97
    0
 75
    0
 76
    1
 52
0
 41
1
 77
    0
 78
    0
 98
    0
  0
LWPOLYLINE
  5
F1
100
AcDbEntity
  8
template-thick
  6
ByLayer
 62
  256
370
   -1
100
AcDbPolyline
 90
    4
 70
    1
 43
0
 10
50
 20
50
 10
2920
 20
50
 10
2920
 20
2050
 10
50
 20
2050
  0
LWPOLYLINE
  5
F2
100
AcDbEntity
  8
template-thick
  6
ByLayer
 62
  256
370
   -1
100
AcDbPolyline
 90
    4
 70
    1
 43
0
 10
1520
 20
50
 10
2920
 20
50
 10
2920
 20
350
 10
1520
 20
350
  0
LINE
  5
F3
100
AcDbEntity
  8
template-thin
  6
ByLayer
 62
  256
370
   -1
100
AcDbLine
 10
1520
 20
175.0026010129251
 11
2920
 21
175.0026010129251
  0
LINE
  5
F4
100
AcDbEntity
  8
template-thin
  6
ByLayer
 62
  256
370
   -1
100
AcDbLine
 10
1759.077868802333
 20
350
 11
1759.077868802333
 21
50
  0
MTEXT
  5
F5
100
AcDbEntity
  8
template-thick
  6
ByLayer
 62
  256
370
   -1
100
AcDbMText
 10
1570
 20
280
 30
0
 40
40
 41
75.55555555555556
 71
    1
 72
    1
  1
1:10
  7
standard
210
0
220
0
230
1
 50
0
 73
    2
 44
1
  0
MTEXT
  5
F6
100
AcDbEntity
  8
template-thin
  6
ByLayer
 62
  256
370
   -1
100
AcDbMText
 10
1760
 20
150
 30
0
 40
30
 41
1010.833333333333
 71
    1
 72
    1
  1
Seam allowance: 1cm.\PZipper double folded seam (2cm).
  7
iso3098_i
210
0
220
0
230
1
 50
0
 73
    2
 44
1
  0
MTEXT
  5
F7
100
AcDbEntity
  8
template-thick
  6
ByLayer
 62
  256
370
   -1
100
AcDbMText
 10
1768.622222222222
 20
280
 30
0
 40
40
 41
661.3777777777775
 71
    1
 72
    1
  1
Chart table seat
  7
iso3098_i
210
0
220
0
230
1
 50
0
 73
    2
 44
1
  0
MTEXT
  5
F8
100
AcDbEntity
  8
template-thin
  6
ByLayer
 62
  256
370
   -1
100
AcDbMText
 10
1570
 20
150
 30
0
 40
30
 41
66.66666030660406
 71
    1
 72
    1
  1
CTS\P1/1
  7
standard
210
0
220
0
230
1
 50
0
 73
    2
 44
1
  0
MTEXT
  5
F9
100
AcDbEntity
  8
dim
  6
ByLayer
 62
  256
370
   -1
100
AcDbMText
 10
216.5
 20
450.25
 30
0
 40
50
 41
32.94444444444444
 71
    1
 72
    1
  1
A
  7
iso3098
210
0
220
0
230
1
 50
0
 73
    2
 44
1
  0
LINE
  5
FA
100
AcDbEntity
  8
seam
  6
ByLayer
 62
  256
370
   -1
100
AcDbLine
 10
270
 20
560
 11
280
 21
550
  0
LINE
  5
FB
100
AcDbEntity
  8
seam
  6
ByLayer
 62
  256
370
   -1
100
AcDbLine
 10
1120
 20
550
 11
1130
 21
560
  0
DIMENSION
  5
FC
100
AcDbEntity
  8
dim
  6
ByLayer
 62
  256
370
   -1
100
AcDbDimension
  2
*D1
 10
1120
 20
600
 30
0
 11
700
 21
618.75
 31
0
 70
   32
 71
    5
  3
Standard
 53
0
210
0
220
0
230
1
100
AcDbAlignedDimension
 13
280
 23
550
 33
0
 14
1120
 24
550
 34
0
100
AcDbRotatedDimension
  0
LINE
  5
FD
100
AcDbEntity
  8
seam
  6
ByLayer
 62
  256
370
   -1
100
AcDbLine
 10
1030
 20
340
 11
1040
 21
350
  0
LINE
  5
FE
100
AcDbEntity
  8
seam
  6
ByLayer
 62
  256
370
   -1
100
AcDbLine
 10
350
 20
340
 11
340
 21
350
  0
DIMENSION
  5
FF
100
AcDbEntity
  8
dim
  6
ByLayer
 62
  256
370
   -1
100
AcDbDimension
  2
*D2
 10
1030
 20
370
 30
0
 11
690
 21
388.75
 31
0
 70
   32
 71
    5
  3
Standard
 53
0
210
0
220
0
230
1
100
AcDbAlignedDimension
 13
350
 23
340
 33
0
 14
1030
 24
340
 34
0
100
AcDbRotatedDimension
  0
MTEXT
  5
100
100
AcDbEntity
  8
dim
  6
ByLayer
 62
  256
370
   -1
100
AcDbMText
 10
503.5
 20
198.75
 30
0
 40
40
 41
141.6888888888889
 71
    1
 72
    1
  1
Sides
  7
iso3098
210
0
220
0
230
1
 50
0
 73
    2
 44
1
  0
MTEXT
  5
101
100
AcDbEntity
  8
dim
  6
ByLayer
 62
  256
370
   -1
100
AcDbMText
 10
1140
 20
440
 30
0
 40
50
 41
26.05555555555555
 71
    1
 72
    1
  1
B
  7
iso3098
210
0
220
0
230
1
 50
0
 73
    2
 44
1
  0
LINE
  5
102
100
AcDbEntity
  8
seam
  6
ByLayer
 62
  256
370
   -1
100
AcDbLine
 10
270
 20
450
 11
280
 21
460
  0
DIMENSION
  5
103
100
AcDbEntity
  8
dim
  6
ByLayer
 62
  256
370
   -1
100
AcDbDimension
  2
*D3
 10
1186.5
 20
470.25
 30
0
 11
1167.75
 21
505.25
 31
0
 70
   32
 71
    5
  3
Standard
 53
0
210
0
220
0
230
1
100
AcDbAlignedDimension
 13
1119.5
 23
550.25
 33
0
 14
1119.5
 24
460.25
 34
0
 50
90
100
AcDbRotatedDimension
  0
LINE
  5
104
100
AcDbEntity
  8
seam
  6
ByLayer
 62
  256
370
   -1
100
AcDbLine
 10
1120
 20
460
 11
1130
 21
450
  0
LWPOLYLINE
  5
105
100
AcDbEntity
  8
main
  6
ByLayer
 62
  256
370
   -1
100
AcDbPolyline
 90
    4
 70
    1
 43
0
 10
280
 20
460
 10
1120
 20
460
 10
1120
 20
550
 10
280
 20
550
  0
LWPOLYLINE
  5
106
100
AcDbEntity
  8
seam
  6
ByLayer
 62
  256
370
   -1
100
AcDbPolyline
 90
    5
 70
    1
 43
0
 10
270
 20
450
 10
1130
 20
450
 10
1130
 20
560
 10
270
 20
560
 10
270
 20
560
  0
LINE
  5
107
100
AcDbEntity
  8
seam
  6
ByLayer
 62
  256
370
   -1
100
AcDbLine
 10
1030
 20
250
 11
1040
 21
240
  0
DIMENSION
  5
108
100
AcDbEntity
  8
dim
  6
ByLayer
 62
  256
370
   -1
100
AcDbDimension
  2
*D4
 10
1100
 20
260
 30
0
 11
1081.25
 21
295
 31
0
 70
   32
 71
    5
  3
Standard
 53
0
210
0
220
0
230
1
100
AcDbAlignedDimension
 13
1030
 23
340
 33
0
 14
1030
 24
250
 34
0
 50
90
100
AcDbRotatedDimension
  0
LWPOLYLINE
  5
109
100
AcDbEntity
  8
seam
  6
ByLayer
 62
  256
370
   -1
100
AcDbPolyline
 90
    4
 70
    1
 43
0
 10
340
 20
240
 10
1040
 20
240
 10
1040
 20
350
 10
340
 20
350
  0
LINE
  5
10A
100
AcDbEntity
  8
seam
  6
ByLayer
 62
  256
370
   -1
100
AcDbLine
 10
350
 20
250
 11
340
 21
240
  0
LWPOLYLINE
  5
10B
100
AcDbEntity
  8
main
  6
ByLayer
 62
  256
370
   -1
100
AcDbPolyline
 90
    5
 70
    1
 43
0
 10
350
 20
250
 10
1030
 20
250
 10
1030
 20
340
 10
350
 20
340
 10
350
 20
340
  0
MTEXT
  5
10C
100
AcDbEntity
  8
dim
  6
ByLayer
 62
  256
370
   -1
100
AcDbMText
 10
1030
 20
230
 30
0
 40
50
 41
22.61111111111111
 71
    1
 72
    1
  1
C
  7
iso3098
210
0
220
0
230
1
 50
0
 73
    2
 44
1
  0
MTEXT
  5
10D
100
AcDbEntity
  8
dim
  6
ByLayer
 62
  256
370
   -1
100
AcDbMText
 10
290
 20
240
 30
0
 40
50
 41
26.05555555555555
 71
    1
 72
    1
  1
B
  7
iso3098
210
0
220
0
230
1
 50
0
 73
    2
 44
1
  0
LINE
  5
10E
100
AcDbEntity
  8
main
  6
ByLayer
 62
  256
370
   -1
100
AcDbLine
 10
350
 20
1380
 11
300
 21
1810
  0
LINE
  5
10F
100
AcDbEntity
  8
main
  6
ByLayer
 62
  256
370
   -1
100
AcDbLine
 10
1100
 20
1040
 11
760
 21
1040
  0
LINE
  5
110
100
AcDbEntity
  8
main
  6
ByLayer
 62
  256
370
   -1
100
AcDbLine
 10
350
 20
1380
 11
760
 21
1380
  0
LINE
  5
111
100
AcDbEntity
  8
main
  6
ByLayer
 62
  256
370
   -1
100
AcDbLine
 10
760
 20
1040
 11
760
 21
1380
  0
LINE
  5
112
100
AcDbEntity
  8
seam
  6
ByLayer
 62
  256
370
   -1
100
AcDbLine
 10
750
 20
1370
 11
760
 21
1380
  0
LWPOLYLINE
  5
113
100
AcDbEntity
  8
seam
  6
ByLayer
 62
  256
370
   -1
100
AcDbPolyline
 90
   17
 70
    1
 43
0
 10
1600
 20
1040
 10
1580
 20
1040
 10
1580
 20
1810
 10
1600
 20
1810
 10
1600
 20
1820
 10
2400
 20
1820
 10
2400
 20
1810
 10
2410
 20
1810
 10
2360
 20
1380
 10
2350
 20
1380
 10
2350
 20
1370
 10
1950
 20
1370
 10
1950
 20
1040
 10
1940
 20
1040
 10
1940
 20
1030
 10
1600
 20
1030
 10
1600
 20
1040
  0
LWPOLYLINE
  5
114
100
AcDbEntity
  8
zipper
  6
ByLayer
 62
  256
370
   -1
100
AcDbPolyline
 90
    4
 70
    1
 43
0
 10
1580
 20
1810
 10
1600
 20
1810
 10
1600
 20
1040
 10
1580
 20
1040
  0
LINE
  5
115
100
AcDbEntity
  8
main
  6
ByLayer
 62
  256
370
   -1
100
AcDbLine
 10
1600
 20
1810
 11
2400
 21
1810
  0
LINE
  5
116
100
AcDbEntity
  8
main
  6
ByLayer
 62
  256
370
   -1
100
AcDbLine
 10
2350
 20
1380
 11
2400
 21
1810
  0
LINE
  5
117
100
AcDbEntity
  8
main
  6
ByLayer
 62
  256
370
   -1
100
AcDbLine
 10
1600
 20
1040
 11
1940
 21
1040
  0
LINE
  5
118
100
AcDbEntity
  8
main
  6
ByLayer
 62
  256
370
   -1
100
AcDbLine
 10
2350
 20
1380
 11
1940
 21
1380
  0
LINE
  5
119
100
AcDbEntity
  8
main
  6
ByLayer
 62
  256
370
   -1
100
AcDbLine
 10
1940
 20
1040
 11
1940
 21
1380
  0
LINE
  5
11A
100
AcDbEntity
  8
seam
  6
ByLayer
 62
  256
370
   -1
100
AcDbLine
 10
1950
 20
1370
 11
1940
 21
1380
  0
MTEXT
  5
11B
100
AcDbEntity
  8
dim
  6
ByLayer
 62
  256
370
   -1
100
AcDbMText
 10
1320
 20
1860
 30
0
 40
30
 41
130.2333333333333
 71
    1
 72
    1
  1
Zipper
  7
iso3098
210
0
220
0
230
1
 50
0
 73
    2
 44
1
  0
LEADER
  5
11C
100
AcDbEntity
  8
dim
  6
ByLayer
 62
  256
370
   -1
100
AcDbLeader
  3
Standard
 71
    1
 72
    0
 73
    3
 74
    0
 75
    0
 40
1
 41
10
 76
2
 76
2
 10
1590
 20
1760
 30
0
 10
1470
 20
1840
 30
0
  0
DIMENSION
  5
11D
100
AcDbEntity
  8
dim
  6
ByLayer
 62
  256
370
   -1
100
AcDbDimension
  2
*D6
 10
760
 20
980
 30
0
 11
930
 21
998.75
 31
0
 70
   32
 71
    5
  3
Standard
 53
0
210
0
220
0
230
1
100
AcDbAlignedDimension
 13
1100
 23
1040
 33
0
 14
760
 24
1040
 34
0
100
AcDbRotatedDimension
  0
DIMENSION
  5
11E
100
AcDbEntity
  8
dim
  6
ByLayer
 62
  256
370
   -1
100
AcDbDimension
  2
*D7
 10
350
 20
980
 30
0
 11
555
 21
998.75
 31
0
 70
   32
 71
    5
  3
Standard
 53
0
210
0
220
0
230
1
100
AcDbAlignedDimension
 13
760
 23
1380
 33
0
 14
350
 24
1380
 34
0
100
AcDbRotatedDimension
  0
DIMENSION
  5
11F
100
AcDbEntity
  8
dim
  6
ByLayer
 62
  256
370
   -1
100
AcDbDimension
  2
*D8
 10
280
 20
1380
 30
0
 11
261.25
 21
1595
 31
0
 70
   32
 71
    5
  3
Standard
 53
0
210
0
220
0
230
1
100
AcDbAlignedDimension
 13
300
 23
1810
 33
0
 14
350
 24
1380
 34
0
 50
90
100
AcDbRotatedDimension
  0
DIMENSION
  5
120
100
AcDbEntity
  8
dim
  6
ByLayer
 62
  256
370
   -1
100
AcDbDimension
  2
*D9
 10
830
 20
1380
 30
0
 11
811.25
 21
1210
 31
0
 70
   32
 71
    5
  3
Standard
 53
0
210
0
220
0
230
1
100
AcDbAlignedDimension
 13
760
 23
1040
 33
0
 14
760
 24
1380
 34
0
 50
90
100
AcDbRotatedDimension
  0
DIMENSION
  5
121
100
AcDbEntity
  8
dim
  6
ByLayer
 62
  256
370
   -1
100
AcDbDimension
  2
*D10
 10
1940
 20
980
 30
0
 11
1770
 21
998.75
 31
0
 70
   32
 71
    5
  3
Standard
 53
0
210
0
220
0
230
1
100
AcDbAlignedDimension
 13
1600
 23
1040
 33
0
 14
1940
 24
1040
 34
0
100
AcDbRotatedDimension
  0
DIMENSION
  5
122
100
AcDbEntity
  8
dim
  6
ByLayer
 62
  256
370
   -1
100
AcDbDimension
  2
*D11
 10
2350
 20
980
 30
0
 11
2145
 21
998.75
 31
0
 70
   32
 71
    5
  3
Standard
 53
0
210
0
220
0
230
1
100
AcDbAlignedDimension
 13
1940
 23
1040
 33
0
 14
2350
 24
1380
 34
0
100
AcDbRotatedDimension
  0
DIMENSION
  5
123
100
AcDbEntity
  8
dim
  6
ByLayer
 62
  256
370
   -1
100
AcDbDimension
  2
*D12
 10
2400
 20
1920
 30
0
 11
2000
 21
1938.75
 31
0
 70
   32
 71
    5
  3
Standard
 53
0
210
0
220
0
230
1
100
AcDbAlignedDimension
 13
1600
 23
1810
 33
0
 14
2400
 24
1810
 34
0
100
AcDbRotatedDimension
  0
DIMENSION
  5
124
100
AcDbEntity
  8
dim
  6
ByLayer
 62
  256
370
   -1
100
AcDbDimension
  2
*D13
 10
1900
 20
1040
 30
0
 11
1881.25
 21
1210
 31
0
 70
   32
 71
    5
  3
Standard
 53
0
210
0
220
0
230
1
100
AcDbAlignedDimension
 13
1940
 23
1380
 33
0
 14
1940
 24
1040
 34
0
 50
90
100
AcDbRotatedDimension
  0
DIMENSION
  5
125
100
AcDbEntity
  8
dim
  6
ByLayer
 62
  256
370
   -1
100
AcDbDimension
  2
*D14
 10
2450
 20
1810
 30
0
 11
2431.25
 21
1595
 31
0
 70
   32
 71
    5
  3
Standard
 53
0
210
0
220
0
230
1
100
AcDbAlignedDimension
 13
2350
 23
1380
 33
0
 14
2400
 24
1810
 34
0
 50
90
100
AcDbRotatedDimension
  0
LINE
  5
126
100
AcDbEntity
  8
seam
  6
ByLayer
 62
  256
370
   -1
100
AcDbLine
 10
1100
 20
1810
 11
300
 21
1810
  0
LINE
  5
127
100
AcDbEntity
  8
seam
  6
ByLayer
 62
  256
370
   -1
100
AcDbLine
 10
1100
 20
1810
 11
1100
 21
1040
  0
LINE
  5
128
100
AcDbEntity
  8
main
  6
ByLayer
 62
  256
370
   -1
100
AcDbLine
 10
1600
 20
1810
 11
1600
 21
1040
  0
MTEXT
  5
129
100
AcDbEntity
  8
dim
  6
ByLayer
 62
  256
370
   -1
100
AcDbMText
 10
760
 20
1430
 30
0
 40
50
 41
26.05555555555555
 71
    1
 72
    1
  1
B
  7
iso3098
210
0
220
0
230
1
 50
0
 73
    2
 44
1
  0
MTEXT
  5
12A
100
AcDbEntity
  8
dim
  6
ByLayer
 62
  256
370
   -1
100
AcDbMText
 10
1190
 20
1030
 30
0
 40
50
 41
22.61111111111111
 71
    1
 72
    1
  1
C
  7
iso3098
210
0
220
0
230
1
 50
0
 73
    2
 44
1
  0
MTEXT
  5
12B
100
AcDbEntity
  8
dim
  6
ByLayer
 62
  256
370
   -1
100
AcDbMText
 10
200
 20
1770
 30
0
 40
50
 41
32.94444444444444
 71
    1
 72
    1
  1
A
  7
iso3098
210
0
220
0
230
1
 50
0
 73
    2
 44
1
  0
MTEXT
  5
12C
100
AcDbEntity
  8
dim
  6
ByLayer
 62
  256
370
   -1
100
AcDbMText
 10
400
 20
920
 30
0
 40
40
 41
86.13333333333333
 71
    1
 72
    1
  1
Top
  7
iso3098
210
0
220
0
230
1
 50
0
 73
    2
 44
1
  0
MTEXT
  5
12D
100
AcDbEntity
  8
dim
  6
ByLayer
 62
  256
370
   -1
100
AcDbMText
 10
1600
 20
920
 30
0
 40
40
 41
184.7555555555556
 71
    1
 72
    1
  1
Bottom
  7
iso3098
210
0
220
0
230
1
 50
0
 73
    2
 44
1
  0
LINE
  5
12E
100
AcDbEntity
  8
main
  6
ByLayer
 62
  256
370
   -1
100
AcDbLine
 10
1190
 20
1040
 11
1190
 21
1810
  0
LINE
  5
12F
100
AcDbEntity
  8
main
  6
ByLayer
 62
  256
370
   -1
100
AcDbLine
 10
1100
 20
1810
 11
1190
 21
1810
  0
LINE
  5
130
100
AcDbEntity
  8
main
  6
ByLayer
 62
  256
370
   -1
100
AcDbLine
 10
1100
 20
1040
 11
1190
 21
1040
  0
LWPOLYLINE
  5
131
100
AcDbEntity
  8
zipper
  6
ByLayer
 62
  256
370
   -1
100
AcDbPolyline
 90
    4
 70
    1
 43
0
 10
1190
 20
1810
 10
1210
 20
1810
 10
1210
 20
1040
 10
1190
 20
1040
  0
LEADER
  5
132
100
AcDbEntity
  8
dim
  6
ByLayer
 62
  256
370
   -1
100
AcDbLeader
  3
Standard
 71
    1
 72
    0
 73
    3
 74
    0
 75
    0
 40
1
 41
10
 76
2
 76
2
 10
1200
 20
1770
 30
0
 10
1310
 20
1840
 30
0
  0
DIMENSION
  5
133
100
AcDbEntity
  8
dim
  6
ByLayer
 62
  256
370
   -1
100
AcDbDimension
  2
*D16
 10
1100
 20
980
 30
0
 11
1145
 21
998.75
 31
0
 70
   33
 71
    5
  3
Standard
 53
0
210
0
220
0
230
1
100
AcDbAlignedDimension
 13
1190
 23
1040
 33
0
 14
1100
 24
1040
 34
0
  0
LINE
  5
134
100
AcDbEntity
  8
main
  6
ByLayer
 62
  256
370
   -1
100
AcDbLine
 10
300
 20
1900
 11
300
 21
1810
  0
LINE
  5
135
100
AcDbEntity
  8
main
  6
ByLayer
 62
  256
370
   -1
100
AcDbLine
 10
1100
 20
1900
 11
1100
 21
1810
  0
LINE
  5
136
100
AcDbEntity
  8
main
  6
ByLayer
 62
  256
370
   -1
100
AcDbLine
 10
1100
 20
1900
 11
300
 21
1900
  0
DIMENSION
  5
137
100
AcDbEntity
  8
dim
  6
ByLayer
 62
  256
370
   -1
100
AcDbDimension
  2
*D17
 10
1100
 20
1930
 30
0
 11
700
 21
1948.75
 31
0
 70
   32
 71
    5
  3
Standard
 53
0
210
0
220
0
230
1
100
AcDbAlignedDimension
 13
300
 23
1900
 33
0
 14
1100
 24
1900
 34
0
100
AcDbRotatedDimension
  0
DIMENSION
  5
138
100
AcDbEntity
  8
dim
  6
ByLayer
 62
  256
370
   -1
100
AcDbDimension
  2
*D18
 10
350
 20
1810
 30
0
 11
331.25
 21
1855
 31
0
 70
   32
 71
    5
  3
Standard
 53
0
210
0
220
0
230
1
100
AcDbAlignedDimension
 13
370
 23
1900
 33
0
 14
370
 24
1810
 34
0
 50
90
100
AcDbRotatedDimension
  0
LWPOLYLINE
  5
139
100
AcDbEntity
  8
seam
  6
DASHEDTINY
 62
    7
370
   13
100
AcDbPolyline
 90
   42
 70
    1
 43
0
 10
1100
 20
1040
 10
1100
 20
1030
 10
1190
 20
1030
 10
1190
 20
1040
 10
1210
 20
1040
 10
1210
 20
1810
 10
1190
 20
1810
 10
1190
 20
1820
 10
1110
 20
1820
 10
1100
 20
1810
 10
1110
 20
1820
 10
1110
 20
1900
 10
1100
 20
1900
 10
1100
 20
1910
 10
300
 20
1910
 10
300
 20
1900
 10
300
 20
1900
 10
300
 20
1900
 10
300
 20
1900
 10
300
 20
1900
 10
300
 20
1900
 10
300
 20
1900
 10
300
 20
1900
 10
300
 20
1900
 10
300
 20
1900
 10
300
 20
1900
 10
300
 20
1900
 10
300
 20
1900
 10
290
 20
1900
 10
290
 20
1810
 10
300
 20
1810
 10
290
 20
1810
 10
340
 20
1380
 10
350
 20
1380
 10
350
 20
1370
 10
750
 20
1370
 10
750
 20
1040
 10
760
 20
1040
 10
760
 20
1030
 10
1100
 20
1030
 10
1100
 20
1040
 10
1100
 20
1040
  0
ENDSEC
  0
SECTION
  2
OBJECTS
  0
DICTIONARY
  5
C
330
0
100
AcDbDictionary
281
    1
  3
ACAD_GROUP
350
D
  0
DICTIONARY
  5
D
330
C
100
AcDbDictionary
281
    1
  0
ENDSEC
  0
EOF
