999
dxfrw 0.6.3
  0
SECTION
  2
HEADER
  9
$ACADVER
  1
AC1021
  9
$DWGCODEPAGE
  3
ANSI_1252
  9
$INSBASE
 10
0
 20
0
 30
0
  9
$EXTMIN
 10
50
 20
50
 30
0
  9
$EXTMAX
 10
2920
 20
2050
 30
0
  9
$LIMMIN
 10
0
 20
0
  9
$LIMMAX
 10
420
 20
297
  9
$ORTHOMODE
 70
    0
  9
$REGENMODE
 70
    1
  9
$FILLMODE
 70
    1
  9
$QTEXTMODE
 70
    0
  9
$MIRRTEXT
 70
    0
  9
$LTSCALE
 40
1
  9
$ATTMODE
 70
    0
  9
$TEXTSIZE
 40
2.5
  9
$TRACEWID
 40
15.68
  9
$TEXTSTYLE
  7
STANDARD
  9
$CLAYER
  8
zipper
  9
$CELTYPE
  6
BYLAYER
  9
$CECOLOR
 62
  256
  9
$CELTSCALE
 40
1
  9
$DISPSILH
 70
    0
  9
$DIMSCALE
 40
10
  9
$DIMASZ
 40
2.5
  9
$DIMEXO
 40
0.625
  9
$DIMDLI
 40
3.75
  9
$DIMRND
 40
0
  9
$DIMDLE
 40
0
  9
$DIMEXE
 40
1.25
  9
$DIMTP
 40
0
  9
$DIMTM
 40
0
  9
$DIMTXT
 40
2.5
  9
$DIMCEN
 40
2.5
  9
$DIMTSZ
 40
0
  9
$DIMTOL
 70
    0
  9
$DIMLIM
 70
    0
  9
$DIMTIH
 70
    0
  9
$DIMTOH
 70
    0
  9
$DIMSE1
 70
    0
  9
$DIMSE2
 70
    0
  9
$DIMTAD
 70
    1
  9
$DIMZIN
 70
    1
  9
$DIMBLK
  1

  9
$DIMASO
 70
    1
  9
$DIMSHO
 70
    1
  9
$DIMPOST
  1

  9
$DIMAPOST
  1

  9
$DIMALT
 70
    0
  9
$DIMALTD
 70
    3
  9
$DIMALTF
 40
0.03937
  9
$DIMLFAC
 40
1
  9
$DIMTOFL
 70
    1
  9
$DIMTVP
 40
0
  9
$DIMTIX
 70
    0
  9
$DIMSOXD
 70
    0
  9
$DIMSAH
 70
    0
  9
$DIMBLK1
  1

  9
$DIMBLK2
  1

  9
$DIMSTYLE
  2
STANDARD
  9
$DIMCLRD
 70
    0
  9
$DIMCLRE
 70
    0
  9
$DIMCLRT
 70
    0
  9
$DIMTFAC
 40
1
  9
$DIMGAP
 40
0.625
  9
$DIMJUST
 70
    0
  9
$DIMSD1
 70
    0
  9
$DIMSD2
 70
    0
  9
$DIMTOLJ
 70
    0
  9
$DIMTZIN
 70
    8
  9
$DIMALTZ
 70
    0
  9
$DIMALTTZ
 70
    0
  9
$DIMUPT
 70
    0
  9
$DIMDEC
 70
    0
  9
$DIMTDEC
 70
    2
  9
$DIMALTU
 70
    2
  9
$DIMALTTD
 70
    3
  9
$DIMTXSTY
  7
standard
  9
$DIMAUNIT
 70
    0
  9
$DIMADEC
 70
    0
  9
$DIMALTRND
 40
0
  9
$DIMAZIN
 70
    0
  9
$DIMDSEP
 70
    0
  9
$DIMATFIT
 70
    3
  9
$DIMFRAC
 70
    0
  9
$DIMLDRBLK
  1
STANDARD
  9
$DIMLUNIT
 70
    2
  9
$DIMLWD
 70
   -2
  9
$DIMLWE
 70
   -2
  9
$DIMTMOVE
 70
    0
  9
$DIMFXL
 40
1
  9
$DIMFXLON
 70
    0
  9
$DIMJOGANG
 40
0.7854
  9
$DIMTFILL
 70
    0
  9
$DIMTFILLCLR
 70
    0
  9
$DIMARCSYM
 70
    0
  9
$DIMLTYPE
  6

  9
$DIMLTEX1
  6

  9
$DIMLTEX2
  6

  9
$LUNITS
 70
    2
  9
$LUPREC
 70
    4
  9
$SKETCHINC
 40
1
  9
$FILLETRAD
 40
0
  9
$AUNITS
 70
    0
  9
$AUPREC
 70
    2
  9
$MENU
  1
.
  9
$ELEVATION
 40
0
  9
$PELEVATION
 40
0
  9
$THICKNESS
 40
0
  9
$LIMCHECK
 70
    0
  9
$CHAMFERA
 40
0
  9
$CHAMFERB
 40
0
  9
$CHAMFERC
 40
0
  9
$CHAMFERD
 40
0
  9
$SKPOLY
 70
    0
  9
$USRTIMER
 70
    1
  9
$ANGBASE
 50
0
  9
$ANGDIR
 70
    0
  9
$PDMODE
 70
   34
  9
$PDSIZE
 40
0
  9
$PLINEWID
 40
0
  9
$SPLFRAME
 70
    0
  9
$SPLINETYPE
 70
    2
  9
$SPLINESEGS
 70
    8
  9
$HANDSEED
  5
20000
  9
$SURFTAB1
 70
    6
  9
$SURFTAB2
 70
    6
  9
$SURFTYPE
 70
    6
  9
$SURFU
 70
    6
  9
$SURFV
 70
    6
  9
$UCSBASE
  2

  9
$UCSNAME
  2

  9
$UCSORG
 10
0
 20
0
 30
0
  9
$UCSXDIR
 10
1
 20
0
 30
0
  9
$UCSYDIR
 10
0
 20
1
 30
0
  9
$UCSORTHOREF
  2

  9
$UCSORTHOVIEW
 70
    0
  9
$UCSORGTOP
 10
0
 20
0
 30
0
  9
$UCSORGBOTTOM
 10
0
 20
0
 30
0
  9
$UCSORGLEFT
 10
0
 20
0
 30
0
  9
$UCSORGRIGHT
 10
0
 20
0
 30
0
  9
$UCSORGFRONT
 10
0
 20
0
 30
0
  9
$UCSORGBACK
 10
0
 20
0
 30
0
  9
$PUCSBASE
  2

  9
$PUCSNAME
  2

  9
$PUCSORG
 10
0
 20
0
 30
0
  9
$PUCSXDIR
 10
1
 20
0
 30
0
  9
$PUCSYDIR
 10
0
 20
1
 30
0
  9
$PUCSORTHOREF
  2

  9
$PUCSORTHOVIEW
 70
    0
  9
$PUCSORGTOP
 10
0
 20
0
 30
0
  9
$PUCSORGBOTTOM
 10
0
 20
0
 30
0
  9
$PUCSORGLEFT
 10
0
 20
0
 30
0
  9
$PUCSORGRIGHT
 10
0
 20
0
 30
0
  9
$PUCSORGFRONT
 10
0
 20
0
 30
0
  9
$PUCSORGBACK
 10
0
 20
0
 30
0
  9
$USERI1
 70
    0
  9
$USERI2
 70
    0
  9
$USERI3
 70
    0
  9
$USERI4
 70
    0
  9
$USERI5
 70
    0
  9
$USERR1
 40
0
  9
$USERR2
 40
0
  9
$USERR3
 40
0
  9
$USERR4
 40
0
  9
$USERR5
 40
0
  9
$WORLDVIEW
 70
    1
  9
$SHADEDGE
 70
    3
  9
$SHADEDIF
 70
   70
  9
$TILEMODE
 70
    1
  9
$MAXACTVP
 70
   64
  9
$PINSBASE
 10
11.13749999999999
 20
7.875
 30
0
  9
$PLIMCHECK
 70
    0
  9
$PEXTMIN
 10
0
 20
0
 30
0
  9
$PEXTMAX
 10
0
 20
0
 30
0
  9
$GRIDMODE
 70
    1
  9
$SNAPSTYLE
 70
    0
  9
$GRIDUNIT
 10
0
 20
0
  9
$PLIMMIN
 10
0
 20
0
  9
$PLIMMAX
 10
297
 20
210
  9
$UNITMODE
 70
    0
  9
$VISRETAIN
 70
    1
  9
$PLINEGEN
 70
    0
  9
$PSLTSCALE
 70
    1
  9
$TREEDEPTH
 70
 3020
  9
$CMLSTYLE
  2
Standard
  9
$CMLJUST
 70
    0
  9
$CMLSCALE
 40
20
  9
$PROXYGRAPHICS
 70
    1
  9
$MEASUREMENT
 70
    1
  9
$CELWEIGHT
370
   -1
  9
$ENDCAPS
280
    0
  9
$JOINSTYLE
280
    0
  9
$LWDISPLAY
290
    0
  9
$INSUNITS
 70
    4
  9
$HYPERLINKBASE
  1

  9
$STYLESHEET
  1

  9
$XEDIT
290
    1
  9
$CEPSNTYPE
380
    0
  9
$PSTYLEMODE
290
    1
  9
$EXTNAMES
290
    1
  9
$PSVPSCALE
 40
0.0925000925000925
  9
$OLESTARTUP
290
    0
  9
$SORTENTS
280
  127
  9
$INDEXCTL
280
    0
  9
$HIDETEXT
280
    1
  9
$XCLIPFRAME
290
    0
  9
$HALOGAP
280
    0
  9
$OBSCOLOR
 70
  257
  9
$OBSLTYPE
280
    0
  9
$INTERSECTIONDISPLAY
280
    0
  9
$INTERSECTIONCOLOR
 70
  257
  9
$DIMASSOC
280
    1
  9
$PROJECTNAME
  1

  9
$CAMERADISPLAY
290
    0
  9
$LENSLENGTH
 40
50
  9
$CAMERAHEIGHT
 40
0
  9
$STEPSPERSEC
 40
2
  9
$STEPSIZE
 40
50
  9
$3DDWFPREC
 40
2
  9
$PSOLWIDTH
 40
5
  9
$PSOLHEIGHT
 40
80
  9
$LOFTANG1
 40
1.570796326794897
  9
$LOFTANG2
 40
1.570796326794897
  9
$LOFTMAG1
 40
0
  9
$LOFTMAG2
 40
0
  9
$LOFTPARAM
 70
    7
  9
$LOFTNORMALS
280
    1
  9
$LATITUDE
 40
1
  9
$LONGITUDE
 40
1
  9
$NORTHDIRECTION
 40
0
  9
$TIMEZONE
 70
-8000
  9
$LIGHTGLYPHDISPLAY
280
    1
  9
$TILEMODELIGHTSYNCH
280
    1
  9
$SOLIDHIST
280
    1
  9
$SHOWHIST
280
    1
  9
$DWFFRAME
280
    2
  9
$DGNFRAME
280
    0
  9
$REALWORLDSCALE
290
    1
  9
$INTERFERECOLOR
 62
    1
  9
$CSHADOW
280
    0
  9
$SHADOWPLANELOCATION
 40
0
  0
ENDSEC
  0
SECTION
  2
CLASSES
  0
ENDSEC
  0
SECTION
  2
TABLES
  0
TABLE
  2
VPORT
  5
8
330
0
100
AcDbSymbolTable
 70
    1
  0
VPORT
  5
31
330
2
100
AcDbSymbolTableRecord
100
AcDbViewportTableRecord
  2
*ACTIVE
 70
    0
 10
0
 20
0
 11
1
 21
1
 12
-252.2623229116286
 22
-137.1676380831981
 13
0
 23
0
 14
10
 24
10
 15
10
 25
10
 16
0
 26
0
 36
1
 17
0
 27
0
 37
0
 40
170.2770679653493
 41
1.814814814814815
 42
50
 43
0
 44
0
 50
0
 51
0
 71
    0
 72
  100
 73
    1
 74
    3
 75
    0
 76
    1
 77
    0
 78
    0
281
    0
 65
    1
110
0
120
0
130
0
111
1
121
0
131
0
112
0
122
1
132
0
 79
    0
146
0
348
10020
 60
    7
 61
    5
292
1
282
    1
141
0
142
0
 63
  250
421
3358443
  0
ENDTAB
  0
TABLE
  2
LTYPE
  5
5
330
0
100
AcDbSymbolTable
 70
    4
  0
LTYPE
  5
14
330
5
100
AcDbSymbolTableRecord
100
AcDbLinetypeTableRecord
  2
ByBlock
 70
    0
  3

 72
   65
 73
    0
 40
0
  0
LTYPE
  5
15
330
5
100
AcDbSymbolTableRecord
100
AcDbLinetypeTableRecord
  2
ByLayer
 70
    0
  3

 72
   65
 73
    0
 40
0
  0
LTYPE
  5
16
330
5
100
AcDbSymbolTableRecord
100
AcDbLinetypeTableRecord
  2
Continuous
 70
    0
  3
Solid line
 72
   65
 73
    0
 40
0
  0
LTYPE
  5
32
330
5
100
AcDbSymbolTableRecord
100
AcDbLinetypeTableRecord
  2
DOT
 70
    0
  3
Dot . . . . . . . . . . . . . . . . . . . . . .
 72
   65
 73
    2
 40
6.35
 49
0
 74
    0
 49
-6.35
 74
    0
  0
LTYPE
  5
33
330
5
100
AcDbSymbolTableRecord
100
AcDbLinetypeTableRecord
  2
DOTTINY
 70
    0
  3
Dot (.15x) .....................................
 72
   65
 73
    2
 40
0.9525
 49
0
 74
    0
 49
-0.9525
 74
    0
  0
LTYPE
  5
34
330
5
100
AcDbSymbolTableRecord
100
AcDbLinetypeTableRecord
  2
DOT2
 70
    0
  3
Dot (.5x) .....................................
 72
   65
 73
    2
 40
3.175
 49
0
 74
    0
 49
-3.175
 74
    0
  0
LTYPE
  5
35
330
5
100
AcDbSymbolTableRecord
100
AcDbLinetypeTableRecord
  2
DOTX2
 70
    0
  3
Dot (2x) .  .  .  .  .  .  .  .  .  .  .  .  .
 72
   65
 73
    2
 40
12.7
 49
0
 74
    0
 49
-12.7
 74
    0
  0
LTYPE
  5
36
330
5
100
AcDbSymbolTableRecord
100
AcDbLinetypeTableRecord
  2
DASHED
 70
    0
  3
Dashed _ _ _ _ _ _ _ _ _ _ _ _ _ _ _ _ _
 72
   65
 73
    2
 40
19.05
 49
12.7
 74
    0
 49
-6.35
 74
    0
  0
LTYPE
  5
37
330
5
100
AcDbSymbolTableRecord
100
AcDbLinetypeTableRecord
  2
DASHEDTINY
 70
    0
  3
Dashed (.15x) _ _ _ _ _ _ _ _ _ _ _ _ _ _ _ _ _
 72
   65
 73
    2
 40
2.8575
 49
1.905
 74
    0
 49
-0.9525
 74
    0
  0
LTYPE
  5
38
330
5
100
AcDbSymbolTableRecord
100
AcDbLinetypeTableRecord
  2
DASHED2
 70
    0
  3
Dashed (.5x) _ _ _ _ _ _ _ _ _ _ _ _ _ _ _ _ _
 72
   65
 73
    2
 40
9.524999999999999
 49
6.35
 74
    0
 49
-3.175
 74
    0
  0
LTYPE
  5
39
330
5
100
AcDbSymbolTableRecord
100
AcDbLinetypeTableRecord
  2
DASHEDX2
 70
    0
  3
Dashed (2x) ____  ____  ____  ____  ____  ___
 72
   65
 73
    2
 40
38.09999999999999
 49
25.4
 74
    0
 49
-12.7
 74
    0
  0
LTYPE
  5
3A
330
5
100
AcDbSymbolTableRecord
100
AcDbLinetypeTableRecord
  2
DASHDOT
 70
    0
  3
Dash dot __ . __ . __ . __ . __ . __ . __ . __
 72
   65
 73
    4
 40
25.4
 49
12.7
 74
    0
 49
-6.35
 74
    0
 49
0
 74
    0
 49
-6.35
 74
    0
  0
LTYPE
  5
3B
330
5
100
AcDbSymbolTableRecord
100
AcDbLinetypeTableRecord
  2
DASHDOTTINY
 70
    0
  3
Dash dot (.15x) _._._._._._._._._._._._._._._.
 72
   65
 73
    4
 40
3.81
 49
1.905
 74
    0
 49
-0.9525
 74
    0
 49
0
 74
    0
 49
-0.9525
 74
    0
  0
LTYPE
  5
3C
330
5
100
AcDbSymbolTableRecord
100
AcDbLinetypeTableRecord
  2
DASHDOT2
 70
    0
  3
Dash dot (.5x) _._._._._._._._._._._._._._._.
 72
   65
 73
    4
 40
12.7
 49
6.35
 74
    0
 49
-3.175
 74
    0
 49
0
 74
    0
 49
-3.175
 74
    0
  0
LTYPE
  5
3D
330
5
100
AcDbSymbolTableRecord
100
AcDbLinetypeTableRecord
  2
DASHDOTX2
 70
    0
  3
Dash dot (2x) ____  .  ____  .  ____  .  ___
 72
   65
 73
    4
 40
50.8
 49
25.4
 74
    0
 49
-12.7
 74
    0
 49
0
 74
    0
 49
-12.7
 74
    0
  0
LTYPE
  5
3E
330
5
100
AcDbSymbolTableRecord
100
AcDbLinetypeTableRecord
  2
DIVIDE
 70
    0
  3
Divide ____ . . ____ . . ____ . . ____ . . ____
 72
   65
 73
    6
 40
31.75
 49
12.7
 74
    0
 49
-6.35
 74
    0
 49
0
 74
    0
 49
-6.35
 74
    0
 49
0
 74
    0
 49
-6.35
 74
    0
  0
LTYPE
  5
3F
330
5
100
AcDbSymbolTableRecord
100
AcDbLinetypeTableRecord
  2
DIVIDETINY
 70
    0
  3
Divide (.15x) __..__..__..__..__..__..__..__.._
 72
   65
 73
    6
 40
4.7625
 49
1.905
 74
    0
 49
-0.9525
 74
    0
 49
0
 74
    0
 49
-0.9525
 74
    0
 49
0
 74
    0
 49
-0.9525
 74
    0
  0
LTYPE
  5
40
330
5
100
AcDbSymbolTableRecord
100
AcDbLinetypeTableRecord
  2
DIVIDE2
 70
    0
  3
Divide (.5x) __..__..__..__..__..__..__..__.._
 72
   65
 73
    6
 40
15.875
 49
6.35
 74
    0
 49
-3.175
 74
    0
 49
0
 74
    0
 49
-3.175
 74
    0
 49
0
 74
    0
 49
-3.175
 74
    0
  0
LTYPE
  5
41
330
5
100
AcDbSymbolTableRecord
100
AcDbLinetypeTableRecord
  2
DIVIDEX2
 70
    0
  3
Divide (2x) ________  .  .  ________  .  .  _
 72
   65
 73
    6
 40
63.5
 49
25.4
 74
    0
 49
-12.7
 74
    0
 49
0
 74
    0
 49
-12.7
 74
    0
 49
0
 74
    0
 49
-12.7
 74
    0
  0
LTYPE
  5
42
330
5
100
AcDbSymbolTableRecord
100
AcDbLinetypeTableRecord
  2
BORDER
 70
    0
  3
Border __ __ . __ __ . __ __ . __ __ . __ __ .
 72
   65
 73
    6
 40
44.45
 49
12.7
 74
    0
 49
-6.35
 74
    0
 49
12.7
 74
    0
 49
-6.35
 74
    0
 49
0
 74
    0
 49
-6.35
 74
    0
  0
LTYPE
  5
43
330
5
100
AcDbSymbolTableRecord
100
AcDbLinetypeTableRecord
  2
BORDERTINY
 70
    0
  3
Border (.15x) __.__.__.__.__.__.__.__.__.__.__.
 72
   65
 73
    6
 40
6.6675
 49
1.905
 74
    0
 49
-0.9525
 74
    0
 49
1.905
 74
    0
 49
-0.9525
 74
    0
 49
0
 74
    0
 49
-0.9525
 74
    0
  0
LTYPE
  5
44
330
5
100
AcDbSymbolTableRecord
100
AcDbLinetypeTableRecord
  2
BORDER2
 70
    0
  3
Border (.5x) __.__.__.__.__.__.__.__.__.__.__.
 72
   65
 73
    6
 40
22.225
 49
6.35
 74
    0
 49
-3.175
 74
    0
 49
6.35
 74
    0
 49
-3.175
 74
    0
 49
0
 74
    0
 49
-3.175
 74
    0
  0
LTYPE
  5
45
330
5
100
AcDbSymbolTableRecord
100
AcDbLinetypeTableRecord
  2
BORDERX2
 70
    0
  3
Border (2x) ____  ____  .  ____  ____  .  ___
 72
   65
 73
    6
 40
88.89999999999999
 49
25.4
 74
    0
 49
-12.7
 74
    0
 49
25.4
 74
    0
 49
-12.7
 74
    0
 49
0
 74
    0
 49
-12.7
 74
    0
  0
LTYPE
  5
46
330
5
100
AcDbSymbolTableRecord
100
AcDbLinetypeTableRecord
  2
CENTER
 70
    0
  3
Center ____ _ ____ _ ____ _ ____ _ ____ _ ____
 72
   65
 73
    4
 40
50.8
 49
31.75
 74
    0
 49
-6.35
 74
    0
 49
6.35
 74
    0
 49
-6.35
 74
    0
  0
LTYPE
  5
47
330
5
100
AcDbSymbolTableRecord
100
AcDbLinetypeTableRecord
  2
CENTERTINY
 70
    0
  3
Center (.15x) ___ _ ___ _ ___ _ ___ _ ___ _ ___
 72
   65
 73
    4
 40
7.619999999999999
 49
4.7625
 74
    0
 49
-0.9525
 74
    0
 49
0.9525
 74
    0
 49
-0.9525
 74
    0
  0
LTYPE
  5
48
330
5
100
AcDbSymbolTableRecord
100
AcDbLinetypeTableRecord
  2
CENTER2
 70
    0
  3
Center (.5x) ___ _ ___ _ ___ _ ___ _ ___ _ ___
 72
   65
 73
    4
 40
28.575
 49
19.05
 74
    0
 49
-3.175
 74
    0
 49
3.175
 74
    0
 49
-3.175
 74
    0
  0
LTYPE
  5
49
330
5
100
AcDbSymbolTableRecord
100
AcDbLinetypeTableRecord
  2
CENTERX2
 70
    0
  3
Center (2x) ________  __  ________  __  _____
 72
   65
 73
    4
 40
101.6
 49
63.5
 74
    0
 49
-12.7
 74
    0
 49
12.7
 74
    0
 49
-12.7
 74
    0
  0
ENDTAB
  0
TABLE
  2
LAYER
  5
2
330
0
100
AcDbSymbolTable
 70
    1
  0
LAYER
  5
10
330
2
100
AcDbSymbolTableRecord
100
AcDbLayerTableRecord
  2
0
 70
    0
 62
    7
  6
CONTINUOUS
370
    0
390
F
  0
LAYER
  5
4A
330
2
100
AcDbSymbolTableRecord
100
AcDbLayerTableRecord
  2
dim
 70
    0
 62
    7
  6
CONTINUOUS
370
   25
390
F
  0
LAYER
  5
4B
330
2
100
AcDbSymbolTableRecord
100
AcDbLayerTableRecord
  2
main
 70
    0
 62
    7
  6
CONTINUOUS
370
   50
390
F
  0
LAYER
  5
4C
330
2
100
AcDbSymbolTableRecord
100
AcDbLayerTableRecord
  2
seam
 70
    0
 62
    7
  6
DASHEDTINY
370
   13
390
F
  0
LAYER
  5
4D
330
2
100
AcDbSymbolTableRecord
100
AcDbLayerTableRecord
  2
symmetry
 70
    0
 62
    7
  6
CENTERTINY
370
   25
390
F
  0
LAYER
  5
4E
330
2
100
AcDbSymbolTableRecord
100
AcDbLayerTableRecord
  2
template-thick
 70
    4
 62
    7
  6
CONTINUOUS
370
   50
390
F
  0
LAYER
  5
4F
330
2
100
AcDbSymbolTableRecord
100
AcDbLayerTableRecord
  2
template-thin
 70
    4
 62
    7
  6
CONTINUOUS
370
   25
390
F
  0
LAYER
  5
50
330
2
100
AcDbSymbolTableRecord
100
AcDbLayerTableRecord
  2
zipper
 70
    0
 62
    7
  6
DASHEDTINY
370
   13
390
F
  0
ENDTAB
  0
TABLE
  2
STYLE
  5
3
330
0
100
AcDbSymbolTable
 70
    3
  0
STYLE
  5
51
330
2
100
AcDbSymbolTableRecord
100
AcDbTextStyleTableRecord
  2
iso3098
 70
    0
 40
0
 41
1
 50
0
 71
    0
 42
1
  3
iso3098
  4

  0
STYLE
  5
52
330
2
100
AcDbSymbolTableRecord
100
AcDbTextStyleTableRecord
  2
iso3098_i
 70
    0
 40
0
 41
1
 50
0
 71
    0
 42
1
  3
iso3098_i
  4

  0
STYLE
  5
53
330
2
100
AcDbSymbolTableRecord
100
AcDbTextStyleTableRecord
  2
standard
 70
    0
 40
0
 41
1
 50
0
 71
    0
 42
1
  3
standard
  4

  0
ENDTAB
  0
TABLE
  2
VIEW
  5
6
330
0
100
AcDbSymbolTable
 70
    0
  0
ENDTAB
  0
TABLE
  2
UCS
  5
7
330
0
100
AcDbSymbolTable
 70
    0
  0
ENDTAB
  0
TABLE
  2
APPID
  5
9
330
0
100
AcDbSymbolTable
 70
    1
  0
APPID
  5
12
330
9
100
AcDbSymbolTableRecord
100
AcDbRegAppTableRecord
  2
ACAD
 70
    0
  0
APPID
  5
54
330
9
100
AcDbSymbolTableRecord
100
AcDbRegAppTableRecord
  2
LibreCad
 70
    0
  0
ENDTAB
  0
TABLE
  2
DIMSTYLE
  5
A
330
0
100
AcDbSymbolTable
 70
    1
100
AcDbDimStyleTable
 71
    1
  0
DIMSTYLE
105
55
330
A
100
AcDbSymbolTableRecord
100
AcDbDimStyleTableRecord
  2
Standard
 70
    0
 40
10
 41
2.5
 42
0.625
 43
0.38
 44
1.25
 45
0
 46
0
 47
0
 48
0
 49
1
140
2.5
141
0.09
142
0
143
25.4
144
1
145
0
146
1
147
0.625
148
0
 71
    0
 72
    0
 73
    0
 74
    1
 75
    0
 76
    0
 77
    0
 78
    1
 79
    0
170
    0
171
    2
172
    0
173
    0
174
    0
175
    0
176
    0
177
    0
178
    0
179
    0
271
    0
272
    4
273
    2
274
    2
275
    0
276
    0
277
    2
278
    0
279
    0
280
    0
281
    0
282
    0
283
    1
284
    0
285
    0
286
    0
288
    0
289
    3
340
standard
341

371
   -2
372
   -2
  0
ENDTAB
  0
TABLE
  2
BLOCK_RECORD
  5
1
330
0
100
AcDbSymbolTable
 70
    2
  0
BLOCK_RECORD
  5
1F
330
1
100
AcDbSymbolTableRecord
100
AcDbBlockTableRecord
  2
*Model_Space
 70
    0
280
    1
281
    0
  0
BLOCK_RECORD
  5
1E
330
1
100
AcDbSymbolTableRecord
100
AcDbBlockTableRecord
  2
*Paper_Space
 70
    0
280
    1
281
    0
  0
BLOCK_RECORD
  5
56
330
1
100
AcDbSymbolTableRecord
100
AcDbBlockTableRecord
  2
*D14
 70
    0
280
    1
281
    0
  0
BLOCK_RECORD
  5
59
330
1
100
AcDbSymbolTableRecord
100
AcDbBlockTableRecord
  2
*D2
 70
    0
280
    1
281
    0
  0
BLOCK_RECORD
  5
5C
330
1
100
AcDbSymbolTableRecord
100
AcDbBlockTableRecord
  2
*D12
 70
    0
280
    1
281
    0
  0
BLOCK_RECORD
  5
5F
330
1
100
AcDbSymbolTableRecord
100
AcDbBlockTableRecord
  2
*D11
 70
    0
280
    1
281
    0
  0
BLOCK_RECORD
  5
62
330
1
100
AcDbSymbolTableRecord
100
AcDbBlockTableRecord
  2
*D7
 70
    0
280
    1
281
    0
  0
BLOCK_RECORD
  5
65
330
1
100
AcDbSymbolTableRecord
100
AcDbBlockTableRecord
  2
*D15
 70
    0
280
    1
281
    0
  0
BLOCK_RECORD
  5
68
330
1
100
AcDbSymbolTableRecord
100
AcDbBlockTableRecord
  2
*D18
 70
    0
280
    1
281
    0
  0
BLOCK_RECORD
  5
6B
330
1
100
AcDbSymbolTableRecord
100
AcDbBlockTableRecord
  2
*D8
 70
    0
280
    1
281
    0
  0
BLOCK_RECORD
  5
6E
330
1
100
AcDbSymbolTableRecord
100
AcDbBlockTableRecord
  2
*D9
 70
    0
280
    1
281
    0
  0
BLOCK_RECORD
  5
71
330
1
100
AcDbSymbolTableRecord
100
AcDbBlockTableRecord
  2
*D13
 70
    0
280
    1
281
    0
  0
BLOCK_RECORD
  5
74
330
1
100
AcDbSymbolTableRecord
100
AcDbBlockTableRecord
  2
*D4
 70
    0
280
    1
281
    0
  0
BLOCK_RECORD
  5
77
330
1
100
AcDbSymbolTableRecord
100
AcDbBlockTableRecord
  2
*D16
 70
    0
280
    1
281
    0
  0
BLOCK_RECORD
  5
7A
330
1
100
AcDbSymbolTableRecord
100
AcDbBlockTableRecord
  2
*D17
 70
    0
280
    1
281
    0
  0
BLOCK_RECORD
  5
7D
330
1
100
AcDbSymbolTableRecord
100
AcDbBlockTableRecord
  2
*D5
 70
    0
280
    1
281
    0
  0
BLOCK_RECORD
  5
80
330
1
100
AcDbSymbolTableRecord
100
AcDbBlockTableRecord
  2
*D6
 70
    0
280
    1
281
    0
  0
BLOCK_RECORD
  5
83
330
1
100
AcDbSymbolTableRecord
100
AcDbBlockTableRecord
  2
*D10
 70
    0
280
    1
281
    0
  0
BLOCK_RECORD
  5
86
330
1
100
AcDbSymbolTableRecord
100
AcDbBlockTableRecord
  2
*D3
 70
    0
280
    1
281
    0
  0
BLOCK_RECORD
  5
89
330
1
100
AcDbSymbolTableRecord
100
AcDbBlockTableRecord
  2
*D1
 70
    0
280
    1
281
    0
  0
ENDTAB
  0
ENDSEC
  0
SECTION
  2
BLOCKS
  0
BLOCK
  5
20
330
1F
100
AcDbEntity
  8
0
100
AcDbBlockBegin
  2
*Model_Space
 70
    0
 10
0
 20
0
 30
0
  3
*Model_Space
  1

  0
ENDBLK
  5
21
330
1F
100
AcDbEntity
  8
0
100
AcDbBlockEnd
  0
BLOCK
  5
1C
330
1B
100
AcDbEntity
  8
0
100
AcDbBlockBegin
  2
*Paper_Space
 70
    0
 10
0
 20
0
 30
0
  3
*Paper_Space
  1

  0
ENDBLK
  5
1D
330
1F
100
AcDbEntity
  8
0
100
AcDbBlockEnd
  0
BLOCK
  5
57
330
56
100
AcDbEntity
  8
0
100
AcDbBlockBegin
  2
*D14
 70
    1
 10
0
 20
0
  3
*D14
  1

  0
LINE
  5
8C
100
AcDbEntity
  8
dim
  6
ByBlock
 62
    0
370
   -2
100
AcDbLine
 10
200
 20
780
 11
700
 21
780
  0
SOLID
  5
8D
100
AcDbEntity
  8
dim
  6
ByBlock
 62
    0
370
   -2
100
AcDbTrace
 10
200
 20
780
 30
0
 11
225
 21
784.1628465777284
 31
0
 12
225
 22
775.8371534222716
 32
0
 13
225
 23
775.8371534222716
 33
0
  0
SOLID
  5
8E
100
AcDbEntity
  8
dim
  6
ByBlock
 62
    0
370
   -2
100
AcDbTrace
 10
700
 20
780
 30
0
 11
675
 21
775.8371534222716
 31
0
 12
675
 22
784.1628465777284
 32
0
 13
675
 23
784.1628465777284
 33
0
  0
MTEXT
  5
8F
100
AcDbEntity
  8
dim
  6
CONTINUOUS
 62
    0
370
   -2
100
AcDbMText
 10
450
 20
798.75
 30
0
 40
25
 41
50.00000000000155
 71
    5
 72
    1
  1
500
  7
standard
210
0
220
0
230
1
 50
0
 73
    2
 44
1
  0
LINE
  5
90
100
AcDbEntity
  8
dim
  6
ByBlock
 62
    0
370
   -2
100
AcDbLine
 10
200
 20
706.25
 11
200
 21
792.5
  0
LINE
  5
91
100
AcDbEntity
  8
dim
  6
ByBlock
 62
    0
370
   -2
100
AcDbLine
 10
700
 20
706.25
 11
700
 21
792.5
  0
ENDBLK
  5
58
330
56
100
AcDbEntity
  8
0
100
AcDbBlockEnd
  0
BLOCK
  5
5A
330
59
100
AcDbEntity
  8
0
100
AcDbBlockBegin
  2
*D2
 70
    1
 10
0
 20
0
  3
*D2
  1

  0
LINE
  5
92
100
AcDbEntity
  8
dim
  6
ByBlock
 62
    0
370
   -2
100
AcDbLine
 10
500
 20
980
 11
2360
 21
980
  0
SOLID
  5
93
100
AcDbEntity
  8
dim
  6
ByBlock
 62
    0
370
   -2
100
AcDbTrace
 10
500
 20
980
 30
0
 11
525
 21
984.1628465777284
 31
0
 12
525
 22
975.8371534222716
 32
0
 13
525
 23
975.8371534222716
 33
0
  0
SOLID
  5
94
100
AcDbEntity
  8
dim
  6
ByBlock
 62
    0
370
   -2
100
AcDbTrace
 10
2360
 20
980
 30
0
 11
2335
 21
975.8371534222716
 31
0
 12
2335
 22
984.1628465777284
 32
0
 13
2335
 23
984.1628465777284
 33
0
  0
MTEXT
  5
95
100
AcDbEntity
  8
dim
  6
CONTINUOUS
 62
    0
370
   -2
100
AcDbMText
 10
1430
 20
998.75
 30
0
 40
25
 41
63.88888888889043
 71
    5
 72
    1
  1
1860
  7
standard
210
0
220
0
230
1
 50
0
 73
    2
 44
1
  0
LINE
  5
96
100
AcDbEntity
  8
dim
  6
ByBlock
 62
    0
370
   -2
100
AcDbLine
 10
500
 20
1033.75
 11
500
 21
967.5
  0
LINE
  5
97
100
AcDbEntity
  8
dim
  6
ByBlock
 62
    0
370
   -2
100
AcDbLine
 10
2360
 20
1033.75
 11
2360
 21
967.5
  0
ENDBLK
  5
5B
330
59
100
AcDbEntity
  8
0
100
AcDbBlockEnd
  0
BLOCK
  5
5D
330
5C
100
AcDbEntity
  8
0
100
AcDbBlockBegin
  2
*D12
 70
    1
 10
0
 20
0
  3
*D12
  1

  0
LINE
  5
98
100
AcDbEntity
  8
dim
  6
ByBlock
 62
    0
370
   -2
100
AcDbLine
 10
280
 20
200
 11
700
 21
200
  0
SOLID
  5
99
100
AcDbEntity
  8
dim
  6
ByBlock
 62
    0
370
   -2
100
AcDbTrace
 10
280
 20
200
 30
0
 11
305
 21
204.1628465777284
 31
0
 12
305
 22
195.8371534222716
 32
0
 13
305
 23
195.8371534222716
 33
0
  0
SOLID
  5
9A
100
AcDbEntity
  8
dim
  6
ByBlock
 62
    0
370
   -2
100
AcDbTrace
 10
700
 20
200
 30
0
 11
675
 21
195.8371534222716
 31
0
 12
675
 22
204.1628465777284
 32
0
 13
675
 23
204.1628465777284
 33
0
  0
MTEXT
  5
9B
100
AcDbEntity
  8
dim
  6
CONTINUOUS
 62
    0
370
   -2
100
AcDbMText
 10
490
 20
218.75
 30
0
 40
25
 41
52.77777777777777
 71
    5
 72
    1
  1
420
  7
standard
210
0
220
0
230
1
 50
0
 73
    2
 44
1
  0
LINE
  5
9C
100
AcDbEntity
  8
dim
  6
ByBlock
 62
    0
370
   -2
100
AcDbLine
 10
280
 20
273.75
 11
280
 21
187.5
  0
LINE
  5
9D
100
AcDbEntity
  8
dim
  6
ByBlock
 62
    0
370
   -2
100
AcDbLine
 10
700
 20
273.75
 11
700
 21
187.5
  0
ENDBLK
  5
5E
330
5C
100
AcDbEntity
  8
0
100
AcDbBlockEnd
  0
BLOCK
  5
60
330
5F
100
AcDbEntity
  8
0
100
AcDbBlockBegin
  2
*D11
 70
    1
 10
0
 20
0
  3
*D11
  1

  0
LINE
  5
9E
100
AcDbEntity
  8
dim
  6
ByBlock
 62
    0
370
   -2
100
AcDbLine
 10
190
 20
200
 11
280
 21
200
  0
SOLID
  5
9F
100
AcDbEntity
  8
dim
  6
ByBlock
 62
    0
370
   -2
100
AcDbTrace
 10
190
 20
200
 30
0
 11
215
 21
204.1628465777284
 31
0
 12
215
 22
195.8371534222716
 32
0
 13
215
 23
195.8371534222716
 33
0
  0
SOLID
  5
A0
100
AcDbEntity
  8
dim
  6
ByBlock
 62
    0
370
   -2
100
AcDbTrace
 10
280
 20
200
 30
0
 11
255
 21
195.8371534222716
 31
0
 12
255
 22
204.1628465777284
 32
0
 13
255
 23
204.1628465777284
 33
0
  0
MTEXT
  5
A1
100
AcDbEntity
  8
dim
  6
CONTINUOUS
 62
    0
370
   -2
100
AcDbMText
 10
235
 20
218.75
 30
0
 40
25
 41
30.5555555555571
 71
    5
 72
    1
  1
90
  7
standard
210
0
220
0
230
1
 50
0
 73
    2
 44
1
  0
LINE
  5
A2
100
AcDbEntity
  8
dim
  6
ByBlock
 62
    0
370
   -2
100
AcDbLine
 10
190
 20
693.75
 11
190
 21
187.5
  0
LINE
  5
A3
100
AcDbEntity
  8
dim
  6
ByBlock
 62
    0
370
   -2
100
AcDbLine
 10
280
 20
273.75
 11
280
 21
187.5
  0
ENDBLK
  5
61
330
5F
100
AcDbEntity
  8
0
100
AcDbBlockEnd
  0
BLOCK
  5
63
330
62
100
AcDbEntity
  8
0
100
AcDbBlockBegin
  2
*D7
 70
    1
 10
0
 20
0
  3
*D7
  1

  0
LINE
  5
A4
100
AcDbEntity
  8
dim
  6
ByBlock
 62
    0
370
   -2
100
AcDbLine
 10
2600
 20
1610
 11
2600
 21
1980
  0
SOLID
  5
A5
100
AcDbEntity
  8
dim
  6
ByBlock
 62
    0
370
   -2
100
AcDbTrace
 10
2600
 20
1610
 30
0
 11
2595.837153422272
 21
1635
 31
0
 12
2604.162846577728
 22
1635
 32
0
 13
2604.162846577728
 23
1635
 33
0
  0
SOLID
  5
A6
100
AcDbEntity
  8
dim
  6
ByBlock
 62
    0
370
   -2
100
AcDbTrace
 10
2600
 20
1980
 30
0
 11
2604.162846577728
 21
1955
 31
0
 12
2595.837153422272
 22
1955
 32
0
 13
2595.837153422272
 23
1955
 33
0
  0
MTEXT
  5
A7
100
AcDbEntity
  8
dim
  6
CONTINUOUS
 62
    0
370
   -2
100
AcDbMText
 10
2581.25
 20
1795
 30
0
 40
25
 41
50.00000000000155
 71
    5
 72
    1
  1
370
  7
standard
210
0
220
0
230
1
 50
90
 73
    2
 44
1
  0
LINE
  5
A8
100
AcDbEntity
  8
dim
  6
ByBlock
 62
    0
370
   -2
100
AcDbLine
 10
2366.25
 20
1610
 11
2612.5
 21
1610
  0
LINE
  5
A9
100
AcDbEntity
  8
dim
  6
ByBlock
 62
    0
370
   -2
100
AcDbLine
 10
2376.25
 20
1980
 11
2612.5
 21
1980
  0
ENDBLK
  5
64
330
62
100
AcDbEntity
  8
0
100
AcDbBlockEnd
  0
BLOCK
  5
66
330
65
100
AcDbEntity
  8
0
100
AcDbBlockBegin
  2
*D15
 70
    1
 10
0
 20
0
  3
*D15
  1

  0
LINE
  5
AA
100
AcDbEntity
  8
dim
  6
ByBlock
 62
    0
370
   -2
100
AcDbLine
 10
880
 20
200
 11
1300
 21
200
  0
SOLID
  5
AB
100
AcDbEntity
  8
dim
  6
ByBlock
 62
    0
370
   -2
100
AcDbTrace
 10
880
 20
200
 30
0
 11
905
 21
204.1628465777284
 31
0
 12
905
 22
195.8371534222716
 32
0
 13
905
 23
195.8371534222716
 33
0
  0
SOLID
  5
AC
100
AcDbEntity
  8
dim
  6
ByBlock
 62
    0
370
   -2
100
AcDbTrace
 10
1300
 20
200
 30
0
 11
1275
 21
195.8371534222716
 31
0
 12
1275
 22
204.1628465777284
 32
0
 13
1275
 23
204.1628465777284
 33
0
  0
MTEXT
  5
AD
100
AcDbEntity
  8
dim
  6
CONTINUOUS
 62
    0
370
   -2
100
AcDbMText
 10
1090
 20
218.75
 30
0
 40
25
 41
52.77777777777777
 71
    5
 72
    1
  1
420
  7
standard
210
0
220
0
230
1
 50
0
 73
    2
 44
1
  0
LINE
  5
AE
100
AcDbEntity
  8
dim
  6
ByBlock
 62
    0
370
   -2
100
AcDbLine
 10
880
 20
233.75
 11
880
 21
187.5
  0
LINE
  5
AF
100
AcDbEntity
  8
dim
  6
ByBlock
 62
    0
370
   -2
100
AcDbLine
 10
1300
 20
233.75
 11
1300
 21
187.5
  0
ENDBLK
  5
67
330
65
100
AcDbEntity
  8
0
100
AcDbBlockEnd
  0
BLOCK
  5
69
330
68
100
AcDbEntity
  8
0
100
AcDbBlockBegin
  2
*D18
 70
    1
 10
0
 20
0
  3
*D18
  1

  0
LINE
  5
B0
100
AcDbEntity
  8
dim
  6
CONTINUOUS
 62
    7
370
    0
100
AcDbLine
 10
1500
 20
500
 11
1800
 21
700
  0
LINE
  5
B1
100
AcDbEntity
  8
dim
  6
CONTINUOUS
 62
    7
370
    0
100
AcDbLine
 10
1800
 20
700
 11
2000
 21
700
  0
SOLID
  5
B2
100
AcDbEntity
  8
dim
  6
CONTINUOUS
 62
    7
370
    0
100
AcDbTrace
 10
1500
 20
500
 30
0
 11
1518.492125544925
 21
517.331202625913
 31
0
 12
1523.110389171968
 22
510.4038071853485
 32
0
 13
1523.110389171968
 23
510.4038071853485
 33
0
  0
ENDBLK
  5
6A
330
68
100
AcDbEntity
  8
0
100
AcDbBlockEnd
  0
BLOCK
  5
6C
330
6B
100
AcDbEntity
  8
0
100
AcDbBlockBegin
  2
*D8
 70
    1
 10
0
 20
0
  3
*D8
  1

  0
LINE
  5
B3
100
AcDbEntity
  8
dim
  6
ByBlock
 62
    0
370
   -2
100
AcDbLine
 10
800
 20
790
 11
800
 21
650
  0
SOLID
  5
B4
100
AcDbEntity
  8
dim
  6
ByBlock
 62
    0
370
   -2
100
AcDbTrace
 10
800
 20
740
 30
0
 11
795.8371534222716
 21
765
 31
0
 12
804.1628465777284
 22
765
 32
0
 13
804.1628465777284
 23
765
 33
0
  0
SOLID
  5
B5
100
AcDbEntity
  8
dim
  6
ByBlock
 62
    0
370
   -2
100
AcDbTrace
 10
800
 20
700
 30
0
 11
804.1628465777284
 21
675
 31
0
 12
795.8371534222716
 22
675
 32
0
 13
795.8371534222716
 23
675
 33
0
  0
MTEXT
  5
B6
100
AcDbEntity
  8
dim
  6
CONTINUOUS
 62
    0
370
   -2
100
AcDbMText
 10
781.25
 20
720
 30
0
 40
25
 41
33.33333333333333
 71
    5
 72
    1
  1
40
  7
standard
210
0
220
0
230
1
 50
90
 73
    2
 44
1
  0
LINE
  5
B7
100
AcDbEntity
  8
dim
  6
ByBlock
 62
    0
370
   -2
100
AcDbLine
 10
863.75
 20
740
 11
787.5
 21
740
  0
LINE
  5
B8
100
AcDbEntity
  8
dim
  6
ByBlock
 62
    0
370
   -2
100
AcDbLine
 10
823.75
 20
700
 11
787.5
 21
700
  0
ENDBLK
  5
6D
330
6B
100
AcDbEntity
  8
0
100
AcDbBlockEnd
  0
BLOCK
  5
6F
330
6E
100
AcDbEntity
  8
0
100
AcDbBlockBegin
  2
*D9
 70
    1
 10
0
 20
0
  3
*D9
  1

  0
LINE
  5
B9
100
AcDbEntity
  8
dim
  6
ByBlock
 62
    0
370
   -2
100
AcDbLine
 10
800
 20
700
 11
800
 21
300
  0
SOLID
  5
BA
100
AcDbEntity
  8
dim
  6
ByBlock
 62
    0
370
   -2
100
AcDbTrace
 10
800
 20
700
 30
0
 11
804.1628465777284
 21
675
 31
0
 12
795.8371534222716
 22
675
 32
0
 13
795.8371534222716
 23
675
 33
0
  0
SOLID
  5
BB
100
AcDbEntity
  8
dim
  6
ByBlock
 62
    0
370
   -2
100
AcDbTrace
 10
800
 20
300
 30
0
 11
795.8371534222716
 21
325
 31
0
 12
804.1628465777284
 22
325
 32
0
 13
804.1628465777284
 23
325
 33
0
  0
MTEXT
  5
BC
100
AcDbEntity
  8
dim
  6
CONTINUOUS
 62
    0
370
   -2
100
AcDbMText
 10
781.25
 20
500
 30
0
 40
25
 41
52.77777777777777
 71
    5
 72
    1
  1
400
  7
standard
210
0
220
0
230
1
 50
90
 73
    2
 44
1
  0
LINE
  5
BD
100
AcDbEntity
  8
dim
  6
ByBlock
 62
    0
370
   -2
100
AcDbLine
 10
823.75
 20
700
 11
787.5
 21
700
  0
LINE
  5
BE
100
AcDbEntity
  8
dim
  6
ByBlock
 62
    0
370
   -2
100
AcDbLine
 10
823.75
 20
300
 11
787.5
 21
300
  0
ENDBLK
  5
70
330
6E
100
AcDbEntity
  8
0
100
AcDbBlockEnd
  0
BLOCK
  5
72
330
71
100
AcDbEntity
  8
0
100
AcDbBlockBegin
  2
*D13
 70
    1
 10
0
 20
0
  3
*D13
  1

  0
LINE
  5
BF
100
AcDbEntity
  8
dim
  6
ByBlock
 62
    0
370
   -2
100
AcDbLine
 10
790
 20
200
 11
930
 21
200
  0
SOLID
  5
C0
100
AcDbEntity
  8
dim
  6
ByBlock
 62
    0
370
   -2
100
AcDbTrace
 10
840
 20
200
 30
0
 11
815
 21
195.8371534222716
 31
0
 12
815
 22
204.1628465777284
 32
0
 13
815
 23
204.1628465777284
 33
0
  0
SOLID
  5
C1
100
AcDbEntity
  8
dim
  6
ByBlock
 62
    0
370
   -2
100
AcDbTrace
 10
880
 20
200
 30
0
 11
905
 21
204.1628465777284
 31
0
 12
905
 22
195.8371534222716
 32
0
 13
905
 23
195.8371534222716
 33
0
  0
MTEXT
  5
C2
100
AcDbEntity
  8
dim
  6
CONTINUOUS
 62
    0
370
   -2
100
AcDbMText
 10
860
 20
218.75
 30
0
 40
25
 41
33.33333333333333
 71
    5
 72
    1
  1
40
  7
standard
210
0
220
0
230
1
 50
0
 73
    2
 44
1
  0
LINE
  5
C3
100
AcDbEntity
  8
dim
  6
ByBlock
 62
    0
370
   -2
100
AcDbLine
 10
840
 20
283.75
 11
840
 21
187.5
  0
LINE
  5
C4
100
AcDbEntity
  8
dim
  6
ByBlock
 62
    0
370
   -2
100
AcDbLine
 10
880
 20
253.75
 11
880
 21
187.5
  0
ENDBLK
  5
73
330
71
100
AcDbEntity
  8
0
100
AcDbBlockEnd
  0
BLOCK
  5
75
330
74
100
AcDbEntity
  8
0
100
AcDbBlockBegin
  2
*D4
 70
    1
 10
0
 20
0
  3
*D4
  1

  0
LINE
  5
C5
100
AcDbEntity
  8
dim
  6
ByBlock
 62
    0
370
   -2
100
AcDbLine
 10
2600
 20
1520
 11
2600
 21
1150
  0
SOLID
  5
C6
100
AcDbEntity
  8
dim
  6
ByBlock
 62
    0
370
   -2
100
AcDbTrace
 10
2600
 20
1520
 30
0
 11
2604.162846577728
 21
1495
 31
0
 12
2595.837153422272
 22
1495
 32
0
 13
2595.837153422272
 23
1495
 33
0
  0
SOLID
  5
C7
100
AcDbEntity
  8
dim
  6
ByBlock
 62
    0
370
   -2
100
AcDbTrace
 10
2600
 20
1150
 30
0
 11
2595.837153422272
 21
1175
 31
0
 12
2604.162846577728
 22
1175
 32
0
 13
2604.162846577728
 23
1175
 33
0
  0
MTEXT
  5
C8
100
AcDbEntity
  8
dim
  6
CONTINUOUS
 62
    0
370
   -2
100
AcDbMText
 10
2581.25
 20
1335
 30
0
 40
25
 41
50.00000000000155
 71
    5
 72
    1
  1
370
  7
standard
210
0
220
0
230
1
 50
90
 73
    2
 44
1
  0
LINE
  5
C9
100
AcDbEntity
  8
dim
  6
ByBlock
 62
    0
370
   -2
100
AcDbLine
 10
2466.25
 20
1520
 11
2612.5
 21
1520
  0
LINE
  5
CA
100
AcDbEntity
  8
dim
  6
ByBlock
 62
    0
370
   -2
100
AcDbLine
 10
2466.25
 20
1150
 11
2612.5
 21
1150
  0
ENDBLK
  5
76
330
74
100
AcDbEntity
  8
0
100
AcDbBlockEnd
  0
BLOCK
  5
78
330
77
100
AcDbEntity
  8
0
100
AcDbBlockBegin
  2
*D16
 70
    1
 10
0
 20
0
  3
*D16
  1

  0
LINE
  5
CB
100
AcDbEntity
  8
dim
  6
ByBlock
 62
    0
370
   -2
100
AcDbLine
 10
1250
 20
200
 11
1390
 21
200
  0
SOLID
  5
CC
100
AcDbEntity
  8
dim
  6
ByBlock
 62
    0
370
   -2
100
AcDbTrace
 10
1300
 20
200
 30
0
 11
1275
 21
195.8371534222716
 31
0
 12
1275
 22
204.1628465777284
 32
0
 13
1275
 23
204.1628465777284
 33
0
  0
SOLID
  5
CD
100
AcDbEntity
  8
dim
  6
ByBlock
 62
    0
370
   -2
100
AcDbTrace
 10
1340
 20
200
 30
0
 11
1365
 21
204.1628465777284
 31
0
 12
1365
 22
195.8371534222716
 32
0
 13
1365
 23
195.8371534222716
 33
0
  0
MTEXT
  5
CE
100
AcDbEntity
  8
dim
  6
CONTINUOUS
 62
    0
370
   -2
100
AcDbMText
 10
1320
 20
218.75
 30
0
 40
25
 41
33.33333333333333
 71
    5
 72
    1
  1
40
  7
standard
210
0
220
0
230
1
 50
0
 73
    2
 44
1
  0
LINE
  5
CF
100
AcDbEntity
  8
dim
  6
ByBlock
 62
    0
370
   -2
100
AcDbLine
 10
1300
 20
233.75
 11
1300
 21
187.5
  0
LINE
  5
D0
100
AcDbEntity
  8
dim
  6
ByBlock
 62
    0
370
   -2
100
AcDbLine
 10
1340
 20
283.75
 11
1340
 21
187.5
  0
ENDBLK
  5
79
330
77
100
AcDbEntity
  8
0
100
AcDbBlockEnd
  0
BLOCK
  5
7B
330
7A
100
AcDbEntity
  8
0
100
AcDbBlockBegin
  2
*D17
 70
    1
 10
0
 20
0
  3
*D17
  1

  0
LINE
  5
D1
100
AcDbEntity
  8
dim
  6
ByBlock
 62
    0
370
   -2
100
AcDbLine
 10
840
 20
780
 11
1420
 21
780
  0
SOLID
  5
D2
100
AcDbEntity
  8
dim
  6
ByBlock
 62
    0
370
   -2
100
AcDbTrace
 10
840
 20
780
 30
0
 11
865
 21
784.1628465777284
 31
0
 12
865
 22
775.8371534222716
 32
0
 13
865
 23
775.8371534222716
 33
0
  0
SOLID
  5
D3
100
AcDbEntity
  8
dim
  6
ByBlock
 62
    0
370
   -2
100
AcDbTrace
 10
1420
 20
780
 30
0
 11
1395
 21
775.8371534222716
 31
0
 12
1395
 22
784.1628465777284
 32
0
 13
1395
 23
784.1628465777284
 33
0
  0
MTEXT
  5
D4
100
AcDbEntity
  8
dim
  6
CONTINUOUS
 62
    0
370
   -2
100
AcDbMText
 10
1130
 20
798.75
 30
0
 40
25
 41
50.00000000000155
 71
    5
 72
    1
  1
580
  7
standard
210
0
220
0
230
1
 50
0
 73
    2
 44
1
  0
LINE
  5
D5
100
AcDbEntity
  8
dim
  6
ByBlock
 62
    0
370
   -2
100
AcDbLine
 10
840
 20
706.25
 11
840
 21
792.5
  0
LINE
  5
D6
100
AcDbEntity
  8
dim
  6
ByBlock
 62
    0
370
   -2
100
AcDbLine
 10
1420
 20
706.25
 11
1420
 21
792.5
  0
ENDBLK
  5
7C
330
7A
100
AcDbEntity
  8
0
100
AcDbBlockEnd
  0
BLOCK
  5
7E
330
7D
100
AcDbEntity
  8
0
100
AcDbBlockBegin
  2
*D5
 70
    1
 10
0
 20
0
  3
*D5
  1

  0
LINE
  5
D7
100
AcDbEntity
  8
dim
  6
ByBlock
 62
    0
370
   -2
100
AcDbLine
 10
2600
 20
1150
 11
2600
 21
1060
  0
SOLID
  5
D8
100
AcDbEntity
  8
dim
  6
ByBlock
 62
    0
370
   -2
100
AcDbTrace
 10
2600
 20
1150
 30
0
 11
2604.162846577728
 21
1125
 31
0
 12
2595.837153422272
 22
1125
 32
0
 13
2595.837153422272
 23
1125
 33
0
  0
SOLID
  5
D9
100
AcDbEntity
  8
dim
  6
ByBlock
 62
    0
370
   -2
100
AcDbTrace
 10
2600
 20
1060
 30
0
 11
2595.837153422272
 21
1085
 31
0
 12
2604.162846577728
 22
1085
 32
0
 13
2604.162846577728
 23
1085
 33
0
  0
MTEXT
  5
DA
100
AcDbEntity
  8
dim
  6
CONTINUOUS
 62
    0
370
   -2
100
AcDbMText
 10
2581.25
 20
1105
 30
0
 40
25
 41
30.5555555555571
 71
    5
 72
    1
  1
90
  7
standard
210
0
220
0
230
1
 50
90
 73
    2
 44
1
  0
LINE
  5
DB
100
AcDbEntity
  8
dim
  6
ByBlock
 62
    0
370
   -2
100
AcDbLine
 10
2466.25
 20
1150
 11
2612.5
 21
1150
  0
LINE
  5
DC
100
AcDbEntity
  8
dim
  6
ByBlock
 62
    0
370
   -2
100
AcDbLine
 10
2376.25
 20
1060
 11
2612.5
 21
1060
  0
ENDBLK
  5
7F
330
7D
100
AcDbEntity
  8
0
100
AcDbBlockEnd
  0
BLOCK
  5
81
330
80
100
AcDbEntity
  8
0
100
AcDbBlockBegin
  2
*D6
 70
    1
 10
0
 20
0
  3
*D6
  1

  0
LINE
  5
DD
100
AcDbEntity
  8
dim
  6
ByBlock
 62
    0
370
   -2
100
AcDbLine
 10
2600
 20
1520
 11
2600
 21
1610
  0
SOLID
  5
DE
100
AcDbEntity
  8
dim
  6
ByBlock
 62
    0
370
   -2
100
AcDbTrace
 10
2600
 20
1520
 30
0
 11
2595.837153422272
 21
1545
 31
0
 12
2604.162846577728
 22
1545
 32
0
 13
2604.162846577728
 23
1545
 33
0
  0
SOLID
  5
DF
100
AcDbEntity
  8
dim
  6
ByBlock
 62
    0
370
   -2
100
AcDbTrace
 10
2600
 20
1610
 30
0
 11
2604.162846577728
 21
1585
 31
0
 12
2595.837153422272
 22
1585
 32
0
 13
2595.837153422272
 23
1585
 33
0
  0
MTEXT
  5
E0
100
AcDbEntity
  8
dim
  6
CONTINUOUS
 62
    0
370
   -2
100
AcDbMText
 10
2581.25
 20
1565
 30
0
 40
25
 41
30.5555555555571
 71
    5
 72
    1
  1
90
  7
standard
210
0
220
0
230
1
 50
90
 73
    2
 44
1
  0
LINE
  5
E1
100
AcDbEntity
  8
dim
  6
ByBlock
 62
    0
370
   -2
100
AcDbLine
 10
2466.25
 20
1520
 11
2612.5
 21
1520
  0
LINE
  5
E2
100
AcDbEntity
  8
dim
  6
ByBlock
 62
    0
370
   -2
100
AcDbLine
 10
2366.25
 20
1610
 11
2612.5
 21
1610
  0
ENDBLK
  5
82
330
80
100
AcDbEntity
  8
0
100
AcDbBlockEnd
  0
BLOCK
  5
84
330
83
100
AcDbEntity
  8
0
100
AcDbBlockBegin
  2
*D10
 70
    1
 10
0
 20
0
  3
*D10
  1

  0
LINE
  5
E3
100
AcDbEntity
  8
dim
  6
ByBlock
 62
    0
370
   -2
100
AcDbLine
 10
800
 20
350
 11
800
 21
210
  0
SOLID
  5
E4
100
AcDbEntity
  8
dim
  6
ByBlock
 62
    0
370
   -2
100
AcDbTrace
 10
800
 20
300
 30
0
 11
795.8371534222716
 21
325
 31
0
 12
804.1628465777284
 22
325
 32
0
 13
804.1628465777284
 23
325
 33
0
  0
SOLID
  5
E5
100
AcDbEntity
  8
dim
  6
ByBlock
 62
    0
370
   -2
100
AcDbTrace
 10
800
 20
260
 30
0
 11
804.1628465777284
 21
235
 31
0
 12
795.8371534222716
 22
235
 32
0
 13
795.8371534222716
 23
235
 33
0
  0
MTEXT
  5
E6
100
AcDbEntity
  8
dim
  6
CONTINUOUS
 62
    0
370
   -2
100
AcDbMText
 10
781.25
 20
280
 30
0
 40
25
 41
33.33333333333333
 71
    5
 72
    1
  1
40
  7
standard
210
0
220
0
230
1
 50
90
 73
    2
 44
1
  0
LINE
  5
E7
100
AcDbEntity
  8
dim
  6
ByBlock
 62
    0
370
   -2
100
AcDbLine
 10
823.75
 20
300
 11
787.5
 21
300
  0
LINE
  5
E8
100
AcDbEntity
  8
dim
  6
ByBlock
 62
    0
370
   -2
100
AcDbLine
 10
873.75
 20
260
 11
787.5
 21
260
  0
ENDBLK
  5
85
330
83
100
AcDbEntity
  8
0
100
AcDbBlockEnd
  0
BLOCK
  5
87
330
86
100
AcDbEntity
  8
0
100
AcDbBlockBegin
  2
*D3
 70
    1
 10
0
 20
0
  3
*D3
  1

  0
LINE
  5
E9
100
AcDbEntity
  8
dim
  6
ByBlock
 62
    0
370
   -2
100
AcDbLine
 10
410
 20
980
 11
500
 21
980
  0
SOLID
  5
EA
100
AcDbEntity
  8
dim
  6
ByBlock
 62
    0
370
   -2
100
AcDbTrace
 10
410
 20
980
 30
0
 11
435
 21
984.1628465777284
 31
0
 12
435
 22
975.8371534222716
 32
0
 13
435
 23
975.8371534222716
 33
0
  0
SOLID
  5
EB
100
AcDbEntity
  8
dim
  6
ByBlock
 62
    0
370
   -2
100
AcDbTrace
 10
500
 20
980
 30
0
 11
475
 21
975.8371534222716
 31
0
 12
475
 22
984.1628465777284
 32
0
 13
475
 23
984.1628465777284
 33
0
  0
MTEXT
  5
EC
100
AcDbEntity
  8
dim
  6
CONTINUOUS
 62
    0
370
   -2
100
AcDbMText
 10
455
 20
998.75
 30
0
 40
25
 41
30.5555555555571
 71
    5
 72
    1
  1
90
  7
standard
210
0
220
0
230
1
 50
0
 73
    2
 44
1
  0
LINE
  5
ED
100
AcDbEntity
  8
dim
  6
ByBlock
 62
    0
370
   -2
100
AcDbLine
 10
410
 20
1133.75
 11
410
 21
967.5
  0
LINE
  5
EE
100
AcDbEntity
  8
dim
  6
ByBlock
 62
    0
370
   -2
100
AcDbLine
 10
500
 20
1033.75
 11
500
 21
967.5
  0
ENDBLK
  5
88
330
86
100
AcDbEntity
  8
0
100
AcDbBlockEnd
  0
BLOCK
  5
8A
330
89
100
AcDbEntity
  8
0
100
AcDbBlockBegin
  2
*D1
 70
    1
 10
0
 20
0
  3
*D1
  1

  0
LINE
  5
EF
100
AcDbEntity
  8
dim
  6
ByBlock
 62
    0
370
   -2
100
AcDbLine
 10
2360
 20
980
 11
2450
 21
980
  0
SOLID
  5
F0
100
AcDbEntity
  8
dim
  6
ByBlock
 62
    0
370
   -2
100
AcDbTrace
 10
2360
 20
980
 30
0
 11
2385
 21
984.1628465777284
 31
0
 12
2385
 22
975.8371534222716
 32
0
 13
2385
 23
975.8371534222716
 33
0
  0
SOLID
  5
F1
100
AcDbEntity
  8
dim
  6
ByBlock
 62
    0
370
   -2
100
AcDbTrace
 10
2450
 20
980
 30
0
 11
2425
 21
975.8371534222716
 31
0
 12
2425
 22
984.1628465777284
 32
0
 13
2425
 23
984.1628465777284
 33
0
  0
MTEXT
  5
F2
100
AcDbEntity
  8
dim
  6
CONTINUOUS
 62
    0
370
   -2
100
AcDbMText
 10
2405
 20
998.75
 30
0
 40
25
 41
30.5555555555571
 71
    5
 72
    1
  1
90
  7
standard
210
0
220
0
230
1
 50
0
 73
    2
 44
1
  0
LINE
  5
F3
100
AcDbEntity
  8
dim
  6
ByBlock
 62
    0
370
   -2
100
AcDbLine
 10
2360
 20
1033.75
 11
2360
 21
967.5
  0
LINE
  5
F4
100
AcDbEntity
  8
dim
  6
ByBlock
 62
    0
370
   -2
100
AcDbLine
 10
2450
 20
1133.75
 11
2450
 21
967.5
  0
ENDBLK
  5
8B
330
89
100
AcDbEntity
  8
0
100
AcDbBlockEnd
  0
ENDSEC
  0
SECTION
  2
ENTITIES
  0
HATCH
  5
F5
100
AcDbEntity
  8
zipper
  6
ByLayer
 62
  256
370
   -1
100
AcDbHatch
 10
0
 20
0
 30
0
210
0
220
0
230
1
  2
misc02
 70
    0
 71
    0
 91
    1
 92
    0
 93
    4
 72
    1
 10
280
 20
300
 11
700
 21
300
 72
    1
 10
700
 20
300
 11
700
 21
280
 72
    1
 10
700
 20
280
 11
280
 21
280
 72
    1
 10
280
 20
280
 11
280
 21
300
 97
    0
 75
    0
 76
    1
 52
0
 41
1
 77
    0
 78
    0
 98
    0
  0
HATCH
  5
F6
100
AcDbEntity
  8
zipper
  6
ByLayer
 62
  256
370
   -1
100
AcDbHatch
 10
0
 20
0
 30
0
210
0
220
0
230
1
  2
misc02
 70
    0
 71
    0
 91
    1
 92
    0
 93
    4
 72
    1
 10
880
 20
260
 11
1300
 21
260
 72
    1
 10
1300
 20
260
 11
1300
 21
240
 72
    1
 10
1300
 20
240
 11
880
 21
240
 72
    1
 10
880
 20
240
 11
880
 21
260
 97
    0
 75
    0
 76
    1
 52
0
 41
1
 77
    0
 78
    0
 98
    0
  0
HATCH
  5
F7
100
AcDbEntity
  8
zipper
  6
ByLayer
 62
  256
370
   -1
100
AcDbHatch
 10
0
 20
0
 30
0
210
0
220
0
230
1
  2
misc02
 70
    0
 71
    0
 91
    1
 92
    0
 93
    4
 72
    1
 10
500
 20
1060
 11
2360
 21
1060
 72
    1
 10
2360
 20
1060
 11
2360
 21
1040
 72
    1
 10
2360
 20
1040
 11
500
 21
1040
 72
    1
 10
500
 20
1040
 11
500
 21
1060
 97
    0
 75
    0
 76
    1
 52
0
 41
1
 77
    0
 78
    0
 98
    0
  0
HATCH
  5
F8
100
AcDbEntity
  8
zipper
  6
ByLayer
 62
  256
370
   -1
100
AcDbHatch
 10
0
 20
0
 30
0
210
0
220
0
230
1
  2
misc02
 70
    0
 71
    0
 91
    1
 92
    0
 93
    4
 72
    1
 10
500
 20
2000
 11
2360
 21
2000
 72
    1
 10
2360
 20
2000
 11
2360
 21
1980
 72
    1
 10
2360
 20
1980
 11
500
 21
1980
 72
    1
 10
500
 20
1980
 11
500
 21
2000
 97
    0
 75
    0
 76
    1
 52
0
 41
1
 77
    0
 78
    0
 98
    0
  0
LWPOLYLINE
  5
F9
100
AcDbEntity
  8
template-thick
  6
ByLayer
 62
  256
370
   -1
100
AcDbPolyline
 90
    4
 70
    1
 43
0
 10
50
 20
50
 10
2920
 20
50
 10
2920
 20
2050
 10
50
 20
2050
  0
LINE
  5
FA
100
AcDbEntity
  8
template-thin
  6
ByLayer
 62
  256
370
   -1
100
AcDbLine
 10
1520
 20
175.0026010129251
 11
2920
 21
175.0026010129251
  0
MTEXT
  5
FB
100
AcDbEntity
  8
template-thin
  6
ByLayer
 62
  256
370
   -1
100
AcDbMText
 10
1760
 20
150
 30
0
 40
30
 41
1010.833333333333
 71
    1
 72
    1
  1
Seam allowance: 1cm.\PZipper double folded seam (2cm).
  7
iso3098_i
210
0
220
0
230
1
 50
0
 73
    2
 44
1
  0
MTEXT
  5
FC
100
AcDbEntity
  8
template-thick
  6
ByLayer
 62
  256
370
   -1
100
AcDbMText
 10
1584.444444444444
 20
240
 30
0
 40
40
 41
75.55555555555556
 71
    1
 72
    1
  1
1:10
  7
standard
210
0
220
0
230
1
 50
0
 73
    2
 44
1
  0
LINE
  5
FD
100
AcDbEntity
  8
template-thin
  6
ByLayer
 62
  256
370
   -1
100
AcDbLine
 10
1759.077868802333
 20
280
 11
1759.077868802333
 21
50
  0
LWPOLYLINE
  5
FE
100
AcDbEntity
  8
template-thick
  6
ByLayer
 62
  256
370
   -1
100
AcDbPolyline
 90
    4
 70
    1
 43
0
 10
1520
 20
50
 10
2920
 20
50
 10
2920
 20
280
 10
1520
 20
280
  0
LINE
  5
FF
100
AcDbEntity
  8
main
  6
ByLayer
 62
  256
370
   -1
100
AcDbLine
 10
500
 20
1520
 11
500
 21
1610
  0
LINE
  5
100
100
AcDbEntity
  8
main
  6
ByLayer
 62
  256
370
   -1
100
AcDbLine
 10
500
 20
1610
 11
500
 21
1700
  0
LINE
  5
101
100
AcDbEntity
  8
main
  6
ByLayer
 62
  256
370
   -1
100
AcDbLine
 10
500
 20
1700
 11
500
 21
1980
  0
LINE
  5
102
100
AcDbEntity
  8
main
  6
ByLayer
 62
  256
370
   -1
100
AcDbLine
 10
500
 20
1980
 11
2360
 21
1980
  0
LINE
  5
103
100
AcDbEntity
  8
main
  6
ByLayer
 62
  256
370
   -1
100
AcDbLine
 10
2360
 20
1980
 11
2360
 21
1520
  0
LINE
  5
104
100
AcDbEntity
  8
main
  6
ByLayer
 62
  256
370
   -1
100
AcDbLine
 10
2360
 20
1520
 11
2450
 21
1520
  0
LINE
  5
105
100
AcDbEntity
  8
main
  6
ByLayer
 62
  256
370
   -1
100
AcDbLine
 10
2450
 20
1520
 11
2450
 21
1150
  0
LINE
  5
106
100
AcDbEntity
  8
main
  6
ByLayer
 62
  256
370
   -1
100
AcDbLine
 10
2450
 20
1150
 11
2360
 21
1150
  0
LINE
  5
107
100
AcDbEntity
  8
main
  6
ByLayer
 62
  256
370
   -1
100
AcDbLine
 10
2360
 20
1150
 11
2360
 21
1060
  0
LINE
  5
108
100
AcDbEntity
  8
main
  6
ByLayer
 62
  256
370
   -1
100
AcDbLine
 10
2360
 20
1060
 11
500
 21
1060
  0
LINE
  5
109
100
AcDbEntity
  8
main
  6
ByLayer
 62
  256
370
   -1
100
AcDbLine
 10
500
 20
1060
 11
500
 21
1150
  0
LINE
  5
10A
100
AcDbEntity
  8
seam
  6
ByLayer
 62
  256
370
   -1
100
AcDbLine
 10
500
 20
1060
 11
490
 21
1060
  0
LINE
  5
10B
100
AcDbEntity
  8
seam
  6
ByLayer
 62
  256
370
   -1
100
AcDbLine
 10
490
 20
1060
 11
490
 21
1140
  0
LINE
  5
10C
100
AcDbEntity
  8
seam
  6
ByLayer
 62
  256
370
   -1
100
AcDbLine
 10
490
 20
1530
 11
490
 21
1980
  0
LINE
  5
10D
100
AcDbEntity
  8
seam
  6
ByLayer
 62
  256
370
   -1
100
AcDbLine
 10
490
 20
1980
 11
500
 21
1980
  0
LINE
  5
10E
100
AcDbEntity
  8
seam
  6
ByLayer
 62
  256
370
   -1
100
AcDbLine
 10
490
 20
1530
 11
500
 21
1520
  0
LINE
  5
10F
100
AcDbEntity
  8
seam
  6
ByLayer
 62
  256
370
   -1
100
AcDbLine
 10
490
 20
1140
 11
500
 21
1150
  0
LINE
  5
110
100
AcDbEntity
  8
seam
  6
ByLayer
 62
  256
370
   -1
100
AcDbLine
 10
500
 20
1060
 11
500
 21
1040
  0
LINE
  5
111
100
AcDbEntity
  8
seam
  6
ByLayer
 62
  256
370
   -1
100
AcDbLine
 10
500
 20
1040
 11
2360
 21
1040
  0
LINE
  5
112
100
AcDbEntity
  8
seam
  6
ByLayer
 62
  256
370
   -1
100
AcDbLine
 10
2360
 20
1040
 11
2360
 21
1060
  0
LINE
  5
113
100
AcDbEntity
  8
seam
  6
ByLayer
 62
  256
370
   -1
100
AcDbLine
 10
2360
 20
1060
 11
2370
 21
1060
  0
LINE
  5
114
100
AcDbEntity
  8
seam
  6
ByLayer
 62
  256
370
   -1
100
AcDbLine
 10
2370
 20
1060
 11
2370
 21
1140
  0
LINE
  5
115
100
AcDbEntity
  8
seam
  6
ByLayer
 62
  256
370
   -1
100
AcDbLine
 10
2370
 20
1140
 11
2450
 21
1140
  0
LINE
  5
116
100
AcDbEntity
  8
seam
  6
ByLayer
 62
  256
370
   -1
100
AcDbLine
 10
2450
 20
1140
 11
2450
 21
1150
  0
LINE
  5
117
100
AcDbEntity
  8
seam
  6
ByLayer
 62
  256
370
   -1
100
AcDbLine
 10
2450
 20
1150
 11
2460
 21
1150
  0
LINE
  5
118
100
AcDbEntity
  8
seam
  6
ByLayer
 62
  256
370
   -1
100
AcDbLine
 10
2460
 20
1150
 11
2460
 21
1520
  0
LINE
  5
119
100
AcDbEntity
  8
seam
  6
ByLayer
 62
  256
370
   -1
100
AcDbLine
 10
2460
 20
1520
 11
2450
 21
1520
  0
LINE
  5
11A
100
AcDbEntity
  8
seam
  6
ByLayer
 62
  256
370
   -1
100
AcDbLine
 10
2450
 20
1520
 11
2450
 21
1530
  0
LINE
  5
11B
100
AcDbEntity
  8
seam
  6
ByLayer
 62
  256
370
   -1
100
AcDbLine
 10
2450
 20
1530
 11
2370
 21
1530
  0
LINE
  5
11C
100
AcDbEntity
  8
seam
  6
ByLayer
 62
  256
370
   -1
100
AcDbLine
 10
2370
 20
1530
 11
2370
 21
1980
  0
LINE
  5
11D
100
AcDbEntity
  8
seam
  6
ByLayer
 62
  256
370
   -1
100
AcDbLine
 10
2370
 20
1980
 11
2360
 21
1980
  0
LINE
  5
11E
100
AcDbEntity
  8
seam
  6
ByLayer
 62
  256
370
   -1
100
AcDbLine
 10
2360
 20
1980
 11
2360
 21
2000
  0
LINE
  5
11F
100
AcDbEntity
  8
seam
  6
ByLayer
 62
  256
370
   -1
100
AcDbLine
 10
2360
 20
2000
 11
500
 21
2000
  0
LINE
  5
120
100
AcDbEntity
  8
seam
  6
ByLayer
 62
  256
370
   -1
100
AcDbLine
 10
500
 20
2000
 11
500
 21
1980
  0
LINE
  5
121
100
AcDbEntity
  8
seam
  6
ByLayer
 62
  256
370
   -1
100
AcDbLine
 10
2370
 20
1530
 11
2360
 21
1520
  0
LINE
  5
122
100
AcDbEntity
  8
seam
  6
ByLayer
 62
  256
370
   -1
100
AcDbLine
 10
2370
 20
1140
 11
2360
 21
1150
  0
LINE
  5
123
100
AcDbEntity
  8
seam
  6
ByLayer
 62
  256
370
   -1
100
AcDbLine
 10
2360
 20
1150
 11
500
 21
1150
  0
LINE
  5
124
100
AcDbEntity
  8
seam
  6
ByLayer
 62
  256
370
   -1
100
AcDbLine
 10
500
 20
1150
 11
500
 21
1520
  0
LINE
  5
125
100
AcDbEntity
  8
seam
  6
ByLayer
 62
  256
370
   -1
100
AcDbLine
 10
500
 20
1520
 11
2360
 21
1520
  0
LINE
  5
126
100
AcDbEntity
  8
seam
  6
ByLayer
 62
  256
370
   -1
100
AcDbLine
 10
2360
 20
1520
 11
2360
 21
1150
  0
LINE
  5
127
100
AcDbEntity
  8
seam
  6
ByLayer
 62
  256
370
   -1
100
AcDbLine
 10
500
 20
1610
 11
2360
 21
1610
  0
DIMENSION
  5
128
100
AcDbEntity
  8
dim
  6
ByLayer
 62
  256
370
   -1
100
AcDbDimension
  2
*D1
 10
2450
 20
980
 30
0
 11
2405
 21
998.75
 31
0
 70
   32
 71
    5
 72
    0
  3
Standard
 53
0
210
0
220
0
230
1
100
AcDbAlignedDimension
 13
2360
 23
1040
 33
0
 14
2450
 24
1140
 34
0
100
AcDbRotatedDimension
  0
DIMENSION
  5
129
100
AcDbEntity
  8
dim
  6
ByLayer
 62
  256
370
   -1
100
AcDbDimension
  2
*D2
 10
2360
 20
980
 30
0
 11
1430
 21
998.75
 31
0
 70
   32
 71
    5
 72
    0
  3
Standard
 53
0
210
0
220
0
230
1
100
AcDbAlignedDimension
 13
500
 23
1040
 33
0
 14
2360
 24
1040
 34
0
100
AcDbRotatedDimension
  0
LINE
  5
12A
100
AcDbEntity
  8
main
  6
ByLayer
 62
  256
370
   -1
100
AcDbLine
 10
500
 20
1150
 11
410
 21
1150
  0
LINE
  5
12B
100
AcDbEntity
  8
main
  6
ByLayer
 62
  256
370
   -1
100
AcDbLine
 10
410
 20
1150
 11
410
 21
1520
  0
LINE
  5
12C
100
AcDbEntity
  8
main
  6
ByLayer
 62
  256
370
   -1
100
AcDbLine
 10
410
 20
1520
 11
500
 21
1520
  0
LINE
  5
12D
100
AcDbEntity
  8
seam
  6
ByLayer
 62
  256
370
   -1
100
AcDbLine
 10
490
 20
1140
 11
410
 21
1140
  0
LINE
  5
12E
100
AcDbEntity
  8
seam
  6
ByLayer
 62
  256
370
   -1
100
AcDbLine
 10
410
 20
1140
 11
410
 21
1150
  0
LINE
  5
12F
100
AcDbEntity
  8
seam
  6
ByLayer
 62
  256
370
   -1
100
AcDbLine
 10
410
 20
1150
 11
400
 21
1150
  0
LINE
  5
130
100
AcDbEntity
  8
seam
  6
ByLayer
 62
  256
370
   -1
100
AcDbLine
 10
400
 20
1150
 11
400
 21
1520
  0
LINE
  5
131
100
AcDbEntity
  8
seam
  6
ByLayer
 62
  256
370
   -1
100
AcDbLine
 10
400
 20
1520
 11
410
 21
1520
  0
LINE
  5
132
100
AcDbEntity
  8
seam
  6
ByLayer
 62
  256
370
   -1
100
AcDbLine
 10
410
 20
1520
 11
410
 21
1530
  0
LINE
  5
133
100
AcDbEntity
  8
seam
  6
ByLayer
 62
  256
370
   -1
100
AcDbLine
 10
410
 20
1530
 11
490
 21
1530
  0
DIMENSION
  5
134
100
AcDbEntity
  8
dim
  6
ByLayer
 62
  256
370
   -1
100
AcDbDimension
  2
*D3
 10
500
 20
980
 30
0
 11
455
 21
998.75
 31
0
 70
   32
 71
    5
 72
    0
  3
Standard
 53
0
210
0
220
0
230
1
100
AcDbAlignedDimension
 13
410
 23
1140
 33
0
 14
500
 24
1040
 34
0
100
AcDbRotatedDimension
  0
DIMENSION
  5
135
100
AcDbEntity
  8
dim
  6
ByLayer
 62
  256
370
   -1
100
AcDbDimension
  2
*D4
 10
2600
 20
1150
 30
0
 11
2581.25
 21
1335
 31
0
 70
   32
 71
    5
 72
    0
  3
Standard
 53
0
210
0
220
0
230
1
100
AcDbAlignedDimension
 13
2460
 23
1520
 33
0
 14
2460
 24
1150
 34
0
 50
90
100
AcDbRotatedDimension
  0
DIMENSION
  5
136
100
AcDbEntity
  8
dim
  6
ByLayer
 62
  256
370
   -1
100
AcDbDimension
  2
*D5
 10
2600
 20
1060
 30
0
 11
2581.25
 21
1105
 31
0
 70
   32
 71
    5
 72
    0
  3
Standard
 53
0
210
0
220
0
230
1
100
AcDbAlignedDimension
 13
2460
 23
1150
 33
0
 14
2370
 24
1060
 34
0
 50
90
100
AcDbRotatedDimension
  0
DIMENSION
  5
137
100
AcDbEntity
  8
dim
  6
ByLayer
 62
  256
370
   -1
100
AcDbDimension
  2
*D6
 10
2600
 20
1610
 30
0
 11
2581.25
 21
1565
 31
0
 70
   32
 71
    5
 72
    0
  3
Standard
 53
0
210
0
220
0
230
1
100
AcDbAlignedDimension
 13
2460
 23
1520
 33
0
 14
2360
 24
1610
 34
0
 50
90
100
AcDbRotatedDimension
  0
DIMENSION
  5
138
100
AcDbEntity
  8
dim
  6
ByLayer
 62
  256
370
   -1
100
AcDbDimension
  2
*D7
 10
2600
 20
1980
 30
0
 11
2581.25
 21
1795
 31
0
 70
   32
 71
    5
 72
    0
  3
Standard
 53
0
210
0
220
0
230
1
100
AcDbAlignedDimension
 13
2360
 23
1610
 33
0
 14
2370
 24
1980
 34
0
 50
90
100
AcDbRotatedDimension
  0
LINE
  5
139
100
AcDbEntity
  8
seam
  6
ByLayer
 62
  256
370
   -1
100
AcDbLine
 10
870
 20
710
 11
880
 21
700
  0
LINE
  5
13A
100
AcDbEntity
  8
main
  6
ByLayer
 62
  256
370
   -1
100
AcDbLine
 10
700
 20
700
 11
200
 21
700
  0
LINE
  5
13B
100
AcDbEntity
  8
seam
  6
ByLayer
 62
  256
370
   -1
100
AcDbLine
 10
880
 20
300
 11
880
 21
700
  0
LINE
  5
13C
100
AcDbEntity
  8
seam
  6
ByLayer
 62
  256
370
   -1
100
AcDbLine
 10
880
 20
300
 11
870
 21
290
  0
LINE
  5
13D
100
AcDbEntity
  8
main
  6
ByLayer
 62
  256
370
   -1
100
AcDbLine
 10
200
 20
700
 11
280
 21
300
  0
LINE
  5
13E
100
AcDbEntity
  8
main
  6
ByLayer
 62
  256
370
   -1
100
AcDbLine
 10
280
 20
300
 11
700
 21
300
  0
LINE
  5
13F
100
AcDbEntity
  8
main
  6
ByLayer
 62
  256
370
   -1
100
AcDbLine
 10
700
 20
300
 11
700
 21
700
  0
LINE
  5
140
100
AcDbEntity
  8
main
  6
ByLayer
 62
  256
370
   -1
100
AcDbLine
 10
880
 20
700
 11
880
 21
740
  0
LINE
  5
141
100
AcDbEntity
  8
main
  6
ByLayer
 62
  256
370
   -1
100
AcDbLine
 10
840
 20
700
 11
880
 21
700
  0
LINE
  5
142
100
AcDbEntity
  8
main
  6
ByLayer
 62
  256
370
   -1
100
AcDbLine
 10
880
 20
300
 11
840
 21
300
  0
LINE
  5
143
100
AcDbEntity
  8
main
  6
ByLayer
 62
  256
370
   -1
100
AcDbLine
 10
840
 20
300
 11
840
 21
700
  0
LINE
  5
144
100
AcDbEntity
  8
main
  6
ByLayer
 62
  256
370
   -1
100
AcDbLine
 10
880
 20
260
 11
880
 21
300
  0
LINE
  5
145
100
AcDbEntity
  8
seam
  6
ByLayer
 62
  256
370
   -1
100
AcDbLine
 10
870
 20
240
 11
870
 21
290
  0
LINE
  5
146
100
AcDbEntity
  8
seam
  6
ByLayer
 62
  256
370
   -1
100
AcDbLine
 10
280
 20
300
 11
280
 21
280
  0
LINE
  5
147
100
AcDbEntity
  8
seam
  6
ByLayer
 62
  256
370
   -1
100
AcDbLine
 10
280
 20
300
 11
270
 21
300
  0
LINE
  5
148
100
AcDbEntity
  8
seam
  6
ByLayer
 62
  256
370
   -1
100
AcDbLine
 10
700
 20
280
 11
700
 21
300
  0
LINE
  5
149
100
AcDbEntity
  8
seam
  6
ByLayer
 62
  256
370
   -1
100
AcDbLine
 10
700
 20
280
 11
280
 21
280
  0
LINE
  5
14A
100
AcDbEntity
  8
seam
  6
ByLayer
 62
  256
370
   -1
100
AcDbLine
 10
700
 20
300
 11
710
 21
300
  0
LINE
  5
14B
100
AcDbEntity
  8
seam
  6
ByLayer
 62
  256
370
   -1
100
AcDbLine
 10
710
 20
700
 11
700
 21
700
  0
LINE
  5
14C
100
AcDbEntity
  8
seam
  6
ByLayer
 62
  256
370
   -1
100
AcDbLine
 10
710
 20
700
 11
710
 21
300
  0
LINE
  5
14D
100
AcDbEntity
  8
seam
  6
ByLayer
 62
  256
370
   -1
100
AcDbLine
 10
700
 20
700
 11
700
 21
710
  0
LINE
  5
14E
100
AcDbEntity
  8
seam
  6
ByLayer
 62
  256
370
   -1
100
AcDbLine
 10
200
 20
700
 11
200
 21
710
  0
LINE
  5
14F
100
AcDbEntity
  8
seam
  6
ByLayer
 62
  256
370
   -1
100
AcDbLine
 10
700
 20
710
 11
200
 21
710
  0
LINE
  5
150
100
AcDbEntity
  8
seam
  6
ByLayer
 62
  256
370
   -1
100
AcDbLine
 10
200
 20
700
 11
190
 21
700
  0
LINE
  5
151
100
AcDbEntity
  8
seam
  6
ByLayer
 62
  256
370
   -1
100
AcDbLine
 10
190
 20
700
 11
270
 21
300
  0
LINE
  5
152
100
AcDbEntity
  8
seam
  6
ByLayer
 62
  256
370
   -1
100
AcDbLine
 10
880
 20
740
 11
880
 21
750
  0
LINE
  5
153
100
AcDbEntity
  8
seam
  6
ByLayer
 62
  256
370
   -1
100
AcDbLine
 10
870
 20
740
 11
880
 21
740
  0
LINE
  5
154
100
AcDbEntity
  8
seam
  6
ByLayer
 62
  256
370
   -1
100
AcDbLine
 10
870
 20
710
 11
870
 21
740
  0
LINE
  5
155
100
AcDbEntity
  8
seam
  6
ByLayer
 62
  256
370
   -1
100
AcDbLine
 10
840
 20
700
 11
840
 21
710
  0
LINE
  5
156
100
AcDbEntity
  8
seam
  6
ByLayer
 62
  256
370
   -1
100
AcDbLine
 10
840
 20
710
 11
870
 21
710
  0
LINE
  5
157
100
AcDbEntity
  8
seam
  6
ByLayer
 62
  256
370
   -1
100
AcDbLine
 10
830
 20
700
 11
840
 21
700
  0
LINE
  5
158
100
AcDbEntity
  8
seam
  6
ByLayer
 62
  256
370
   -1
100
AcDbLine
 10
830
 20
300
 11
840
 21
300
  0
LINE
  5
159
100
AcDbEntity
  8
seam
  6
ByLayer
 62
  256
370
   -1
100
AcDbLine
 10
830
 20
300
 11
830
 21
700
  0
LINE
  5
15A
100
AcDbEntity
  8
seam
  6
ByLayer
 62
  256
370
   -1
100
AcDbLine
 10
840
 20
300
 11
840
 21
290
  0
LINE
  5
15B
100
AcDbEntity
  8
seam
  6
ByLayer
 62
  256
370
   -1
100
AcDbLine
 10
870
 20
290
 11
840
 21
290
  0
DIMENSION
  5
15C
100
AcDbEntity
  8
dim
  6
ByLayer
 62
  256
370
   -1
100
AcDbDimension
  2
*D8
 10
800
 20
700
 30
0
 11
781.25
 21
720
 31
0
 70
   32
 71
    5
 72
    0
  3
Standard
 53
0
210
0
220
0
230
1
100
AcDbAlignedDimension
 13
870
 23
740
 33
0
 14
830
 24
700
 34
0
 50
90
100
AcDbRotatedDimension
  0
DIMENSION
  5
15D
100
AcDbEntity
  8
dim
  6
ByLayer
 62
  256
370
   -1
100
AcDbDimension
  2
*D9
 10
800
 20
300
 30
0
 11
781.25
 21
500
 31
0
 70
   32
 71
    5
 72
    0
  3
Standard
 53
0
210
0
220
0
230
1
100
AcDbAlignedDimension
 13
830
 23
700
 33
0
 14
830
 24
300
 34
0
 50
90
100
AcDbRotatedDimension
  0
DIMENSION
  5
15E
100
AcDbEntity
  8
dim
  6
ByLayer
 62
  256
370
   -1
100
AcDbDimension
  2
*D10
 10
800
 20
260
 30
0
 11
781.25
 21
280
 31
0
 70
   32
 71
    5
 72
    0
  3
Standard
 53
0
210
0
220
0
230
1
100
AcDbAlignedDimension
 13
830
 23
300
 33
0
 14
880
 24
260
 34
0
 50
90
100
AcDbRotatedDimension
  0
LINE
  5
15F
100
AcDbEntity
  8
symmetry
  6
ByLayer
 62
  256
370
   -1
100
AcDbLine
 10
710
 20
700
 11
790
 21
700
  0
LINE
  5
160
100
AcDbEntity
  8
symmetry
  6
ByLayer
 62
  256
370
   -1
100
AcDbLine
 10
710
 20
300
 11
780
 21
300
  0
DIMENSION
  5
161
100
AcDbEntity
  8
dim
  6
ByLayer
 62
  256
370
   -1
100
AcDbDimension
  2
*D11
 10
280
 20
200
 30
0
 11
235
 21
218.75
 31
0
 70
   32
 71
    5
 72
    0
  3
Standard
 53
0
210
0
220
0
230
1
100
AcDbAlignedDimension
 13
190
 23
700
 33
0
 14
280
 24
280
 34
0
100
AcDbRotatedDimension
  0
DIMENSION
  5
162
100
AcDbEntity
  8
dim
  6
ByLayer
 62
  256
370
   -1
100
AcDbDimension
  2
*D12
 10
700
 20
200
 30
0
 11
490
 21
218.75
 31
0
 70
   32
 71
    5
 72
    0
  3
Standard
 53
0
210
0
220
0
230
1
100
AcDbAlignedDimension
 13
280
 23
280
 33
0
 14
700
 24
280
 34
0
100
AcDbRotatedDimension
  0
DIMENSION
  5
163
100
AcDbEntity
  8
dim
  6
ByLayer
 62
  256
370
   -1
100
AcDbDimension
  2
*D13
 10
880
 20
200
 30
0
 11
860
 21
218.75
 31
0
 70
   32
 71
    5
 72
    0
  3
Standard
 53
0
210
0
220
0
230
1
100
AcDbAlignedDimension
 13
840
 23
290
 33
0
 14
880
 24
260
 34
0
100
AcDbRotatedDimension
  0
DIMENSION
  5
164
100
AcDbEntity
  8
dim
  6
ByLayer
 62
  256
370
   -1
100
AcDbDimension
  2
*D14
 10
700
 20
780
 30
0
 11
450
 21
798.75
 31
0
 70
   32
 71
    5
 72
    0
  3
Standard
 53
0
210
0
220
0
230
1
100
AcDbAlignedDimension
 13
200
 23
700
 33
0
 14
700
 24
700
 34
0
100
AcDbRotatedDimension
  0
LINE
  5
165
100
AcDbEntity
  8
seam
  6
ByLayer
 62
  256
370
   -1
100
AcDbLine
 10
880
 20
700
 11
1380
 21
700
  0
LINE
  5
166
100
AcDbEntity
  8
seam
  6
ByLayer
 62
  256
370
   -1
100
AcDbLine
 10
1380
 20
700
 11
1390
 21
710
  0
LINE
  5
167
100
AcDbEntity
  8
seam
  6
ByLayer
 62
  256
370
   -1
100
AcDbLine
 10
1300
 20
300
 11
880
 21
300
  0
LINE
  5
168
100
AcDbEntity
  8
seam
  6
ByLayer
 62
  256
370
   -1
100
AcDbLine
 10
1300
 20
300
 11
1310
 21
290
  0
LINE
  5
169
100
AcDbEntity
  8
seam
  6
ByLayer
 62
  256
370
   -1
100
AcDbLine
 10
1380
 20
700
 11
1300
 21
300
  0
LINE
  5
16A
100
AcDbEntity
  8
main
  6
ByLayer
 62
  256
370
   -1
100
AcDbLine
 10
880
 20
740
 11
1380
 21
740
  0
LINE
  5
16B
100
AcDbEntity
  8
main
  6
ByLayer
 62
  256
370
   -1
100
AcDbLine
 10
1380
 20
740
 11
1380
 21
700
  0
LINE
  5
16C
100
AcDbEntity
  8
main
  6
ByLayer
 62
  256
370
   -1
100
AcDbLine
 10
1300
 20
300
 11
1300
 21
260
  0
LINE
  5
16D
100
AcDbEntity
  8
main
  6
ByLayer
 62
  256
370
   -1
100
AcDbLine
 10
1300
 20
260
 11
880
 21
260
  0
LINE
  5
16E
100
AcDbEntity
  8
main
  6
ByLayer
 62
  256
370
   -1
100
AcDbLine
 10
1340
 20
300
 11
1300
 21
300
  0
LINE
  5
16F
100
AcDbEntity
  8
main
  6
ByLayer
 62
  256
370
   -1
100
AcDbLine
 10
1380
 20
700
 11
1420
 21
700
  0
LINE
  5
170
100
AcDbEntity
  8
main
  6
ByLayer
 62
  256
370
   -1
100
AcDbLine
 10
1420
 20
700
 11
1340
 21
300
  0
LINE
  5
171
100
AcDbEntity
  8
seam
  6
ByLayer
 62
  256
370
   -1
100
AcDbLine
 10
1300
 20
240
 11
1300
 21
260
  0
LINE
  5
172
100
AcDbEntity
  8
seam
  6
ByLayer
 62
  256
370
   -1
100
AcDbLine
 10
1300
 20
240
 11
870
 21
240
  0
LINE
  5
173
100
AcDbEntity
  8
seam
  6
ByLayer
 62
  256
370
   -1
100
AcDbLine
 10
1300
 20
260
 11
1310
 21
260
  0
LINE
  5
174
100
AcDbEntity
  8
seam
  6
ByLayer
 62
  256
370
   -1
100
AcDbLine
 10
1310
 20
290
 11
1310
 21
260
  0
LINE
  5
175
100
AcDbEntity
  8
seam
  6
ByLayer
 62
  256
370
   -1
100
AcDbLine
 10
1340
 20
290
 11
1340
 21
300
  0
LINE
  5
176
100
AcDbEntity
  8
seam
  6
ByLayer
 62
  256
370
   -1
100
AcDbLine
 10
1340
 20
290
 11
1310
 21
290
  0
LINE
  5
177
100
AcDbEntity
  8
seam
  6
ByLayer
 62
  256
370
   -1
100
AcDbLine
 10
1340
 20
300
 11
1350
 21
300
  0
LINE
  5
178
100
AcDbEntity
  8
seam
  6
ByLayer
 62
  256
370
   -1
100
AcDbLine
 10
1428.048780487805
 20
700
 11
1350
 21
300
  0
LINE
  5
179
100
AcDbEntity
  8
seam
  6
ByLayer
 62
  256
370
   -1
100
AcDbLine
 10
1420
 20
700
 11
1428.048780487805
 21
700
  0
LINE
  5
17A
100
AcDbEntity
  8
seam
  6
ByLayer
 62
  256
370
   -1
100
AcDbLine
 10
1420
 20
710
 11
1420
 21
700
  0
LINE
  5
17B
100
AcDbEntity
  8
seam
  6
ByLayer
 62
  256
370
   -1
100
AcDbLine
 10
1390
 20
710
 11
1420
 21
710
  0
LINE
  5
17C
100
AcDbEntity
  8
seam
  6
ByLayer
 62
  256
370
   -1
100
AcDbLine
 10
1390
 20
740
 11
1390
 21
710
  0
LINE
  5
17D
100
AcDbEntity
  8
seam
  6
ByLayer
 62
  256
370
   -1
100
AcDbLine
 10
1380
 20
740
 11
1390
 21
740
  0
LINE
  5
17E
100
AcDbEntity
  8
seam
  6
ByLayer
 62
  256
370
   -1
100
AcDbLine
 10
1380
 20
750
 11
1380
 21
740
  0
LINE
  5
17F
100
AcDbEntity
  8
seam
  6
ByLayer
 62
  256
370
   -1
100
AcDbLine
 10
880
 20
750
 11
1380
 21
750
  0
DIMENSION
  5
180
100
AcDbEntity
  8
dim
  6
ByLayer
 62
  256
370
   -1
100
AcDbDimension
  2
*D15
 10
1280
 20
200
 30
0
 11
1090
 21
218.75
 31
0
 70
   32
 71
    5
 72
    0
  3
Standard
 53
0
210
0
220
0
230
1
100
AcDbAlignedDimension
 13
880
 23
240
 33
0
 14
1300
 24
240
 34
0
100
AcDbRotatedDimension
  0
DIMENSION
  5
181
100
AcDbEntity
  8
dim
  6
ByLayer
 62
  256
370
   -1
100
AcDbDimension
  2
*D16
 10
1320
 20
200
 30
0
 11
1320
 21
218.75
 31
0
 70
   32
 71
    5
 72
    0
  3
Standard
 53
0
210
0
220
0
230
1
100
AcDbAlignedDimension
 13
1300
 23
240
 33
0
 14
1340
 24
290
 34
0
100
AcDbRotatedDimension
  0
DIMENSION
  5
182
100
AcDbEntity
  8
dim
  6
ByLayer
 62
  256
370
   -1
100
AcDbDimension
  2
*D17
 10
1400
 20
780
 30
0
 11
1130
 21
798.75
 31
0
 70
   32
 71
    5
 72
    0
  3
Standard
 53
0
210
0
220
0
230
1
100
AcDbAlignedDimension
 13
840
 23
700
 33
0
 14
1420
 24
700
 34
0
100
AcDbRotatedDimension
  0
LEADER
  5
183
100
AcDbEntity
  8
dim
  6
ByLayer
 62
  256
370
   -1
100
AcDbLeader
  3
Standard
 71
    1
 72
    0
 73
    3
 74
    0
 75
    0
 40
1
 41
10
 76
3
 76
3
 10
1500
 20
500
 30
0
 10
1800
 20
700
 30
0
 10
2000
 20
700
 30
0
  0
MTEXT
  5
184
100
AcDbEntity
  8
dim
  6
ByLayer
 62
  256
370
   -1
100
AcDbMText
 10
1800
 20
800
 30
0
 40
30
 41
925.3666666666664
 71
    1
 72
    1
  1
This is side cusion for left side.\PFor right side a mirror copy is required.
  7
iso3098
210
0
220
0
230
1
 50
0
 73
    2
 44
1
  0
LWPOLYLINE
  5
185
100
AcDbEntity
  8
zipper
  6
ByLayer
 62
  256
370
   -1
100
AcDbPolyline
 90
    4
 70
    1
 43
0
 10
280
 20
300
 10
700
 20
300
 10
700
 20
280
 10
280
 20
280
  0
LWPOLYLINE
  5
186
100
AcDbEntity
  8
zipper
  6
ByLayer
 62
  256
370
   -1
100
AcDbPolyline
 90
    4
 70
    1
 43
0
 10
880
 20
260
 10
1300
 20
260
 10
1300
 20
240
 10
880
 20
240
  0
LWPOLYLINE
  5
187
100
AcDbEntity
  8
zipper
  6
ByLayer
 62
  256
370
   -1
100
AcDbPolyline
 90
    4
 70
    1
 43
0
 10
500
 20
1060
 10
2360
 20
1060
 10
2360
 20
1040
 10
500
 20
1040
  0
LWPOLYLINE
  5
188
100
AcDbEntity
  8
zipper
  6
ByLayer
 62
  256
370
   -1
100
AcDbPolyline
 90
    4
 70
    1
 43
0
 10
500
 20
2000
 10
2360
 20
2000
 10
2360
 20
1980
 10
500
 20
1980
  0
MTEXT
  5
189
100
AcDbEntity
  8
template-thick
  6
ByLayer
 62
  256
370
   -1
100
AcDbMText
 10
1755.555555555556
 20
240
 30
0
 40
40
 41
870.5777777777781
 71
    1
 72
    1
  1
Saloon back and sides
  7
iso3098_i
210
0
220
0
230
1
 50
0
 73
    2
 44
1
  0
MTEXT
  5
18A
100
AcDbEntity
  8
template-thin
  6
ByLayer
 62
  256
370
   -1
100
AcDbMText
 10
1570
 20
150
 30
0
 40
30
 41
69.99998727987105
 71
    1
 72
    1
  1
SBS\P1/1
  7
standard
210
0
220
0
230
1
 50
0
 73
    2
 44
1
  0
ENDSEC
  0
SECTION
  2
OBJECTS
  0
DICTIONARY
  5
C
330
0
100
AcDbDictionary
281
    1
  3
ACAD_GROUP
350
D
  0
DICTIONARY
  5
D
330
C
100
AcDbDictionary
281
    1
  0
ENDSEC
  0
EOF
