999
dxfrw 0.6.3
  0
SECTION
  2
HEADER
  9
$ACADVER
  1
AC1021
  9
$DWGCODEPAGE
  3
ANSI_1252
  9
$INSBASE
 10
0
 20
0
 30
0
  9
$EXTMIN
 10
10000000000
 20
10000000000
 30
0
  9
$EXTMAX
 10
-10000000000
 20
-10000000000
 30
0
  9
$LIMMIN
 10
0
 20
0
  9
$LIMMAX
 10
420
 20
297
  9
$ORTHOMODE
 70
    0
  9
$REGENMODE
 70
    1
  9
$FILLMODE
 70
    1
  9
$QTEXTMODE
 70
    0
  9
$MIRRTEXT
 70
    0
  9
$LTSCALE
 40
1
  9
$ATTMODE
 70
    0
  9
$TEXTSIZE
 40
2.5
  9
$TRACEWID
 40
15.68
  9
$TEXTSTYLE
  7
STANDARD
  9
$CLAYER
  8
dim
  9
$CELTYPE
  6
BYLAYER
  9
$CECOLOR
 62
  256
  9
$CELTSCALE
 40
1
  9
$DISPSILH
 70
    0
  9
$DIMSCALE
 40
10
  9
$DIMASZ
 40
2.5
  9
$DIMEXO
 40
0.625
  9
$DIMDLI
 40
3.75
  9
$DIMRND
 40
0
  9
$DIMDLE
 40
0
  9
$DIMEXE
 40
1.25
  9
$DIMTP
 40
0
  9
$DIMTM
 40
0
  9
$DIMTXT
 40
2.5
  9
$DIMCEN
 40
2.5
  9
$DIMTSZ
 40
0
  9
$DIMTOL
 70
    0
  9
$DIMLIM
 70
    0
  9
$DIMTIH
 70
    0
  9
$DIMTOH
 70
    0
  9
$DIMSE1
 70
    0
  9
$DIMSE2
 70
    0
  9
$DIMTAD
 70
    1
  9
$DIMZIN
 70
    1
  9
$DIMBLK
  1

  9
$DIMASO
 70
    1
  9
$DIMSHO
 70
    1
  9
$DIMPOST
  1

  9
$DIMAPOST
  1

  9
$DIMALT
 70
    0
  9
$DIMALTD
 70
    3
  9
$DIMALTF
 40
0.03937
  9
$DIMLFAC
 40
1
  9
$DIMTOFL
 70
    1
  9
$DIMTVP
 40
0
  9
$DIMTIX
 70
    0
  9
$DIMSOXD
 70
    0
  9
$DIMSAH
 70
    0
  9
$DIMBLK1
  1

  9
$DIMBLK2
  1

  9
$DIMSTYLE
  2
STANDARD
  9
$DIMCLRD
 70
    0
  9
$DIMCLRE
 70
    0
  9
$DIMCLRT
 70
    0
  9
$DIMTFAC
 40
1
  9
$DIMGAP
 40
0.625
  9
$DIMJUST
 70
    0
  9
$DIMSD1
 70
    0
  9
$DIMSD2
 70
    0
  9
$DIMTOLJ
 70
    0
  9
$DIMTZIN
 70
    8
  9
$DIMALTZ
 70
    0
  9
$DIMALTTZ
 70
    0
  9
$DIMUPT
 70
    0
  9
$DIMDEC
 70
    0
  9
$DIMTDEC
 70
    2
  9
$DIMALTU
 70
    2
  9
$DIMALTTD
 70
    3
  9
$DIMTXSTY
  7
standard
  9
$DIMAUNIT
 70
    0
  9
$DIMADEC
 70
    0
  9
$DIMALTRND
 40
0
  9
$DIMAZIN
 70
    0
  9
$DIMDSEP
 70
    0
  9
$DIMATFIT
 70
    3
  9
$DIMFRAC
 70
    0
  9
$DIMLDRBLK
  1
STANDARD
  9
$DIMLUNIT
 70
    2
  9
$DIMLWD
 70
   -2
  9
$DIMLWE
 70
   -2
  9
$DIMTMOVE
 70
    0
  9
$DIMFXL
 40
1
  9
$DIMFXLON
 70
    0
  9
$DIMJOGANG
 40
0.7854
  9
$DIMTFILL
 70
    0
  9
$DIMTFILLCLR
 70
    0
  9
$DIMARCSYM
 70
    0
  9
$DIMLTYPE
  6

  9
$DIMLTEX1
  6

  9
$DIMLTEX2
  6

  9
$LUNITS
 70
    2
  9
$LUPREC
 70
    4
  9
$SKETCHINC
 40
1
  9
$FILLETRAD
 40
0
  9
$AUNITS
 70
    0
  9
$AUPREC
 70
    2
  9
$MENU
  1
.
  9
$ELEVATION
 40
0
  9
$PELEVATION
 40
0
  9
$THICKNESS
 40
0
  9
$LIMCHECK
 70
    0
  9
$CHAMFERA
 40
0
  9
$CHAMFERB
 40
0
  9
$CHAMFERC
 40
0
  9
$CHAMFERD
 40
0
  9
$SKPOLY
 70
    0
  9
$USRTIMER
 70
    1
  9
$ANGBASE
 50
0
  9
$ANGDIR
 70
    0
  9
$PDMODE
 70
   34
  9
$PDSIZE
 40
0
  9
$PLINEWID
 40
0
  9
$SPLFRAME
 70
    0
  9
$SPLINETYPE
 70
    2
  9
$SPLINESEGS
 70
    8
  9
$HANDSEED
  5
20000
  9
$SURFTAB1
 70
    6
  9
$SURFTAB2
 70
    6
  9
$SURFTYPE
 70
    6
  9
$SURFU
 70
    6
  9
$SURFV
 70
    6
  9
$UCSBASE
  2

  9
$UCSNAME
  2

  9
$UCSORG
 10
0
 20
0
 30
0
  9
$UCSXDIR
 10
1
 20
0
 30
0
  9
$UCSYDIR
 10
0
 20
1
 30
0
  9
$UCSORTHOREF
  2

  9
$UCSORTHOVIEW
 70
    0
  9
$UCSORGTOP
 10
0
 20
0
 30
0
  9
$UCSORGBOTTOM
 10
0
 20
0
 30
0
  9
$UCSORGLEFT
 10
0
 20
0
 30
0
  9
$UCSORGRIGHT
 10
0
 20
0
 30
0
  9
$UCSORGFRONT
 10
0
 20
0
 30
0
  9
$UCSORGBACK
 10
0
 20
0
 30
0
  9
$PUCSBASE
  2

  9
$PUCSNAME
  2

  9
$PUCSORG
 10
0
 20
0
 30
0
  9
$PUCSXDIR
 10
1
 20
0
 30
0
  9
$PUCSYDIR
 10
0
 20
1
 30
0
  9
$PUCSORTHOREF
  2

  9
$PUCSORTHOVIEW
 70
    0
  9
$PUCSORGTOP
 10
0
 20
0
 30
0
  9
$PUCSORGBOTTOM
 10
0
 20
0
 30
0
  9
$PUCSORGLEFT
 10
0
 20
0
 30
0
  9
$PUCSORGRIGHT
 10
0
 20
0
 30
0
  9
$PUCSORGFRONT
 10
0
 20
0
 30
0
  9
$PUCSORGBACK
 10
0
 20
0
 30
0
  9
$USERI1
 70
    0
  9
$USERI2
 70
    0
  9
$USERI3
 70
    0
  9
$USERI4
 70
    0
  9
$USERI5
 70
    0
  9
$USERR1
 40
0
  9
$USERR2
 40
0
  9
$USERR3
 40
0
  9
$USERR4
 40
0
  9
$USERR5
 40
0
  9
$WORLDVIEW
 70
    1
  9
$SHADEDGE
 70
    3
  9
$SHADEDIF
 70
   70
  9
$TILEMODE
 70
    1
  9
$MAXACTVP
 70
   64
  9
$PINSBASE
 10
0
 20
0
 30
0
  9
$PLIMCHECK
 70
    0
  9
$PEXTMIN
 10
0
 20
0
 30
0
  9
$PEXTMAX
 10
0
 20
0
 30
0
  9
$GRIDMODE
 70
    1
  9
$SNAPSTYLE
 70
    0
  9
$GRIDUNIT
 10
0
 20
0
  9
$PLIMMIN
 10
0
 20
0
  9
$PLIMMAX
 10
297
 20
210
  9
$UNITMODE
 70
    0
  9
$VISRETAIN
 70
    1
  9
$PLINEGEN
 70
    0
  9
$PSLTSCALE
 70
    1
  9
$TREEDEPTH
 70
 3020
  9
$CMLSTYLE
  2
Standard
  9
$CMLJUST
 70
    0
  9
$CMLSCALE
 40
20
  9
$PROXYGRAPHICS
 70
    1
  9
$MEASUREMENT
 70
    1
  9
$CELWEIGHT
370
   -1
  9
$ENDCAPS
280
    0
  9
$JOINSTYLE
280
    0
  9
$LWDISPLAY
290
    0
  9
$INSUNITS
 70
    4
  9
$HYPERLINKBASE
  1

  9
$STYLESHEET
  1

  9
$XEDIT
290
    1
  9
$CEPSNTYPE
380
    0
  9
$PSTYLEMODE
290
    1
  9
$EXTNAMES
290
    1
  9
$PSVPSCALE
 40
0.1
  9
$OLESTARTUP
290
    0
  9
$SORTENTS
280
  127
  9
$INDEXCTL
280
    0
  9
$HIDETEXT
280
    1
  9
$XCLIPFRAME
290
    0
  9
$HALOGAP
280
    0
  9
$OBSCOLOR
 70
  257
  9
$OBSLTYPE
280
    0
  9
$INTERSECTIONDISPLAY
280
    0
  9
$INTERSECTIONCOLOR
 70
  257
  9
$DIMASSOC
280
    1
  9
$PROJECTNAME
  1

  9
$CAMERADISPLAY
290
    0
  9
$LENSLENGTH
 40
50
  9
$CAMERAHEIGHT
 40
0
  9
$STEPSPERSEC
 40
2
  9
$STEPSIZE
 40
50
  9
$3DDWFPREC
 40
2
  9
$PSOLWIDTH
 40
5
  9
$PSOLHEIGHT
 40
80
  9
$LOFTANG1
 40
1.570796326794897
  9
$LOFTANG2
 40
1.570796326794897
  9
$LOFTMAG1
 40
0
  9
$LOFTMAG2
 40
0
  9
$LOFTPARAM
 70
    7
  9
$LOFTNORMALS
280
    1
  9
$LATITUDE
 40
1
  9
$LONGITUDE
 40
1
  9
$NORTHDIRECTION
 40
0
  9
$TIMEZONE
 70
-8000
  9
$LIGHTGLYPHDISPLAY
280
    1
  9
$TILEMODELIGHTSYNCH
280
    1
  9
$SOLIDHIST
280
    1
  9
$SHOWHIST
280
    1
  9
$DWFFRAME
280
    2
  9
$DGNFRAME
280
    0
  9
$REALWORLDSCALE
290
    1
  9
$INTERFERECOLOR
 62
    1
  9
$CSHADOW
280
    0
  9
$SHADOWPLANELOCATION
 40
0
  0
ENDSEC
  0
SECTION
  2
CLASSES
  0
ENDSEC
  0
SECTION
  2
TABLES
  0
TABLE
  2
VPORT
  5
8
330
0
100
AcDbSymbolTable
 70
    1
  0
VPORT
  5
31
330
2
100
AcDbSymbolTableRecord
100
AcDbViewportTableRecord
  2
*ACTIVE
 70
    0
 10
0
 20
0
 11
1
 21
1
 12
1905.764328730797
 22
1362.498682329903
 13
0
 23
0
 14
10
 24
10
 15
10
 25
10
 16
0
 26
0
 36
1
 17
0
 27
0
 37
0
 40
2597.850085714916
 41
1.707452725250278
 42
50
 43
0
 44
0
 50
0
 51
0
 71
    0
 72
  100
 73
    1
 74
    3
 75
    0
 76
    1
 77
    0
 78
    0
281
    0
 65
    1
110
0
120
0
130
0
111
1
121
0
131
0
112
0
122
1
132
0
 79
    0
146
0
348
10020
 60
    7
 61
    5
292
1
282
    1
141
0
142
0
 63
  250
421
3358443
  0
ENDTAB
  0
TABLE
  2
LTYPE
  5
5
330
0
100
AcDbSymbolTable
 70
    4
  0
LTYPE
  5
14
330
5
100
AcDbSymbolTableRecord
100
AcDbLinetypeTableRecord
  2
ByBlock
 70
    0
  3

 72
   65
 73
    0
 40
0
  0
LTYPE
  5
15
330
5
100
AcDbSymbolTableRecord
100
AcDbLinetypeTableRecord
  2
ByLayer
 70
    0
  3

 72
   65
 73
    0
 40
0
  0
LTYPE
  5
16
330
5
100
AcDbSymbolTableRecord
100
AcDbLinetypeTableRecord
  2
Continuous
 70
    0
  3
Solid line
 72
   65
 73
    0
 40
0
  0
LTYPE
  5
32
330
5
100
AcDbSymbolTableRecord
100
AcDbLinetypeTableRecord
  2
DOT
 70
    0
  3
Dot . . . . . . . . . . . . . . . . . . . . . .
 72
   65
 73
    2
 40
6.35
 49
0
 74
    0
 49
-6.35
 74
    0
  0
LTYPE
  5
33
330
5
100
AcDbSymbolTableRecord
100
AcDbLinetypeTableRecord
  2
DOTTINY
 70
    0
  3
Dot (.15x) .....................................
 72
   65
 73
    2
 40
0.9525
 49
0
 74
    0
 49
-0.9525
 74
    0
  0
LTYPE
  5
34
330
5
100
AcDbSymbolTableRecord
100
AcDbLinetypeTableRecord
  2
DOT2
 70
    0
  3
Dot (.5x) .....................................
 72
   65
 73
    2
 40
3.175
 49
0
 74
    0
 49
-3.175
 74
    0
  0
LTYPE
  5
35
330
5
100
AcDbSymbolTableRecord
100
AcDbLinetypeTableRecord
  2
DOTX2
 70
    0
  3
Dot (2x) .  .  .  .  .  .  .  .  .  .  .  .  .
 72
   65
 73
    2
 40
12.7
 49
0
 74
    0
 49
-12.7
 74
    0
  0
LTYPE
  5
36
330
5
100
AcDbSymbolTableRecord
100
AcDbLinetypeTableRecord
  2
DASHED
 70
    0
  3
Dashed _ _ _ _ _ _ _ _ _ _ _ _ _ _ _ _ _
 72
   65
 73
    2
 40
19.05
 49
12.7
 74
    0
 49
-6.35
 74
    0
  0
LTYPE
  5
37
330
5
100
AcDbSymbolTableRecord
100
AcDbLinetypeTableRecord
  2
DASHEDTINY
 70
    0
  3
Dashed (.15x) _ _ _ _ _ _ _ _ _ _ _ _ _ _ _ _ _
 72
   65
 73
    2
 40
2.8575
 49
1.905
 74
    0
 49
-0.9525
 74
    0
  0
LTYPE
  5
38
330
5
100
AcDbSymbolTableRecord
100
AcDbLinetypeTableRecord
  2
DASHED2
 70
    0
  3
Dashed (.5x) _ _ _ _ _ _ _ _ _ _ _ _ _ _ _ _ _
 72
   65
 73
    2
 40
9.524999999999999
 49
6.35
 74
    0
 49
-3.175
 74
    0
  0
LTYPE
  5
39
330
5
100
AcDbSymbolTableRecord
100
AcDbLinetypeTableRecord
  2
DASHEDX2
 70
    0
  3
Dashed (2x) ____  ____  ____  ____  ____  ___
 72
   65
 73
    2
 40
38.09999999999999
 49
25.4
 74
    0
 49
-12.7
 74
    0
  0
LTYPE
  5
3A
330
5
100
AcDbSymbolTableRecord
100
AcDbLinetypeTableRecord
  2
DASHDOT
 70
    0
  3
Dash dot __ . __ . __ . __ . __ . __ . __ . __
 72
   65
 73
    4
 40
25.4
 49
12.7
 74
    0
 49
-6.35
 74
    0
 49
0
 74
    0
 49
-6.35
 74
    0
  0
LTYPE
  5
3B
330
5
100
AcDbSymbolTableRecord
100
AcDbLinetypeTableRecord
  2
DASHDOTTINY
 70
    0
  3
Dash dot (.15x) _._._._._._._._._._._._._._._.
 72
   65
 73
    4
 40
3.81
 49
1.905
 74
    0
 49
-0.9525
 74
    0
 49
0
 74
    0
 49
-0.9525
 74
    0
  0
LTYPE
  5
3C
330
5
100
AcDbSymbolTableRecord
100
AcDbLinetypeTableRecord
  2
DASHDOT2
 70
    0
  3
Dash dot (.5x) _._._._._._._._._._._._._._._.
 72
   65
 73
    4
 40
12.7
 49
6.35
 74
    0
 49
-3.175
 74
    0
 49
0
 74
    0
 49
-3.175
 74
    0
  0
LTYPE
  5
3D
330
5
100
AcDbSymbolTableRecord
100
AcDbLinetypeTableRecord
  2
DASHDOTX2
 70
    0
  3
Dash dot (2x) ____  .  ____  .  ____  .  ___
 72
   65
 73
    4
 40
50.8
 49
25.4
 74
    0
 49
-12.7
 74
    0
 49
0
 74
    0
 49
-12.7
 74
    0
  0
LTYPE
  5
3E
330
5
100
AcDbSymbolTableRecord
100
AcDbLinetypeTableRecord
  2
DIVIDE
 70
    0
  3
Divide ____ . . ____ . . ____ . . ____ . . ____
 72
   65
 73
    6
 40
31.75
 49
12.7
 74
    0
 49
-6.35
 74
    0
 49
0
 74
    0
 49
-6.35
 74
    0
 49
0
 74
    0
 49
-6.35
 74
    0
  0
LTYPE
  5
3F
330
5
100
AcDbSymbolTableRecord
100
AcDbLinetypeTableRecord
  2
DIVIDETINY
 70
    0
  3
Divide (.15x) __..__..__..__..__..__..__..__.._
 72
   65
 73
    6
 40
4.7625
 49
1.905
 74
    0
 49
-0.9525
 74
    0
 49
0
 74
    0
 49
-0.9525
 74
    0
 49
0
 74
    0
 49
-0.9525
 74
    0
  0
LTYPE
  5
40
330
5
100
AcDbSymbolTableRecord
100
AcDbLinetypeTableRecord
  2
DIVIDE2
 70
    0
  3
Divide (.5x) __..__..__..__..__..__..__..__.._
 72
   65
 73
    6
 40
15.875
 49
6.35
 74
    0
 49
-3.175
 74
    0
 49
0
 74
    0
 49
-3.175
 74
    0
 49
0
 74
    0
 49
-3.175
 74
    0
  0
LTYPE
  5
41
330
5
100
AcDbSymbolTableRecord
100
AcDbLinetypeTableRecord
  2
DIVIDEX2
 70
    0
  3
Divide (2x) ________  .  .  ________  .  .  _
 72
   65
 73
    6
 40
63.5
 49
25.4
 74
    0
 49
-12.7
 74
    0
 49
0
 74
    0
 49
-12.7
 74
    0
 49
0
 74
    0
 49
-12.7
 74
    0
  0
LTYPE
  5
42
330
5
100
AcDbSymbolTableRecord
100
AcDbLinetypeTableRecord
  2
BORDER
 70
    0
  3
Border __ __ . __ __ . __ __ . __ __ . __ __ .
 72
   65
 73
    6
 40
44.45
 49
12.7
 74
    0
 49
-6.35
 74
    0
 49
12.7
 74
    0
 49
-6.35
 74
    0
 49
0
 74
    0
 49
-6.35
 74
    0
  0
LTYPE
  5
43
330
5
100
AcDbSymbolTableRecord
100
AcDbLinetypeTableRecord
  2
BORDERTINY
 70
    0
  3
Border (.15x) __.__.__.__.__.__.__.__.__.__.__.
 72
   65
 73
    6
 40
6.6675
 49
1.905
 74
    0
 49
-0.9525
 74
    0
 49
1.905
 74
    0
 49
-0.9525
 74
    0
 49
0
 74
    0
 49
-0.9525
 74
    0
  0
LTYPE
  5
44
330
5
100
AcDbSymbolTableRecord
100
AcDbLinetypeTableRecord
  2
BORDER2
 70
    0
  3
Border (.5x) __.__.__.__.__.__.__.__.__.__.__.
 72
   65
 73
    6
 40
22.225
 49
6.35
 74
    0
 49
-3.175
 74
    0
 49
6.35
 74
    0
 49
-3.175
 74
    0
 49
0
 74
    0
 49
-3.175
 74
    0
  0
LTYPE
  5
45
330
5
100
AcDbSymbolTableRecord
100
AcDbLinetypeTableRecord
  2
BORDERX2
 70
    0
  3
Border (2x) ____  ____  .  ____  ____  .  ___
 72
   65
 73
    6
 40
88.89999999999999
 49
25.4
 74
    0
 49
-12.7
 74
    0
 49
25.4
 74
    0
 49
-12.7
 74
    0
 49
0
 74
    0
 49
-12.7
 74
    0
  0
LTYPE
  5
46
330
5
100
AcDbSymbolTableRecord
100
AcDbLinetypeTableRecord
  2
CENTER
 70
    0
  3
Center ____ _ ____ _ ____ _ ____ _ ____ _ ____
 72
   65
 73
    4
 40
50.8
 49
31.75
 74
    0
 49
-6.35
 74
    0
 49
6.35
 74
    0
 49
-6.35
 74
    0
  0
LTYPE
  5
47
330
5
100
AcDbSymbolTableRecord
100
AcDbLinetypeTableRecord
  2
CENTERTINY
 70
    0
  3
Center (.15x) ___ _ ___ _ ___ _ ___ _ ___ _ ___
 72
   65
 73
    4
 40
7.619999999999999
 49
4.7625
 74
    0
 49
-0.9525
 74
    0
 49
0.9525
 74
    0
 49
-0.9525
 74
    0
  0
LTYPE
  5
48
330
5
100
AcDbSymbolTableRecord
100
AcDbLinetypeTableRecord
  2
CENTER2
 70
    0
  3
Center (.5x) ___ _ ___ _ ___ _ ___ _ ___ _ ___
 72
   65
 73
    4
 40
28.575
 49
19.05
 74
    0
 49
-3.175
 74
    0
 49
3.175
 74
    0
 49
-3.175
 74
    0
  0
LTYPE
  5
49
330
5
100
AcDbSymbolTableRecord
100
AcDbLinetypeTableRecord
  2
CENTERX2
 70
    0
  3
Center (2x) ________  __  ________  __  _____
 72
   65
 73
    4
 40
101.6
 49
63.5
 74
    0
 49
-12.7
 74
    0
 49
12.7
 74
    0
 49
-12.7
 74
    0
  0
ENDTAB
  0
TABLE
  2
LAYER
  5
2
330
0
100
AcDbSymbolTable
 70
    1
  0
LAYER
  5
10
330
2
100
AcDbSymbolTableRecord
100
AcDbLayerTableRecord
  2
0
 70
    0
 62
    7
  6
CONTINUOUS
370
    0
390
F
  0
LAYER
  5
4A
330
2
100
AcDbSymbolTableRecord
100
AcDbLayerTableRecord
  2
dim
 70
    0
 62
    7
  6
CONTINUOUS
370
   25
390
F
  0
LAYER
  5
4B
330
2
100
AcDbSymbolTableRecord
100
AcDbLayerTableRecord
  2
main
 70
    0
 62
    7
  6
CONTINUOUS
370
   50
390
F
  0
LAYER
  5
4C
330
2
100
AcDbSymbolTableRecord
100
AcDbLayerTableRecord
  2
seam
 70
    0
 62
    7
  6
DASHDOTTINY
370
   13
390
F
  0
LAYER
  5
4D
330
2
100
AcDbSymbolTableRecord
100
AcDbLayerTableRecord
  2
symmetry
 70
    0
 62
    7
  6
CENTERTINY
370
   25
390
F
  0
LAYER
  5
4E
330
2
100
AcDbSymbolTableRecord
100
AcDbLayerTableRecord
  2
template-thick
 70
    4
 62
    7
  6
CONTINUOUS
370
   50
390
F
  0
LAYER
  5
4F
330
2
100
AcDbSymbolTableRecord
100
AcDbLayerTableRecord
  2
template-thin
 70
    4
 62
    7
  6
CONTINUOUS
370
   25
390
F
  0
LAYER
  5
50
330
2
100
AcDbSymbolTableRecord
100
AcDbLayerTableRecord
  2
zipper
 70
    0
 62
    7
  6
DASHDOTTINY
370
   13
390
F
  0
ENDTAB
  0
TABLE
  2
STYLE
  5
3
330
0
100
AcDbSymbolTable
 70
    3
  0
STYLE
  5
51
330
2
100
AcDbSymbolTableRecord
100
AcDbTextStyleTableRecord
  2
iso3098
 70
    0
 40
0
 41
1
 50
0
 71
    0
 42
1
  3
iso3098
  4

  0
STYLE
  5
52
330
2
100
AcDbSymbolTableRecord
100
AcDbTextStyleTableRecord
  2
iso3098_i
 70
    0
 40
0
 41
1
 50
0
 71
    0
 42
1
  3
iso3098_i
  4

  0
STYLE
  5
53
330
2
100
AcDbSymbolTableRecord
100
AcDbTextStyleTableRecord
  2
standard
 70
    0
 40
0
 41
1
 50
0
 71
    0
 42
1
  3
standard
  4

  0
ENDTAB
  0
TABLE
  2
VIEW
  5
6
330
0
100
AcDbSymbolTable
 70
    0
  0
ENDTAB
  0
TABLE
  2
UCS
  5
7
330
0
100
AcDbSymbolTable
 70
    0
  0
ENDTAB
  0
TABLE
  2
APPID
  5
9
330
0
100
AcDbSymbolTable
 70
    1
  0
APPID
  5
12
330
9
100
AcDbSymbolTableRecord
100
AcDbRegAppTableRecord
  2
ACAD
 70
    0
  0
APPID
  5
54
330
9
100
AcDbSymbolTableRecord
100
AcDbRegAppTableRecord
  2
LibreCad
 70
    0
  0
ENDTAB
  0
TABLE
  2
DIMSTYLE
  5
A
330
0
100
AcDbSymbolTable
 70
    1
100
AcDbDimStyleTable
 71
    1
  0
DIMSTYLE
105
55
330
A
100
AcDbSymbolTableRecord
100
AcDbDimStyleTableRecord
  2
Standard
 70
    0
 40
10
 41
2.5
 42
0.625
 43
0.38
 44
1.25
 45
0
 46
0
 47
0
 48
0
 49
1
140
2.5
141
0.09
142
0
143
25.4
144
1
145
0
146
1
147
0.625
148
0
 71
    0
 72
    0
 73
    0
 74
    1
 75
    0
 76
    0
 77
    0
 78
    1
 79
    0
170
    0
171
    2
172
    0
173
    0
174
    0
175
    0
176
    0
177
    0
178
    0
179
    0
271
    0
272
    4
273
    2
274
    2
275
    0
276
    0
277
    2
278
    0
279
    0
280
    0
281
    0
282
    0
283
    1
284
    0
285
    0
286
    0
288
    0
289
    3
340
standard
341

371
   -2
372
   -2
  0
ENDTAB
  0
TABLE
  2
BLOCK_RECORD
  5
1
330
0
100
AcDbSymbolTable
 70
    2
  0
BLOCK_RECORD
  5
1F
330
1
100
AcDbSymbolTableRecord
100
AcDbBlockTableRecord
  2
*Model_Space
 70
    0
280
    1
281
    0
  0
BLOCK_RECORD
  5
1E
330
1
100
AcDbSymbolTableRecord
100
AcDbBlockTableRecord
  2
*Paper_Space
 70
    0
280
    1
281
    0
  0
BLOCK_RECORD
  5
56
330
1
100
AcDbSymbolTableRecord
100
AcDbBlockTableRecord
  2
*D7
 70
    0
280
    1
281
    0
  0
BLOCK_RECORD
  5
59
330
1
100
AcDbSymbolTableRecord
100
AcDbBlockTableRecord
  2
*D9
 70
    0
280
    1
281
    0
  0
BLOCK_RECORD
  5
5C
330
1
100
AcDbSymbolTableRecord
100
AcDbBlockTableRecord
  2
*D15
 70
    0
280
    1
281
    0
  0
BLOCK_RECORD
  5
5F
330
1
100
AcDbSymbolTableRecord
100
AcDbBlockTableRecord
  2
*D1
 70
    0
280
    1
281
    0
  0
BLOCK_RECORD
  5
62
330
1
100
AcDbSymbolTableRecord
100
AcDbBlockTableRecord
  2
*D2
 70
    0
280
    1
281
    0
  0
BLOCK_RECORD
  5
65
330
1
100
AcDbSymbolTableRecord
100
AcDbBlockTableRecord
  2
*D14
 70
    0
280
    1
281
    0
  0
BLOCK_RECORD
  5
68
330
1
100
AcDbSymbolTableRecord
100
AcDbBlockTableRecord
  2
*D3
 70
    0
280
    1
281
    0
  0
BLOCK_RECORD
  5
6B
330
1
100
AcDbSymbolTableRecord
100
AcDbBlockTableRecord
  2
*D12
 70
    0
280
    1
281
    0
  0
BLOCK_RECORD
  5
6E
330
1
100
AcDbSymbolTableRecord
100
AcDbBlockTableRecord
  2
*D4
 70
    0
280
    1
281
    0
  0
BLOCK_RECORD
  5
71
330
1
100
AcDbSymbolTableRecord
100
AcDbBlockTableRecord
  2
*D11
 70
    0
280
    1
281
    0
  0
BLOCK_RECORD
  5
74
330
1
100
AcDbSymbolTableRecord
100
AcDbBlockTableRecord
  2
*D8
 70
    0
280
    1
281
    0
  0
BLOCK_RECORD
  5
77
330
1
100
AcDbSymbolTableRecord
100
AcDbBlockTableRecord
  2
*D13
 70
    0
280
    1
281
    0
  0
BLOCK_RECORD
  5
7A
330
1
100
AcDbSymbolTableRecord
100
AcDbBlockTableRecord
  2
*D6
 70
    0
280
    1
281
    0
  0
BLOCK_RECORD
  5
7D
330
1
100
AcDbSymbolTableRecord
100
AcDbBlockTableRecord
  2
*D10
 70
    0
280
    1
281
    0
  0
BLOCK_RECORD
  5
80
330
1
100
AcDbSymbolTableRecord
100
AcDbBlockTableRecord
  2
*D5
 70
    0
280
    1
281
    0
  0
ENDTAB
  0
ENDSEC
  0
SECTION
  2
BLOCKS
  0
BLOCK
  5
20
330
1F
100
AcDbEntity
  8
0
100
AcDbBlockBegin
  2
*Model_Space
 70
    0
 10
0
 20
0
 30
0
  3
*Model_Space
  1

  0
ENDBLK
  5
21
330
1F
100
AcDbEntity
  8
0
100
AcDbBlockEnd
  0
BLOCK
  5
1C
330
1B
100
AcDbEntity
  8
0
100
AcDbBlockBegin
  2
*Paper_Space
 70
    0
 10
0
 20
0
 30
0
  3
*Paper_Space
  1

  0
ENDBLK
  5
1D
330
1F
100
AcDbEntity
  8
0
100
AcDbBlockEnd
  0
BLOCK
  5
57
330
56
100
AcDbEntity
  8
0
100
AcDbBlockBegin
  2
*D7
 70
    1
 10
0
 20
0
  3
*D7
  1

  0
LINE
  5
83
100
AcDbEntity
  8
dim
  6
CONTINUOUS
 62
    7
370
    0
100
AcDbLine
 10
1300
 20
649.9999999999999
 11
1370
 21
600
  0
LINE
  5
84
100
AcDbEntity
  8
dim
  6
CONTINUOUS
 62
    7
370
    0
100
AcDbLine
 10
1370
 20
600
 11
1400
 21
600
  0
SOLID
  5
85
100
AcDbEntity
  8
dim
  6
CONTINUOUS
 62
    7
370
    0
100
AcDbTrace
 10
1300
 20
649.9999999999999
 30
0
 11
1322.762942205737
 21
638.8564927528186
 31
0
 12
1317.9237313546
 22
632.0815975612264
 32
0
 13
1317.9237313546
 23
632.0815975612264
 33
0
  0
ENDBLK
  5
58
330
56
100
AcDbEntity
  8
0
100
AcDbBlockEnd
  0
BLOCK
  5
5A
330
59
100
AcDbEntity
  8
0
100
AcDbBlockBegin
  2
*D9
 70
    1
 10
0
 20
0
  3
*D9
  1

  0
SOLID
  5
86
100
AcDbEntity
  8
dim
  6
ByBlock
 62
    0
370
   -2
100
AcDbTrace
 10
1449.551138815394
 20
1605.056578484223
 30
0
 11
1425.892136437746
 21
1614.143981750511
 31
0
 12
1430.113430435154
 22
1621.320181546105
 32
0
 13
1430.113430435154
 23
1621.320181546105
 33
0
  0
LINE
  5
87
100
AcDbEntity
  8
dim
  6
ByBlock
 62
    0
370
   -2
100
AcDbLine
 10
1303.022322238573
 20
1691.25
 11
1449.551138815394
 21
1605.056578484223
  0
MTEXT
  5
88
100
AcDbEntity
  8
dim
  6
CONTINUOUS
 62
    0
370
   -2
100
AcDbMText
 10
1385.793357900047
 20
1664.31455577632
 30
0
 40
25
 41
69.44444444444444
 71
    5
 72
    1
  1
%%C170
  7
standard
210
0
220
0
230
1
 50
329.5344550805402
 73
    2
 44
1
  0
ENDBLK
  5
5B
330
59
100
AcDbEntity
  8
0
100
AcDbBlockEnd
  0
BLOCK
  5
5D
330
5C
100
AcDbEntity
  8
0
100
AcDbBlockBegin
  2
*D15
 70
    1
 10
0
 20
0
  3
*D15
  1

  0
LINE
  5
89
100
AcDbEntity
  8
dim
  6
ByBlock
 62
    0
370
   -2
100
AcDbLine
 10
300
 20
1000
 11
1300
 21
1000
  0
SOLID
  5
8A
100
AcDbEntity
  8
dim
  6
ByBlock
 62
    0
370
   -2
100
AcDbTrace
 10
300
 20
1000
 30
0
 11
325
 21
1004.162846577728
 31
0
 12
325
 22
995.8371534222716
 32
0
 13
325
 23
995.8371534222716
 33
0
  0
SOLID
  5
8B
100
AcDbEntity
  8
dim
  6
ByBlock
 62
    0
370
   -2
100
AcDbTrace
 10
1300
 20
1000
 30
0
 11
1275
 21
995.8371534222716
 31
0
 12
1275
 22
1004.162846577728
 32
0
 13
1275
 23
1004.162846577728
 33
0
  0
MTEXT
  5
8C
100
AcDbEntity
  8
dim
  6
CONTINUOUS
 62
    0
370
   -2
100
AcDbMText
 10
800
 20
1018.75
 30
0
 40
25
 41
63.88888888888889
 71
    5
 72
    1
  1
1000
  7
standard
210
0
220
0
230
1
 50
0
 73
    2
 44
1
  0
LINE
  5
8D
100
AcDbEntity
  8
dim
  6
ByBlock
 62
    0
370
   -2
100
AcDbLine
 10
300
 20
906.25
 11
300
 21
1012.5
  0
LINE
  5
8E
100
AcDbEntity
  8
dim
  6
ByBlock
 62
    0
370
   -2
100
AcDbLine
 10
1300
 20
656.25
 11
1300
 21
1012.5
  0
ENDBLK
  5
5E
330
5C
100
AcDbEntity
  8
0
100
AcDbBlockEnd
  0
BLOCK
  5
60
330
5F
100
AcDbEntity
  8
0
100
AcDbBlockBegin
  2
*D1
 70
    1
 10
0
 20
0
  3
*D1
  1

  0
LINE
  5
8F
100
AcDbEntity
  8
dim
  6
ByBlock
 62
    0
370
   -2
100
AcDbLine
 10
2770
 20
1690
 11
2770
 21
480
  0
SOLID
  5
90
100
AcDbEntity
  8
dim
  6
ByBlock
 62
    0
370
   -2
100
AcDbTrace
 10
2770
 20
1690
 30
0
 11
2774.162846577728
 21
1665
 31
0
 12
2765.837153422272
 22
1665
 32
0
 13
2765.837153422272
 23
1665
 33
0
  0
SOLID
  5
91
100
AcDbEntity
  8
dim
  6
ByBlock
 62
    0
370
   -2
100
AcDbTrace
 10
2770
 20
480
 30
0
 11
2765.837153422272
 21
505
 31
0
 12
2774.162846577728
 22
505
 32
0
 13
2774.162846577728
 23
505
 33
0
  0
MTEXT
  5
92
100
AcDbEntity
  8
dim
  6
CONTINUOUS
 62
    0
370
   -2
100
AcDbMText
 10
2751.25
 20
1085
 30
0
 40
25
 41
58.33333333333333
 71
    5
 72
    1
  1
1210
  7
standard
210
0
220
0
230
1
 50
90
 73
    2
 44
1
  0
LINE
  5
93
100
AcDbEntity
  8
dim
  6
ByBlock
 62
    0
370
   -2
100
AcDbLine
 10
2706.25
 20
1690
 11
2782.5
 21
1690
  0
LINE
  5
94
100
AcDbEntity
  8
dim
  6
ByBlock
 62
    0
370
   -2
100
AcDbLine
 10
2706.25
 20
480
 11
2782.5
 21
480
  0
ENDBLK
  5
61
330
5F
100
AcDbEntity
  8
0
100
AcDbBlockEnd
  0
BLOCK
  5
63
330
62
100
AcDbEntity
  8
0
100
AcDbBlockBegin
  2
*D2
 70
    1
 10
0
 20
0
  3
*D2
  1

  0
LINE
  5
95
100
AcDbEntity
  8
dim
  6
ByBlock
 62
    0
370
   -2
100
AcDbLine
 10
2850
 20
2000
 11
2850
 21
480
  0
SOLID
  5
96
100
AcDbEntity
  8
dim
  6
ByBlock
 62
    0
370
   -2
100
AcDbTrace
 10
2850
 20
2000
 30
0
 11
2854.162846577728
 21
1975
 31
0
 12
2845.837153422272
 22
1975
 32
0
 13
2845.837153422272
 23
1975
 33
0
  0
SOLID
  5
97
100
AcDbEntity
  8
dim
  6
ByBlock
 62
    0
370
   -2
100
AcDbTrace
 10
2850
 20
480
 30
0
 11
2845.837153422272
 21
505
 31
0
 12
2854.162846577728
 22
505
 32
0
 13
2854.162846577728
 23
505
 33
0
  0
MTEXT
  5
98
100
AcDbEntity
  8
dim
  6
CONTINUOUS
 62
    0
370
   -2
100
AcDbMText
 10
2831.25
 20
1240
 30
0
 40
25
 41
63.88888888889043
 71
    5
 72
    1
  1
1520
  7
standard
210
0
220
0
230
1
 50
90
 73
    2
 44
1
  0
LINE
  5
99
100
AcDbEntity
  8
dim
  6
ByBlock
 62
    0
370
   -2
100
AcDbLine
 10
2206.25
 20
2000
 11
2862.5
 21
2000
  0
LINE
  5
9A
100
AcDbEntity
  8
dim
  6
ByBlock
 62
    0
370
   -2
100
AcDbLine
 10
2706.25
 20
480
 11
2862.5
 21
480
  0
ENDBLK
  5
64
330
62
100
AcDbEntity
  8
0
100
AcDbBlockEnd
  0
BLOCK
  5
66
330
65
100
AcDbEntity
  8
0
100
AcDbBlockBegin
  2
*D14
 70
    1
 10
0
 20
0
  3
*D14
  1

  0
LINE
  5
9B
100
AcDbEntity
  8
dim
  6
ByBlock
 62
    0
370
   -2
100
AcDbLine
 10
1353.022322238573
 20
1981.25
 11
1446.977677761427
 21
1981.25
  0
SOLID
  5
9C
100
AcDbEntity
  8
dim
  6
ByBlock
 62
    0
370
   -2
100
AcDbTrace
 10
1353.022322238573
 20
1981.25
 30
0
 11
1378.022322238573
 21
1985.412846577728
 31
0
 12
1378.022322238573
 22
1977.087153422272
 32
0
 13
1378.022322238573
 23
1977.087153422272
 33
0
  0
SOLID
  5
9D
100
AcDbEntity
  8
dim
  6
ByBlock
 62
    0
370
   -2
100
AcDbTrace
 10
1446.977677761427
 20
1981.25
 30
0
 11
1421.977677761427
 21
1977.087153422272
 31
0
 12
1421.977677761427
 22
1985.412846577728
 32
0
 13
1421.977677761427
 23
1985.412846577728
 33
0
  0
MTEXT
  5
9E
100
AcDbEntity
  8
dim
  6
CONTINUOUS
 62
    0
370
   -2
100
AcDbMText
 10
1400
 20
2000
 30
0
 40
25
 41
33.33333333333489
 71
    5
 72
    1
  1
94
  7
standard
210
0
220
0
230
1
 50
0
 73
    2
 44
1
  0
LINE
  5
9F
100
AcDbEntity
  8
dim
  6
ByBlock
 62
    0
370
   -2
100
AcDbLine
 10
1353.022322238573
 20
1937.5
 11
1353.022322238573
 21
1993.75
  0
LINE
  5
A0
100
AcDbEntity
  8
dim
  6
ByBlock
 62
    0
370
   -2
100
AcDbLine
 10
1446.977677761427
 20
1787.925967599405
 11
1446.977677761427
 21
1993.75
  0
ENDBLK
  5
67
330
65
100
AcDbEntity
  8
0
100
AcDbBlockEnd
  0
BLOCK
  5
69
330
68
100
AcDbEntity
  8
0
100
AcDbBlockBegin
  2
*D3
 70
    1
 10
0
 20
0
  3
*D3
  1

  0
LINE
  5
A1
100
AcDbEntity
  8
dim
  6
ByBlock
 62
    0
370
   -2
100
AcDbLine
 10
2200
 20
400
 11
2700
 21
400
  0
SOLID
  5
A2
100
AcDbEntity
  8
dim
  6
ByBlock
 62
    0
370
   -2
100
AcDbTrace
 10
2200
 20
400
 30
0
 11
2225
 21
404.1628465777284
 31
0
 12
2225
 22
395.8371534222716
 32
0
 13
2225
 23
395.8371534222716
 33
0
  0
SOLID
  5
A3
100
AcDbEntity
  8
dim
  6
ByBlock
 62
    0
370
   -2
100
AcDbTrace
 10
2700
 20
400
 30
0
 11
2675
 21
395.8371534222716
 31
0
 12
2675
 22
404.1628465777284
 32
0
 13
2675
 23
404.1628465777284
 33
0
  0
MTEXT
  5
A4
100
AcDbEntity
  8
dim
  6
CONTINUOUS
 62
    0
370
   -2
100
AcDbMText
 10
2450
 20
418.75
 30
0
 40
25
 41
50.00000000000155
 71
    5
 72
    1
  1
500
  7
standard
210
0
220
0
230
1
 50
0
 73
    2
 44
1
  0
LINE
  5
A5
100
AcDbEntity
  8
dim
  6
ByBlock
 62
    0
370
   -2
100
AcDbLine
 10
2200
 20
473.75
 11
2200
 21
387.5
  0
LINE
  5
A6
100
AcDbEntity
  8
dim
  6
ByBlock
 62
    0
370
   -2
100
AcDbLine
 10
2700
 20
473.75
 11
2700
 21
387.5
  0
ENDBLK
  5
6A
330
68
100
AcDbEntity
  8
0
100
AcDbBlockEnd
  0
BLOCK
  5
6C
330
6B
100
AcDbEntity
  8
0
100
AcDbBlockBegin
  2
*D12
 70
    1
 10
0
 20
0
  3
*D12
  1

  0
LINE
  5
A7
100
AcDbEntity
  8
dim
  6
ByBlock
 62
    0
370
   -2
100
AcDbLine
 10
183.022322238573
 20
1931.25
 11
183.022322238573
 21
1451.25
  0
SOLID
  5
A8
100
AcDbEntity
  8
dim
  6
ByBlock
 62
    0
370
   -2
100
AcDbTrace
 10
183.022322238573
 20
1931.25
 30
0
 11
187.1851688163014
 21
1906.25
 31
0
 12
178.8594756608446
 22
1906.25
 32
0
 13
178.8594756608446
 23
1906.25
 33
0
  0
SOLID
  5
A9
100
AcDbEntity
  8
dim
  6
ByBlock
 62
    0
370
   -2
100
AcDbTrace
 10
183.022322238573
 20
1451.25
 30
0
 11
178.8594756608446
 21
1476.25
 31
0
 12
187.1851688163014
 22
1476.25
 32
0
 13
187.1851688163014
 23
1476.25
 33
0
  0
MTEXT
  5
AA
100
AcDbEntity
  8
dim
  6
CONTINUOUS
 62
    0
370
   -2
100
AcDbMText
 10
164.272322238573
 20
1691.25
 30
0
 40
25
 41
52.77777777777777
 71
    5
 72
    1
  1
480
  7
standard
210
0
220
0
230
1
 50
90
 73
    2
 44
1
  0
LINE
  5
AB
100
AcDbEntity
  8
dim
  6
ByBlock
 62
    0
370
   -2
100
AcDbLine
 10
129.272322238573
 20
1931.25
 11
195.522322238573
 21
1931.25
  0
LINE
  5
AC
100
AcDbEntity
  8
dim
  6
ByBlock
 62
    0
370
   -2
100
AcDbLine
 10
129.272322238573
 20
1451.25
 11
195.522322238573
 21
1451.25
  0
ENDBLK
  5
6D
330
6B
100
AcDbEntity
  8
0
100
AcDbBlockEnd
  0
BLOCK
  5
6F
330
6E
100
AcDbEntity
  8
0
100
AcDbBlockBegin
  2
*D4
 70
    1
 10
0
 20
0
  3
*D4
  1

  0
LINE
  5
AD
100
AcDbEntity
  8
dim
  6
ByBlock
 62
    0
370
   -2
100
AcDbLine
 10
200
 20
550
 11
199.9999999999999
 21
300
  0
SOLID
  5
AE
100
AcDbEntity
  8
dim
  6
ByBlock
 62
    0
370
   -2
100
AcDbTrace
 10
200
 20
550
 30
0
 11
204.1628465777284
 21
525
 31
0
 12
195.8371534222716
 22
525
 32
0
 13
195.8371534222716
 23
525
 33
0
  0
SOLID
  5
AF
100
AcDbEntity
  8
dim
  6
ByBlock
 62
    0
370
   -2
100
AcDbTrace
 10
199.9999999999999
 20
300
 30
0
 11
195.8371534222715
 21
325
 31
0
 12
204.1628465777283
 22
325
 32
0
 13
204.1628465777283
 23
325
 33
0
  0
MTEXT
  5
B0
100
AcDbEntity
  8
dim
  6
CONTINUOUS
 62
    0
370
   -2
100
AcDbMText
 10
218.7499999999999
 20
425
 30
0
 40
25
 41
50.00000000000155
 71
    5
 72
    1
  1
250
  7
standard
210
0
220
0
230
1
 50
90
 73
    2
 44
1
  0
LINE
  5
B1
100
AcDbEntity
  8
dim
  6
ByBlock
 62
    0
370
   -2
100
AcDbLine
 10
293.75
 20
550
 11
187.5
 21
550
  0
LINE
  5
B2
100
AcDbEntity
  8
dim
  6
ByBlock
 62
    0
370
   -2
100
AcDbLine
 10
293.7499999999999
 20
300
 11
187.4999999999999
 21
300
  0
ENDBLK
  5
70
330
6E
100
AcDbEntity
  8
0
100
AcDbBlockEnd
  0
BLOCK
  5
72
330
71
100
AcDbEntity
  8
0
100
AcDbBlockBegin
  2
*D11
 70
    1
 10
0
 20
0
  3
*D11
  1

  0
LINE
  5
B3
100
AcDbEntity
  8
dim
  6
ByBlock
 62
    0
370
   -2
100
AcDbLine
 10
1473.022322238573
 20
1271.25
 11
123.022322238573
 21
1271.25
  0
SOLID
  5
B4
100
AcDbEntity
  8
dim
  6
ByBlock
 62
    0
370
   -2
100
AcDbTrace
 10
1473.022322238573
 20
1271.25
 30
0
 11
1448.022322238573
 21
1267.087153422272
 31
0
 12
1448.022322238573
 22
1275.412846577728
 32
0
 13
1448.022322238573
 23
1275.412846577728
 33
0
  0
SOLID
  5
B5
100
AcDbEntity
  8
dim
  6
ByBlock
 62
    0
370
   -2
100
AcDbTrace
 10
123.022322238573
 20
1271.25
 30
0
 11
148.022322238573
 21
1275.412846577728
 31
0
 12
148.022322238573
 22
1267.087153422272
 32
0
 13
148.022322238573
 23
1267.087153422272
 33
0
  0
MTEXT
  5
B6
100
AcDbEntity
  8
dim
  6
CONTINUOUS
 62
    0
370
   -2
100
AcDbMText
 10
798.022322238573
 20
1290
 30
0
 40
25
 41
63.88888888889198
 71
    5
 72
    1
  1
1350
  7
standard
210
0
220
0
230
1
 50
360
 73
    2
 44
1
  0
LINE
  5
B7
100
AcDbEntity
  8
dim
  6
ByBlock
 62
    0
370
   -2
100
AcDbLine
 10
1473.022322238573
 20
1685
 11
1473.022322238573
 21
1258.75
  0
LINE
  5
B8
100
AcDbEntity
  8
dim
  6
ByBlock
 62
    0
370
   -2
100
AcDbLine
 10
123.022322238573
 20
1445
 11
123.022322238573
 21
1258.75
  0
ENDBLK
  5
73
330
71
100
AcDbEntity
  8
0
100
AcDbBlockEnd
  0
BLOCK
  5
75
330
74
100
AcDbEntity
  8
0
100
AcDbBlockBegin
  2
*D8
 70
    1
 10
0
 20
0
  3
*D8
  1

  0
LINE
  5
B9
100
AcDbEntity
  8
dim
  6
CONTINUOUS
 62
    7
370
    0
100
AcDbLine
 10
1300
 20
549.9999999999999
 11
1370
 21
600
  0
SOLID
  5
BA
100
AcDbEntity
  8
dim
  6
CONTINUOUS
 62
    7
370
    0
100
AcDbTrace
 10
1300
 20
549.9999999999999
 30
0
 11
1317.9237313546
 21
567.9184024387733
 31
0
 12
1322.762942205737
 22
561.1435072471813
 32
0
 13
1322.762942205737
 23
561.1435072471813
 33
0
  0
ENDBLK
  5
76
330
74
100
AcDbEntity
  8
0
100
AcDbBlockEnd
  0
BLOCK
  5
78
330
77
100
AcDbEntity
  8
0
100
AcDbBlockBegin
  2
*D13
 70
    1
 10
0
 20
0
  3
*D13
  1

  0
LINE
  5
BB
100
AcDbEntity
  8
dim
  6
CONTINUOUS
 62
    7
370
    0
100
AcDbLine
 10
1473.022322238573
 20
1691.25
 11
1433.022322238573
 21
1731.25
  0
LINE
  5
BC
100
AcDbEntity
  8
dim
  6
CONTINUOUS
 62
    7
370
    0
100
AcDbLine
 10
1433.022322238573
 20
1731.25
 11
1403.022322238573
 21
1731.25
  0
SOLID
  5
BD
100
AcDbEntity
  8
dim
  6
CONTINUOUS
 62
    7
370
    0
100
AcDbTrace
 10
1473.022322238573
 20
1691.25
 30
0
 11
1452.401075664758
 21
1705.984092485513
 31
0
 12
1458.28822975306
 22
1711.871246573815
 32
0
 13
1458.28822975306
 23
1711.871246573815
 33
0
  0
ENDBLK
  5
79
330
77
100
AcDbEntity
  8
0
100
AcDbBlockEnd
  0
BLOCK
  5
7B
330
7A
100
AcDbEntity
  8
0
100
AcDbBlockBegin
  2
*D6
 70
    1
 10
0
 20
0
  3
*D6
  1

  0
LINE
  5
BE
100
AcDbEntity
  8
dim
  6
ByBlock
 62
    0
370
   -2
100
AcDbLine
 10
300
 20
700
 11
1100
 21
700
  0
SOLID
  5
BF
100
AcDbEntity
  8
dim
  6
ByBlock
 62
    0
370
   -2
100
AcDbTrace
 10
300
 20
700
 30
0
 11
325
 21
704.1628465777284
 31
0
 12
325
 22
695.8371534222716
 32
0
 13
325
 23
695.8371534222716
 33
0
  0
SOLID
  5
C0
100
AcDbEntity
  8
dim
  6
ByBlock
 62
    0
370
   -2
100
AcDbTrace
 10
1100
 20
700
 30
0
 11
1075
 21
695.8371534222716
 31
0
 12
1075
 22
704.1628465777284
 32
0
 13
1075
 23
704.1628465777284
 33
0
  0
MTEXT
  5
C1
100
AcDbEntity
  8
dim
  6
CONTINUOUS
 62
    0
370
   -2
100
AcDbMText
 10
700
 20
718.75
 30
0
 40
25
 41
50
 71
    5
 72
    1
  1
800
  7
standard
210
0
220
0
230
1
 50
0
 73
    2
 44
1
  0
LINE
  5
C2
100
AcDbEntity
  8
dim
  6
ByBlock
 62
    0
370
   -2
100
AcDbLine
 10
300
 20
656.25
 11
300
 21
712.5
  0
LINE
  5
C3
100
AcDbEntity
  8
dim
  6
ByBlock
 62
    0
370
   -2
100
AcDbLine
 10
1100
 20
656.25
 11
1100
 21
712.5
  0
ENDBLK
  5
7C
330
7A
100
AcDbEntity
  8
0
100
AcDbBlockEnd
  0
BLOCK
  5
7E
330
7D
100
AcDbEntity
  8
0
100
AcDbBlockBegin
  2
*D10
 70
    1
 10
0
 20
0
  3
*D10
  1

  0
LINE
  5
C4
100
AcDbEntity
  8
dim
  6
ByBlock
 62
    0
370
   -2
100
AcDbLine
 10
123.022322238573
 20
1351.25
 11
1353.022322238573
 21
1351.25
  0
SOLID
  5
C5
100
AcDbEntity
  8
dim
  6
ByBlock
 62
    0
370
   -2
100
AcDbTrace
 10
123.022322238573
 20
1351.25
 30
0
 11
148.022322238573
 21
1355.412846577728
 31
0
 12
148.022322238573
 22
1347.087153422272
 32
0
 13
148.022322238573
 23
1347.087153422272
 33
0
  0
SOLID
  5
C6
100
AcDbEntity
  8
dim
  6
ByBlock
 62
    0
370
   -2
100
AcDbTrace
 10
1353.022322238573
 20
1351.25
 30
0
 11
1328.022322238573
 21
1347.087153422272
 31
0
 12
1328.022322238573
 22
1355.412846577728
 32
0
 13
1328.022322238573
 23
1355.412846577728
 33
0
  0
MTEXT
  5
C7
100
AcDbEntity
  8
dim
  6
CONTINUOUS
 62
    0
370
   -2
100
AcDbMText
 10
738.022322238573
 20
1370
 30
0
 40
25
 41
63.88888888889043
 71
    5
 72
    1
  1
1230
  7
standard
210
0
220
0
230
1
 50
0
 73
    2
 44
1
  0
LINE
  5
C8
100
AcDbEntity
  8
dim
  6
ByBlock
 62
    0
370
   -2
100
AcDbLine
 10
123.022322238573
 20
1445
 11
123.022322238573
 21
1338.75
  0
LINE
  5
C9
100
AcDbEntity
  8
dim
  6
ByBlock
 62
    0
370
   -2
100
AcDbLine
 10
1353.022322238573
 20
1445
 11
1353.022322238573
 21
1338.75
  0
ENDBLK
  5
7F
330
7D
100
AcDbEntity
  8
0
100
AcDbBlockEnd
  0
BLOCK
  5
81
330
80
100
AcDbEntity
  8
0
100
AcDbBlockBegin
  2
*D5
 70
    1
 10
0
 20
0
  3
*D5
  1

  0
SOLID
  5
CA
100
AcDbEntity
  8
dim
  6
ByBlock
 62
    0
370
   -2
100
AcDbTrace
 10
1172.333226279264
 20
299.2918138660116
 30
0
 11
1154.262289596561
 21
317.061747434808
 31
0
 12
1160.995578078215
 22
321.9586845123746
 32
0
 13
1160.995578078215
 23
321.9586845123746
 33
0
  0
LINE
  5
CB
100
AcDbEntity
  8
dim
  6
ByBlock
 62
    0
370
   -2
100
AcDbLine
 10
989.9999999999999
 20
550
 11
1172.333226279264
 21
299.2918138660115
  0
MTEXT
  5
CC
100
AcDbEntity
  8
dim
  6
CONTINUOUS
 62
    0
370
   -2
100
AcDbMText
 10
1096.330414720317
 20
435.6741262644129
 30
0
 40
25
 41
69.44444444444599
 71
    5
 72
    1
  1
%%C310
  7
standard
210
0
220
0
230
1
 50
306.0273733851035
 73
    2
 44
1
  0
ENDBLK
  5
82
330
80
100
AcDbEntity
  8
0
100
AcDbBlockEnd
  0
ENDSEC
  0
SECTION
  2
ENTITIES
  0
HATCH
  5
CD
100
AcDbEntity
  8
zipper
  6
ByLayer
 62
  256
370
   -1
100
AcDbHatch
 10
0
 20
0
 30
0
210
0
220
0
230
1
  2
misc02
 70
    0
 71
    0
 91
    1
 92
    0
 93
    4
 72
    1
 10
300
 20
630
 11
300
 21
650
 72
    1
 10
300
 20
650
 11
1100
 21
650
 72
    1
 10
1100
 20
650
 11
1100
 21
630
 72
    1
 10
1100
 20
630
 11
300
 21
630
 97
    0
 75
    0
 76
    1
 52
0
 41
1
 77
    0
 78
    0
 98
    0
  0
HATCH
  5
CE
100
AcDbEntity
  8
zipper
  6
ByLayer
 62
  256
370
   -1
100
AcDbHatch
 10
0
 20
0
 30
0
210
0
220
0
230
1
  2
misc02
 70
    0
 71
    0
 91
    1
 92
    0
 93
    4
 72
    1
 10
1100
 20
550
 11
1100
 21
570
 72
    1
 10
1100
 20
570
 11
300
 21
570
 72
    1
 10
300
 20
570
 11
300
 21
550
 72
    1
 10
300
 20
550
 11
1100
 21
550
 97
    0
 75
    0
 76
    1
 52
0
 41
1
 77
    0
 78
    0
 98
    0
  0
LWPOLYLINE
  5
CF
100
AcDbEntity
  8
template-thick
  6
ByLayer
 62
  256
370
   -1
100
AcDbPolyline
 90
    4
 70
    1
 43
0
 10
50
 20
50
 10
2920
 20
50
 10
2920
 20
2050
 10
50
 20
2050
  0
LWPOLYLINE
  5
D0
100
AcDbEntity
  8
template-thick
  6
ByLayer
 62
  256
370
   -1
100
AcDbPolyline
 90
    4
 70
    1
 43
0
 10
1520
 20
50
 10
2920
 20
50
 10
2920
 20
350
 10
1520
 20
350
  0
LINE
  5
D1
100
AcDbEntity
  8
template-thin
  6
ByLayer
 62
  256
370
   -1
100
AcDbLine
 10
1520
 20
175.0026010129251
 11
2920
 21
175.0026010129251
  0
LINE
  5
D2
100
AcDbEntity
  8
template-thin
  6
ByLayer
 62
  256
370
   -1
100
AcDbLine
 10
1759.077868802333
 20
350
 11
1759.077868802333
 21
50
  0
MTEXT
  5
D3
100
AcDbEntity
  8
template-thick
  6
ByLayer
 62
  256
370
   -1
100
AcDbMText
 10
1570
 20
280
 30
0
 40
40
 41
75.55555555555556
 71
    1
 72
    1
  1
1:10
  7
standard
210
0
220
0
230
1
 50
0
 73
    2
 44
1
  0
MTEXT
  5
D4
100
AcDbEntity
  8
template-thin
  6
ByLayer
 62
  256
370
   -1
100
AcDbMText
 10
1760
 20
150
 30
0
 40
30
 41
1010.833333333333
 71
    1
 72
    1
  1
Seam allowance: 1cm.\PZipper double folded seam (2cm).
  7
iso3098_i
210
0
220
0
230
1
 50
0
 73
    2
 44
1
  0
MTEXT
  5
D5
100
AcDbEntity
  8
template-thick
  6
ByLayer
 62
  256
370
   -1
100
AcDbMText
 10
1768.622222222222
 20
280
 30
0
 40
40
 41
884.9777777777775
 71
    1
 72
    1
  1
Steering column cover
  7
iso3098_i
210
0
220
0
230
1
 50
0
 73
    2
 44
1
  0
MTEXT
  5
D6
100
AcDbEntity
  8
template-thin
  6
ByLayer
 62
  256
370
   -1
100
AcDbMText
 10
1570
 20
150
 30
0
 40
30
 41
63.33332697326885
 71
    1
 72
    1
  1
SCC\P1/1
  7
standard
210
0
220
0
230
1
 50
0
 73
    2
 44
1
  0
LWPOLYLINE
  5
D7
100
AcDbEntity
  8
main
  6
ByLayer
 62
  256
370
   -1
100
AcDbPolyline
 90
    4
 70
    1
 43
0
 10
2200
 20
480
 10
2200
 20
2000
 10
2700
 20
1690
 10
2700
 20
480
  0
LWPOLYLINE
  5
D8
100
AcDbEntity
  8
seam
  6
ByLayer
 62
  256
370
   -1
100
AcDbPolyline
 90
   12
 70
    1
 43
0
 10
2200
 20
480
 10
2190
 20
480
 10
2190
 20
2000
 10
2200
 20
2000
 10
2200
 20
2010
 10
2700
 20
1700
 10
2700
 20
1690
 10
2710
 20
1690
 10
2710
 20
480
 10
2700
 20
480
 10
2700
 20
470
 10
2200
 20
470
  0
DIMENSION
  5
D9
100
AcDbEntity
  8
dim
  6
ByLayer
 62
  256
370
   -1
100
AcDbDimension
  2
*D1
 10
2770
 20
480
 30
0
 11
2751.25
 21
1085
 31
0
 70
   32
 71
    5
 72
    0
  3
Standard
 53
0
210
0
220
0
230
1
100
AcDbAlignedDimension
 13
2700
 23
1690
 33
0
 14
2700
 24
480
 34
0
 50
90
100
AcDbRotatedDimension
  0
DIMENSION
  5
DA
100
AcDbEntity
  8
dim
  6
ByLayer
 62
  256
370
   -1
100
AcDbDimension
  2
*D2
 10
2850
 20
480
 30
0
 11
2831.25
 21
1240
 31
0
 70
   32
 71
    5
 72
    0
  3
Standard
 53
0
210
0
220
0
230
1
100
AcDbAlignedDimension
 13
2200
 23
2000
 33
0
 14
2700
 24
480
 34
0
 50
90
100
AcDbRotatedDimension
  0
LWPOLYLINE
  5
DB
100
AcDbEntity
  8
main
  6
ByLayer
 62
  256
370
   -1
100
AcDbPolyline
 90
    4
 70
    1
 43
0
 10
2100
 20
480
 10
2100
 20
2000
 10
1600
 20
1690
 10
1600
 20
480
  0
LWPOLYLINE
  5
DC
100
AcDbEntity
  8
seam
  6
ByLayer
 62
  256
370
   -1
100
AcDbPolyline
 90
   12
 70
    1
 43
0
 10
2100
 20
480
 10
2110
 20
480
 10
2110
 20
2000
 10
2100
 20
2000
 10
2100
 20
2010
 10
1600
 20
1700
 10
1600
 20
1690
 10
1590
 20
1690
 10
1590
 20
480
 10
1600
 20
480
 10
1600
 20
470
 10
2100
 20
470
  0
DIMENSION
  5
DD
100
AcDbEntity
  8
dim
  6
ByLayer
 62
  256
370
   -1
100
AcDbDimension
  2
*D3
 10
2700
 20
400
 30
0
 11
2450
 21
418.75
 31
0
 70
   32
 71
    5
 72
    0
  3
Standard
 53
0
210
0
220
0
230
1
100
AcDbAlignedDimension
 13
2200
 23
480
 33
0
 14
2700
 24
480
 34
0
100
AcDbRotatedDimension
  0
ARC
  5
DE
100
AcDbEntity
  8
main
  6
ByLayer
 62
  256
370
   -1
100
AcDbCircle
 10
990
 20
650
 40
310
100
AcDbArc
 50
360
 51
126.2493208828995
  0
LINE
  5
DF
100
AcDbEntity
  8
main
  6
ByLayer
 62
  256
370
   -1
100
AcDbLine
 10
806.6969722017661
 20
900
 11
300
 21
900
  0
LWPOLYLINE
  5
E0
100
AcDbEntity
  8
seam
  6
ByLayer
 62
  256
370
   -1
100
AcDbPolyline
 90
    5
 70
    0
 43
0
 10
290
 20
900
 10
290
 20
650
 10
300
 20
650
 10
300
 20
630
 10
1300
 20
630
  0
LINE
  5
E1
100
AcDbEntity
  8
seam
  6
ByLayer
 62
  256
370
   -1
100
AcDbLine
 10
1300
 20
630
 11
1300
 21
650
  0
LINE
  5
E2
100
AcDbEntity
  8
seam
  6
ByLayer
 62
  256
370
   -1
100
AcDbLine
 10
1300
 20
650
 11
1310
 21
650
  0
LINE
  5
E3
100
AcDbEntity
  8
seam
  6
ByLayer
 62
  256
370
   -1
100
AcDbLine
 10
290
 20
900
 11
300
 21
900
  0
LINE
  5
E4
100
AcDbEntity
  8
seam
  6
ByLayer
 62
  256
370
   -1
100
AcDbLine
 10
300
 20
900
 11
300
 21
910
  0
ARC
  5
E5
100
AcDbEntity
  8
seam
  6
ByLayer
 62
  256
370
   -1
100
AcDbCircle
 10
990
 20
650
 40
320
100
AcDbArc
 50
360
 51
125.6590876961387
  0
LINE
  5
E6
100
AcDbEntity
  8
seam
  6
ByLayer
 62
  256
370
   -1
100
AcDbLine
 10
300
 20
910
 11
803.4524189382237
 21
910
  0
ARC
  5
E7
100
AcDbEntity
  8
main
  6
ByLayer
 62
  256
370
   -1
100
AcDbCircle
 10
989.9999999999999
 20
550
 40
310
100
AcDbArc
 50
233.7506791171005
 51
360
  0
LINE
  5
E8
100
AcDbEntity
  8
main
  6
ByLayer
 62
  256
370
   -1
100
AcDbLine
 10
806.696972201766
 20
300
 11
299.9999999999999
 21
300
  0
LWPOLYLINE
  5
E9
100
AcDbEntity
  8
seam
  6
ByLayer
 62
  256
370
   -1
100
AcDbPolyline
 90
    5
 70
    0
 43
0
 10
289.9999999999999
 20
300
 10
290
 20
550
 10
300
 20
550
 10
300
 20
570
 10
1300
 20
570
  0
LINE
  5
EA
100
AcDbEntity
  8
seam
  6
ByLayer
 62
  256
370
   -1
100
AcDbLine
 10
1300
 20
570
 11
1300
 21
550
  0
LINE
  5
EB
100
AcDbEntity
  8
seam
  6
ByLayer
 62
  256
370
   -1
100
AcDbLine
 10
1300
 20
550
 11
1310
 21
550
  0
LINE
  5
EC
100
AcDbEntity
  8
seam
  6
ByLayer
 62
  256
370
   -1
100
AcDbLine
 10
289.9999999999999
 20
300
 11
299.9999999999999
 21
300
  0
LINE
  5
ED
100
AcDbEntity
  8
seam
  6
ByLayer
 62
  256
370
   -1
100
AcDbLine
 10
299.9999999999999
 20
300
 11
299.9999999999999
 21
290
  0
ARC
  5
EE
100
AcDbEntity
  8
seam
  6
ByLayer
 62
  256
370
   -1
100
AcDbCircle
 10
989.9999999999999
 20
550
 40
320
100
AcDbArc
 50
234.3409123038613
 51
360
  0
LINE
  5
EF
100
AcDbEntity
  8
seam
  6
ByLayer
 62
  256
370
   -1
100
AcDbLine
 10
299.9999999999999
 20
290
 11
803.4524189382236
 21
290
  0
DIMENSION
  5
F0
100
AcDbEntity
  8
dim
  6
ByLayer
 62
  256
370
   -1
100
AcDbDimension
  2
*D4
 10
199.9999999999999
 20
300
 30
0
 11
218.7499999999999
 21
425
 31
0
 70
   32
 71
    5
 72
    0
  3
Standard
 53
0
210
0
220
0
230
1
100
AcDbAlignedDimension
 13
300
 23
550
 33
0
 14
299.9999999999999
 24
300
 34
0
 50
270
100
AcDbRotatedDimension
  0
LWPOLYLINE
  5
F1
100
AcDbEntity
  8
zipper
  6
ByLayer
 62
  256
370
   -1
100
AcDbPolyline
 90
    4
 70
    1
 43
0
 10
990
 20
630
 10
990
 20
630
 10
990
 20
630
 10
990
 20
630
  0
LWPOLYLINE
  5
F2
100
AcDbEntity
  8
zipper
  6
ByLayer
 62
  256
370
   -1
100
AcDbPolyline
 90
    4
 70
    1
 43
0
 10
300
 20
630
 10
300
 20
650
 10
1100
 20
650
 10
1100
 20
630
  0
LWPOLYLINE
  5
F3
100
AcDbEntity
  8
zipper
  6
ByLayer
 62
  256
370
   -1
100
AcDbPolyline
 90
    4
 70
    1
 43
0
 10
1100
 20
550
 10
1100
 20
570
 10
300
 20
570
 10
300
 20
550
  0
LINE
  5
F4
100
AcDbEntity
  8
symmetry
  6
ByLayer
 62
  256
370
   -1
100
AcDbLine
 10
990
 20
670
 11
989.9999999999999
 21
450
  0
DIMENSION
  5
F5
100
AcDbEntity
  8
dim
  6
ByLayer
 62
  256
370
   -1
100
AcDbDimension
  2
*D5
 10
989.9999999999999
 20
550
 30
0
 11
1096.330414720317
 21
435.6741262644129
 31
0
 70
   36
  1
%%C<>
 71
    5
 72
    0
  3
Standard
 53
0
210
0
220
0
230
1
100
AcDbRadialDimension
 15
1172.333226279264
 25
299.2918138660116
 35
0
 40
0
  0
LINE
  5
F6
100
AcDbEntity
  8
symmetry
  6
ByLayer
 62
  256
370
   -1
100
AcDbLine
 10
2150
 20
1900
 11
2150
 21
380
  0
LINE
  5
F7
100
AcDbEntity
  8
symmetry
  6
ByLayer
 62
  256
370
   -1
100
AcDbLine
 10
1260
 20
600
 11
249.9999999999999
 21
600
  0
DIMENSION
  5
F8
100
AcDbEntity
  8
dim
  6
ByLayer
 62
  256
370
   -1
100
AcDbDimension
  2
*D6
 10
1100
 20
700
 30
0
 11
700
 21
718.75
 31
0
 70
   32
 71
    5
 72
    0
  3
Standard
 53
0
210
0
220
0
230
1
100
AcDbAlignedDimension
 13
300
 23
650
 33
0
 14
1100
 24
650
 34
0
100
AcDbRotatedDimension
  0
LEADER
  5
F9
100
AcDbEntity
  8
dim
  6
ByLayer
 62
  256
370
   -1
100
AcDbLeader
  3
Standard
 71
    1
 72
    0
 73
    3
 74
    0
 75
    0
 40
1
 41
10
 76
3
 76
3
 10
1300
 20
649.9999999999999
 30
0
 10
1370
 20
600
 30
0
 10
1400
 20
600
 30
0
  0
LEADER
  5
FA
100
AcDbEntity
  8
dim
  6
ByLayer
 62
  256
370
   -1
100
AcDbLeader
  3
Standard
 71
    1
 72
    0
 73
    3
 74
    0
 75
    0
 40
1
 41
10
 76
2
 76
2
 10
1300
 20
549.9999999999999
 30
0
 10
1370
 20
600
 30
0
  0
LWPOLYLINE
  5
FB
100
AcDbEntity
  8
main
  6
CONTINUOUS
 62
    7
370
   50
100
AcDbPolyline
 90
    3
 70
    0
 43
0
 10
1300
 20
550
 10
300
 20
550
 10
299.9999999999999
 20
300
  0
LWPOLYLINE
  5
FC
100
AcDbEntity
  8
main
  6
CONTINUOUS
 62
    7
370
   50
100
AcDbPolyline
 90
    3
 70
    0
 43
0
 10
1300
 20
650
 10
300
 20
650
 10
300
 20
900
  0
MTEXT
  5
FD
100
AcDbEntity
  8
dim
  6
ByLayer
 62
  256
370
   -1
100
AcDbMText
 10
1380
 20
620
 30
0
 40
30
 41
15.63333333333333
 71
    5
 72
    1
  1
B
  7
iso3098
210
0
220
0
230
1
 50
0
 73
    2
 44
1
  0
MTEXT
  5
FE
100
AcDbEntity
  8
dim
  6
ByLayer
 62
  256
370
   -1
100
AcDbMText
 10
1100
 20
520
 30
0
 40
30
 41
13.56666666666667
 71
    5
 72
    1
  1
C
  7
iso3098
210
0
220
0
230
1
 50
0
 73
    2
 44
1
  0
MTEXT
  5
FF
100
AcDbEntity
  8
dim
  6
ByLayer
 62
  256
370
   -1
100
AcDbMText
 10
1610
 20
1670
 30
0
 40
30
 41
15.63333333333333
 71
    5
 72
    1
  1
B
  7
iso3098
210
0
220
0
230
1
 50
0
 73
    2
 44
1
  0
MTEXT
  5
100
100
AcDbEntity
  8
dim
  6
ByLayer
 62
  256
370
   -1
100
AcDbMText
 10
2670
 20
1670
 30
0
 40
30
 41
15.63333333333333
 71
    5
 72
    1
  1
B
  7
iso3098
210
0
220
0
230
1
 50
0
 73
    2
 44
1
  0
MTEXT
  5
101
100
AcDbEntity
  8
dim
  6
ByLayer
 62
  256
370
   -1
100
AcDbMText
 10
2140
 20
2000
 30
0
 40
30
 41
19.76666666666667
 71
    5
 72
    1
  1
A
  7
iso3098
210
0
220
0
230
1
 50
0
 73
    2
 44
1
  0
LINE
  5
102
100
AcDbEntity
  8
main
  6
ByLayer
 62
  256
370
   -1
100
AcDbLine
 10
123.022322238573
 20
1451.25
 11
123.022322238573
 21
1931.25
  0
LINE
  5
103
100
AcDbEntity
  8
symmetry
  6
ByLayer
 62
  256
370
   -1
100
AcDbLine
 10
1303.022322238573
 20
1751.25
 11
1303.022322238573
 21
1631.25
  0
LINE
  5
104
100
AcDbEntity
  8
main
  6
ByLayer
 62
  256
370
   -1
100
AcDbLine
 10
1446.977677761427
 20
1781.675967599405
 11
1353.022322238573
 21
1931.25
  0
LINE
  5
105
100
AcDbEntity
  8
main
  6
ByLayer
 62
  256
370
   -1
100
AcDbLine
 10
1446.977677761427
 20
1600.824032400595
 11
1353.022322238573
 21
1451.25
  0
LINE
  5
106
100
AcDbEntity
  8
main
  6
ByLayer
 62
  256
370
   -1
100
AcDbLine
 10
1353.022322238573
 20
1931.25
 11
123.022322238573
 21
1931.25
  0
LINE
  5
107
100
AcDbEntity
  8
main
  6
ByLayer
 62
  256
370
   -1
100
AcDbLine
 10
1353.022322238573
 20
1451.25
 11
123.022322238573
 21
1451.25
  0
LINE
  5
108
100
AcDbEntity
  8
seam
  6
ByLayer
 62
  256
370
   -1
100
AcDbLine
 10
113.022322238573
 20
1441.25
 11
113.022322238573
 21
1941.25
  0
LINE
  5
109
100
AcDbEntity
  8
seam
  6
ByLayer
 62
  256
370
   -1
100
AcDbLine
 10
113.022322238573
 20
1941.25
 11
1358.55001046605
 21
1941.25
  0
LINE
  5
10A
100
AcDbEntity
  8
seam
  6
ByLayer
 62
  256
370
   -1
100
AcDbLine
 10
1358.55001046605
 20
1441.25
 11
113.022322238573
 21
1441.25
  0
ARC
  5
10B
100
AcDbEntity
  8
seam
  6
ByLayer
 62
  256
370
   -1
100
AcDbCircle
 10
1303.022322238573
 20
1691.25
 40
180.01
100
AcDbArc
 50
328.4688351543144
 51
31.53116484566658
  0
LINE
  5
10C
100
AcDbEntity
  8
seam
  6
ByLayer
 62
  256
370
   -1
100
AcDbLine
 10
1456.454896281981
 20
1785.388437008558
 11
1358.55001046605
 21
1941.25
  0
LINE
  5
10D
100
AcDbEntity
  8
seam
  6
ByLayer
 62
  256
370
   -1
100
AcDbLine
 10
1456.454896281949
 20
1597.111562991391
 11
1358.55001046605
 21
1441.25
  0
ARC
  5
10E
100
AcDbEntity
  8
main
  6
ByLayer
 62
  256
370
   -1
100
AcDbCircle
 10
1303.022322238573
 20
1691.25
 40
170
100
AcDbArc
 50
-59.99999999999999
 51
45
  0
DIMENSION
  5
10F
100
AcDbEntity
  8
dim
  6
ByLayer
 62
  256
370
   -1
100
AcDbDimension
  2
*D9
 10
1303.022322238573
 20
1691.25
 30
0
 11
1385.793357900047
 21
1664.31455577632
 31
0
 70
   36
  1
%%C<>
 71
    5
 72
    0
  3
Standard
 53
0
210
0
220
0
230
1
100
AcDbRadialDimension
 15
1449.551138815394
 25
1605.056578484223
 35
0
 40
0
  0
DIMENSION
  5
110
100
AcDbEntity
  8
dim
  6
ByLayer
 62
  256
370
   -1
100
AcDbDimension
  2
*D10
 10
1353.022322238573
 20
1351.25
 30
0
 11
738.022322238573
 21
1370
 31
0
 70
   32
 71
    5
 72
    0
  3
Standard
 53
0
210
0
220
0
230
1
100
AcDbAlignedDimension
 13
123.022322238573
 23
1451.25
 33
0
 14
1353.022322238573
 24
1451.25
 34
0
100
AcDbRotatedDimension
  0
DIMENSION
  5
111
100
AcDbEntity
  8
dim
  6
ByLayer
 62
  256
370
   -1
100
AcDbDimension
  2
*D11
 10
123.022322238573
 20
1271.25
 30
0
 11
798.022322238573
 21
1290
 31
0
 70
   32
 71
    5
 72
    0
  3
Standard
 53
0
210
0
220
0
230
1
100
AcDbAlignedDimension
 13
1473.022322238573
 23
1691.25
 33
0
 14
123.022322238573
 24
1451.25
 34
0
100
AcDbRotatedDimension
  0
DIMENSION
  5
112
100
AcDbEntity
  8
dim
  6
ByLayer
 62
  256
370
   -1
100
AcDbDimension
  2
*D12
 10
183.022322238573
 20
1451.25
 30
0
 11
164.272322238573
 21
1691.25
 31
0
 70
   32
 71
    5
 72
    0
  3
Standard
 53
0
210
0
220
0
230
1
100
AcDbAlignedDimension
 13
123.022322238573
 23
1931.25
 33
0
 14
123.022322238573
 24
1451.25
 34
0
 50
90
100
AcDbRotatedDimension
  0
LINE
  5
113
100
AcDbEntity
  8
seam
  6
ByLayer
 62
  256
370
   -1
100
AcDbLine
 10
123.022322238573
 20
1931.25
 11
113.022322238573
 21
1941.25
  0
LINE
  5
114
100
AcDbEntity
  8
seam
  6
ByLayer
 62
  256
370
   -1
100
AcDbLine
 10
113.022322238573
 20
1441.25
 11
123.022322238573
 21
1451.25
  0
LINE
  5
115
100
AcDbEntity
  8
seam
  6
ByLayer
 62
  256
370
   -1
100
AcDbLine
 10
1353.022322238573
 20
1451.25
 11
1358.55001046605
 21
1441.25
  0
LINE
  5
116
100
AcDbEntity
  8
seam
  6
ByLayer
 62
  256
370
   -1
100
AcDbLine
 10
1358.55001046605
 20
1941.25
 11
1353.022322238573
 21
1931.25
  0
LINE
  5
117
100
AcDbEntity
  8
symmetry
  6
ByLayer
 62
  256
370
   -1
100
AcDbLine
 10
1253.022322238573
 20
1691.25
 11
1513.022322238573
 21
1691.25
  0
LEADER
  5
118
100
AcDbEntity
  8
dim
  6
ByLayer
 62
  256
370
   -1
100
AcDbLeader
  3
Standard
 71
    1
 72
    0
 73
    3
 74
    0
 75
    0
 40
1
 41
10
 76
3
 76
3
 10
1473.022322238573
 20
1691.25
 30
0
 10
1433.022322238573
 20
1731.25
 30
0
 10
1403.022322238573
 20
1731.25
 30
0
  0
MTEXT
  5
119
100
AcDbEntity
  8
dim
  6
ByLayer
 62
  256
370
   -1
100
AcDbMText
 10
1413.022322238573
 20
1751.25
 30
0
 40
30
 41
19.76666666666667
 71
    5
 72
    1
  1
A
  7
iso3098
210
0
220
0
230
1
 50
0
 73
    2
 44
1
  0
DIMENSION
  5
11A
100
AcDbEntity
  8
dim
  6
ByLayer
 62
  256
370
   -1
100
AcDbDimension
  2
*D14
 10
1446.977677761427
 20
1981.25
 30
0
 11
1400
 21
2000
 31
0
 70
   32
 71
    5
 72
    0
  3
Standard
 53
0
210
0
220
0
230
1
100
AcDbAlignedDimension
 13
1353.022322238573
 23
1931.25
 33
0
 14
1446.977677761427
 24
1781.675967599405
 34
0
100
AcDbRotatedDimension
  0
DIMENSION
  5
11B
100
AcDbEntity
  8
dim
  6
ByLayer
 62
  256
370
   -1
100
AcDbDimension
  2
*D15
 10
1300
 20
1000
 30
0
 11
800
 21
1018.75
 31
0
 70
   32
 71
    5
 72
    0
  3
Standard
 53
0
210
0
220
0
230
1
100
AcDbAlignedDimension
 13
300
 23
900
 33
0
 14
1300
 24
650
 34
0
100
AcDbRotatedDimension
  0
MTEXT
  5
11C
100
AcDbEntity
  8
dim
  6
ByLayer
 62
  256
370
   -1
100
AcDbMText
 10
300
 20
200
 30
0
 40
40
 41
512.8888888888889
 71
    1
 72
    1
  1
Front with zipper
  7
iso3098
210
0
220
0
230
1
 50
0
 73
    2
 44
1
  0
MTEXT
  5
11D
100
AcDbEntity
  8
dim
  6
ByLayer
 62
  256
370
   -1
100
AcDbMText
 10
200
 20
2000
 30
0
 40
40
 41
113.9111111111111
 71
    1
 72
    1
  1
Back
  7
iso3098
210
0
220
0
230
1
 50
0
 73
    2
 44
1
  0
MTEXT
  5
11E
100
AcDbEntity
  8
dim
  6
ByLayer
 62
  256
370
   -1
100
AcDbMText
 10
1600
 20
430
 30
0
 40
40
 41
468.3111111111111
 71
    1
 72
    1
  1
Sides (join A-B)
  7
iso3098
210
0
220
0
230
1
 50
0
 73
    2
 44
1
  0
ENDSEC
  0
SECTION
  2
OBJECTS
  0
DICTIONARY
  5
C
330
0
100
AcDbDictionary
281
    1
  3
ACAD_GROUP
350
D
  0
DICTIONARY
  5
D
330
C
100
AcDbDictionary
281
    1
  0
ENDSEC
  0
EOF
